<svg width="1440" height="816" viewBox="0 0 1440 816" fill="none" xmlns="http://www.w3.org/2000/svg">
<path opacity="0.1" fill-rule="evenodd" clip-rule="evenodd" d="M384.158 794C388.483 794 392.734 795.032 396.668 796.83C423.43 809.062 454.028 816 486.529 816C519.031 816 549.629 809.062 576.391 796.83C580.324 795.032 584.576 794 588.901 794H1412C1427.46 794 1440 781.464 1440 766V670.325C1440 660.088 1445.66 650.768 1454.32 645.308C1518.43 604.888 1560 540.019 1560 466.887C1560 426.015 1547.02 387.724 1524.37 354.84C1515.56 342.042 1517.25 324.492 1524.05 310.517C1528.11 302.16 1530.35 292.999 1530.35 283.392C1530.35 267.863 1524.49 253.499 1514.56 241.814C1506.62 232.484 1502.08 220.159 1503.56 208.001C1504.12 203.403 1504.41 198.735 1504.41 194.01C1504.41 119.964 1433.9 59.9381 1346.91 59.9381C1317.51 59.9381 1289.99 66.7966 1266.44 78.7367C1253.32 85.3877 1236.93 83.5251 1226.24 73.4229C1178.53 28.3419 1109.42 0 1032.53 0C948.762 0 874.224 33.6383 826.539 85.9122C816.387 97.0422 799.676 100.083 785.906 93.9723C764.157 84.3216 739.43 78.866 713.206 78.866C690.057 78.866 668.075 83.1171 648.278 90.7523C633.694 96.3766 616.475 91.9045 606.375 79.9755C571.833 39.1776 515.531 12.6186 451.941 12.6186C400.726 12.6186 354.239 29.8465 320.039 57.8659C309.357 66.6172 294.186 68.4331 282.092 61.769C241.353 39.3215 192.788 26.2887 140.647 26.2887C-3.30434 26.2887 -120 125.626 -120 248.165C-120 308.904 -91.3294 363.942 -44.8802 404.008C-32.6986 414.516 -29.7482 432.702 -37.649 446.715C-54.0111 475.737 -63.1765 508.256 -63.1765 542.598C-63.1765 594.027 -42.6215 641.369 -8.12327 678.995C-3.06235 684.515 0 691.638 0 699.126V766C0 781.464 12.536 794 28 794H384.158Z" fill="#C1C1C1"/>
</svg>
