<svg width="218" height="201" viewBox="0 0 218 201" fill="none" xmlns="http://www.w3.org/2000/svg">
<path d="M212.913 118.004C213.191 117.224 212.784 116.366 212.004 116.087L199.29 111.549C198.51 111.271 197.651 111.678 197.373 112.458C197.094 113.238 197.501 114.096 198.281 114.375L209.583 118.408L205.549 129.71C205.271 130.49 205.678 131.349 206.458 131.627C207.238 131.906 208.096 131.499 208.375 130.719L212.913 118.004ZM0.685179 74.5133C28.5862 118.864 105.877 169.218 212.142 118.855L210.858 116.145C106.123 165.782 30.4138 116.136 3.22449 72.9159L0.685179 74.5133Z" fill="#FFAA62"/>
</svg>
