<svg width="221" height="213" viewBox="0 0 221 213" fill="none" xmlns="http://www.w3.org/2000/svg">
<path d="M214.259 106.996C214.395 107.814 213.842 108.586 213.025 108.722L199.708 110.937C198.891 111.073 198.118 110.521 197.982 109.703C197.846 108.886 198.399 108.113 199.216 107.978L211.053 106.009L209.084 94.1714C208.949 93.3542 209.501 92.5816 210.318 92.4457C211.135 92.3098 211.908 92.862 212.044 93.6792L214.259 106.996ZM2.09991 114.885C4.63463 105.101 13.2063 95.3659 25.841 87.3624C38.5196 79.3311 55.4751 72.9188 75.1398 69.8679C114.489 63.7631 164.795 71.0997 213.651 106.022L211.907 108.463C163.713 74.0137 114.204 66.8433 75.5998 72.8325C56.2882 75.8286 39.7333 82.1135 27.4464 89.8968C15.1154 97.7078 7.26639 106.905 5.00403 115.637L2.09991 114.885Z" fill="#FFAA62"/>
</svg>
