<svg width="422" height="462" viewBox="0 0 422 462" fill="none" xmlns="http://www.w3.org/2000/svg">
    <path opacity="0.6" d="M102.097 461.553C59.8474 461.553 25.5972 456.762 25.5972 450.853C25.5972 444.943 59.8474 440.153 102.097 440.153C144.347 440.153 178.597 444.943 178.597 450.853C178.597 456.762 144.347 461.553 102.097 461.553Z" fill="#36384F"/>
    <path d="M118.097 414.353V432.553L131.797 437.053C138.397 439.253 143.197 445.053 144.197 451.953H95.6971L94.4971 414.153L118.097 414.353Z" fill="#33344A"/>
    <path d="M137.097 447.353L101.297 448.253" stroke="#A1A2CC" stroke-miterlimit="10" stroke-linecap="round"/>
    <path d="M81.897 422.353V432.553L95.597 437.053C102.197 439.253 106.997 445.053 107.997 451.953H59.4971L58.2971 417.153L81.897 422.353Z" fill="#36384F"/>
    <path d="M103.997 448.253H63.597" stroke="white" stroke-miterlimit="10" stroke-linecap="round"/>
    <path d="M186.297 205.253C186.297 205.253 199.797 193.953 201.397 185.853C202.997 177.853 192.697 176.653 176.897 189.853L186.297 205.253Z" fill="#54ACDC"/>
    <path d="M115.897 261.953C115.897 261.953 138.597 135.753 98.2971 128.453C57.9971 121.153 21.397 119.253 8.39703 157.253C-4.60297 195.253 5.19708 263.853 17.6971 277.753C30.1971 291.553 109.897 290.653 115.897 261.953Z" fill="#36384F"/>
    <path d="M46.097 246.953H6.49707" stroke="white" stroke-miterlimit="10" stroke-linecap="round"/>
    <path d="M103.797 138.153C103.797 138.153 97.7971 134.753 98.2971 128.353C98.6971 121.953 106.697 119.853 109.097 94.8529C111.497 69.8529 102.497 50.0529 77.0971 52.1529C53.3971 54.1529 47.0972 75.7529 49.6972 90.6529C52.2972 105.553 57.9971 116.453 62.7971 121.053C62.7971 121.053 65.8972 132.253 60.1972 135.053C54.4972 137.853 36.9971 138.953 28.3971 157.653C19.7971 176.253 5.79713 206.753 12.5971 226.453C19.3971 246.153 30.4971 248.653 41.2971 254.053C41.2971 254.053 33.5972 324.753 40.1972 358.453C46.7972 392.153 52.1971 417.753 60.0971 422.153C67.9971 426.553 88.6972 431.253 90.1972 413.753C90.1972 413.753 95.9972 424.853 113.497 422.953C131.697 421.053 135.297 366.453 134.197 338.353C132.997 310.253 130.297 270.153 122.497 264.653C122.497 264.653 126.197 229.553 120.697 201.453C120.697 201.453 116.797 232.353 155.297 223.353C193.897 214.353 190.797 200.453 179.797 191.753C171.497 185.153 162.697 196.553 141.997 195.253C123.597 194.153 141.997 140.753 103.797 138.153Z" fill="#FFAA62"/>
    <path d="M86.4972 146.453C86.4972 146.453 95.2971 226.853 89.3971 263.053" stroke="#36384F" stroke-width="2" stroke-miterlimit="10"/>
    <path d="M90.8971 410.853C90.8971 410.853 103.097 352.853 91.7971 286.453L90.8971 410.853Z" fill="white"/>
    <path d="M90.8971 410.853C90.8971 410.853 103.097 352.853 91.7971 286.453" stroke="#D6D6D6" stroke-width="2" stroke-miterlimit="10" stroke-linecap="round"/>
    <path d="M87.6972 74.9529C67.9972 74.1529 66.2972 85.0529 67.2972 89.4529C68.3972 93.8529 69.7972 101.253 88.6972 99.7529C97.9972 99.0529 107.397 99.5529 107.397 88.2529C107.497 76.8529 97.7972 75.3529 87.6972 74.9529Z" fill="#FACACC"/>
    <path d="M100.173 98.0276C96.3749 96.8509 94.2496 92.818 95.4262 89.0197C96.6029 85.2213 100.636 83.0961 104.434 84.2727C108.232 85.4493 110.358 89.4823 109.181 93.2806C108.005 97.0789 103.972 99.2042 100.173 98.0276Z" fill="white" stroke="#2F374C" stroke-width="2" stroke-miterlimit="10"/>
    <path d="M77.4971 98.8529C72.637 98.8529 68.6971 95.4055 68.6971 91.1529C68.6971 86.9003 72.637 83.4529 77.4971 83.4529C82.3572 83.4529 86.2971 86.9003 86.2971 91.1529C86.2971 95.4055 82.3572 98.8529 77.4971 98.8529Z" fill="white" stroke="#2F374C" stroke-width="2" stroke-miterlimit="10"/>
    <path d="M95.0972 91.8529C95.0972 91.8529 91.1972 88.4529 86.2972 91.8529" stroke="#2F374C" stroke-width="2" stroke-miterlimit="10"/>
    <path d="M88.1973 95.253C82.9973 95.853 75.0972 101.953 72.8972 109.353C70.6972 116.753 74.3973 127.853 88.1973 126.553C101.997 125.253 104.497 113.453 104.597 108.553C104.697 103.453 102.097 93.753 88.1973 95.253Z" fill="white"/>
    <path d="M72.8972 109.353C72.8972 109.353 57.4972 107.353 50.2972 93.2529" stroke="#2F374C" stroke-width="2" stroke-miterlimit="10" stroke-linecap="round"/>
    <path d="M108.397 102.653C108.397 102.653 107.297 105.853 104.497 106.353" stroke="#2F374C" stroke-width="2" stroke-miterlimit="10" stroke-linecap="round"/>
    <path d="M91.6972 97.2529C91.6972 97.2529 95.2972 114.753 88.9972 123.153" stroke="#36384F" stroke-miterlimit="10" stroke-linecap="round"/>
    <path d="M102.297 129.553C102.297 129.553 105.497 156.353 108.097 184.153C110.297 207.653 113.297 227.453 120.997 237.053C122.997 239.453 126.897 238.053 126.797 234.853C126.297 224.653 123.097 208.053 122.297 187.553C121.097 157.253 119.897 127.953 102.297 129.553Z" fill="#36384F"/>
    <path d="M43.0972 125.853C43.0972 125.853 77.2972 178.453 41.6972 233.653L35.5972 234.953C35.5972 234.953 55.8972 174.053 34.3972 128.453L43.0972 125.853Z" fill="#36384F"/>
    <path d="M132.797 202.653C111.097 209.153 109.997 224.353 105.397 245.653C100.997 265.853 80.6971 380.753 37.9971 380.153C-3.70287 379.553 -7.70288 304.653 13.7971 271.553" stroke="#212230" stroke-width="2" stroke-miterlimit="10" stroke-linecap="round"/>
    <path d="M210.997 175.053C209.197 175.253 207.597 175.953 205.997 176.853C205.597 177.053 205.197 177.253 204.797 177.653C204.397 177.953 204.097 178.453 203.797 178.853C203.497 179.353 203.197 179.853 202.797 180.153C202.397 180.553 202.097 180.753 201.597 180.853L191.497 184.053C184.797 186.253 177.997 188.253 171.297 190.353C164.497 192.353 157.797 194.353 150.997 196.253C144.197 198.153 137.397 199.953 130.497 201.653L131.397 204.853C138.097 202.653 144.797 200.653 151.597 198.653C158.397 196.653 165.197 194.853 171.997 192.953C178.797 191.153 185.597 189.353 192.497 187.653L202.797 184.953C203.197 184.853 203.697 184.853 204.197 184.953C204.697 185.053 205.197 185.353 205.697 185.553C206.197 185.753 206.697 185.953 207.197 186.053C207.697 186.153 208.097 186.053 208.597 186.053C210.397 185.953 212.197 185.753 213.797 184.953L210.997 175.053Z" fill="#36384F"/>
    <path d="M184.797 195.753C184.797 195.753 193.397 186.253 191.497 183.053C189.597 179.853 180.297 190.953 180.297 190.953L184.797 195.753Z" fill="#54ACDC"/>
    <path d="M79.1972 247.753L94.0972 253.453C94.0972 253.453 105.197 249.653 107.497 253.453C109.697 257.253 103.497 257.053 103.497 257.053C103.497 257.053 112.197 259.153 109.497 267.653C104.197 284.353 86.2972 268.153 86.2972 268.153C78.8972 265.953 70.5972 262.953 70.5972 262.953L79.1972 247.753Z" fill="#54ACDC"/>
    <path d="M38.1972 200.553C38.1972 200.553 34.7972 216.653 52.1972 226.053C69.5972 235.453 80.0972 239.453 79.1972 247.753C78.2972 256.153 73.2971 269.153 60.8971 264.553C48.4971 259.853 42.4971 255.453 34.3971 250.853" fill="#FFAA62"/>
    <circle cx="221.5" cy="177.5" r="11.5" fill="#2CCDB0"/>
    <circle cx="243.5" cy="124.5" r="7.5" fill="#2CCDB0"/>
    <circle cx="217.5" cy="79.5" r="7.5" fill="#2CCDB0"/>
    <circle cx="318" cy="132" r="9" fill="#2CCDB0"/>
    <circle cx="308" cy="80" r="8" fill="#2CCDB0"/>
    <circle cx="260" cy="30" r="8" fill="#2CCDB0"/>
    <circle cx="271" cy="311" r="8" fill="#2CCDB0"/>
    <circle cx="222" cy="241" r="8" fill="#2CCDB0"/>
    <circle cx="342.5" cy="4.5" r="4.5" fill="#2CCDB0"/>
    <circle cx="372.5" cy="51.5" r="4.5" fill="#2CCDB0"/>
    <circle cx="372.5" cy="170.5" r="4.5" fill="#2CCDB0"/>
    <circle cx="381.5" cy="117.5" r="4.5" fill="#2CCDB0"/>
    <circle cx="417.5" cy="86.5" r="4.5" fill="#2CCDB0"/>
    <circle cx="167.5" cy="108.5" r="4.5" fill="#2CCDB0"/>
</svg>
