<svg width="147" height="147" viewBox="0 0 147 147" fill="none" xmlns="http://www.w3.org/2000/svg">
    <path d="M73.5 147C32.907 147 0 114.093 0 73.5C0 32.9071 32.907 0 73.5 0C114.093 0 147 32.9071 147 73.5C147 114.093 114.093 147 73.5 147Z" fill="#FFAA62"/>
    <g clip-path="url(#clip0)">
        <path d="M89.5143 92.7252C89.4057 93.0527 89.1886 94.2534 89.6228 94.3626C90.0571 94.4717 95.0514 94.5809 95.7029 94.4717C96.4629 94.4717 96.4629 93.7076 95.0514 93.271C93.64 92.8344 91.7943 92.0703 91.7943 92.0703L89.5143 92.7252Z" fill="#F7958D"/>
        <path d="M63.7829 91.5244C63.6743 91.8519 63.24 94.2533 63.6743 94.3624C64.1086 94.4716 69.1029 94.5808 69.7543 94.4716C70.5143 94.4716 70.5143 93.7075 69.1029 93.2709C67.6915 92.8343 65.8458 92.0702 65.8458 92.0702L63.7829 91.5244Z" fill="#F7958D"/>
        <path d="M130.772 77.8803H16.3372C14.6001 77.8803 13.0801 76.4613 13.0801 74.6056V6.27465C13.0801 4.52817 14.4915 3 16.3372 3H130.772C132.509 3 134.029 4.41901 134.029 6.27465V74.7148C133.92 76.4613 132.509 77.8803 130.772 77.8803Z" fill="#8FD5E5"/>
        <path d="M125.126 72.6407H21.8743C20.2457 72.6407 18.9429 71.44 18.9429 69.8026V11.0773C18.9429 9.54912 20.2457 8.23926 21.8743 8.23926H125.126C126.754 8.23926 128.057 9.43996 128.057 11.0773V69.8026C128.057 71.3308 126.754 72.6407 125.126 72.6407Z" fill="#FF9F9F"/>
        <path d="M86.7606 73H60.2382C51.2531 73 44 70.433 44 67.2529V58.7471C44 55.567 51.2531 53 60.2382 53H86.7606C95.7458 53 102.999 55.567 102.999 58.7471V67.2146C103.107 70.433 95.7458 73 86.7606 73Z" fill="#1958DB"/>
        <path d="M81.2629 53.7572C81.2629 53.7572 79.4172 57.7959 74.2058 57.5776C67.6915 57.3593 66.28 52.7748 66.28 52.7748V43.2783H80.8286L81.2629 53.7572Z" fill="#F7958D"/>
        <path d="M73.4458 14.3523C72.0343 13.8065 66.3886 10.8593 61.6115 12.9333C56.8343 15.0072 56.6172 17.6269 56.5086 20.7924C56.4 23.9579 52.6 25.9227 50.8629 29.9614C49.1258 34.0002 50.1029 39.7854 53.9029 43.4967C57.7029 47.2079 57.0515 51.2467 57.0515 54.5213C57.0515 57.796 65.6286 61.2889 66.3886 52.884C67.1486 44.4791 68.3429 36.5107 68.56 34.4368C68.6686 33.3452 76.3772 26.141 77.68 21.1199C78.6572 16.7537 73.4458 14.3523 73.4458 14.3523Z" fill="#29266B"/>
        <path d="M73.4458 14.3523C74.8572 13.8065 80.8287 10.8593 85.7144 12.9333C90.4915 15.0072 90.7087 17.6269 90.8172 20.7924C90.9258 23.9579 94.7258 25.9227 96.4629 29.9614C98.2001 34.0002 97.2229 39.7854 93.4229 43.4967C89.6229 47.2079 90.2744 51.2467 90.2744 54.5213C90.2744 57.796 81.6972 61.2889 80.9372 52.884C80.1772 44.4791 77.8972 36.4016 77.5715 34.3276C77.3544 32.1445 73.4458 14.3523 73.4458 14.3523Z" fill="#29266B"/>
        <path d="M68.2343 47.4262C75.0743 52.884 79.6343 49.0636 84.3029 41.641C89.84 32.7995 89.84 24.1762 83.1086 18.7185C76.2686 13.2607 66.3886 14.3523 60.96 21.229C55.4229 27.9967 61.5029 41.9685 68.2343 47.4262Z" fill="#FCA89E"/>
        <path d="M57.8115 33.2361C58.2458 33.7819 63.24 31.4897 67.3658 27.3418C72.36 22.3206 73.1201 18.6094 73.6629 18.6094C74.2058 18.6094 75.7258 22.9756 78.2229 26.3594C81.9143 31.1622 89.5143 33.6728 89.5143 33.6728C89.5143 33.6728 91.2515 29.634 88.9715 25.1587C86.8 20.6833 81.8058 15.553 77.8972 15.1164C73.9886 14.5706 71.9258 14.6798 68.7772 14.8981C65.6286 15.0073 57.7029 20.5742 56.9429 23.8488C56.0743 26.9051 57.8115 33.2361 57.8115 33.2361Z" fill="#29266B"/>
        <path d="M71.6001 31.4893L81.6972 37.3836L71.6001 43.278V31.4893Z" fill="white"/>
        <path d="M139.566 87.0492C139.566 97.0914 132.943 105.278 124.691 105.278C116.549 105.278 109.817 97.0914 109.817 87.0492C109.817 77.0069 116.44 68.8203 124.691 68.8203C132.943 68.8203 139.566 77.0069 139.566 87.0492Z" fill="#2B79E6"/>
        <path d="M129.686 127C129.686 126.891 129.686 126.781 129.686 126.672C129.686 123.943 127.514 121.76 124.8 121.76C122.086 121.76 119.914 123.943 119.914 126.672C119.914 126.781 119.914 126.891 119.914 127H129.686Z" fill="#2B79E6"/>
        <path d="M124.909 94.7993H124.04V127H124.909V94.7993Z" fill="#2B79E6"/>
        <path d="M136.2 104.841C136.2 106.369 135.006 107.57 133.486 107.57H115.897C114.377 107.57 113.183 106.369 113.183 104.841V100.038C113.183 98.5103 114.377 97.3096 115.897 97.3096H133.486C135.006 97.3096 136.2 98.5103 136.2 100.038V104.841Z" fill="#2B79E6"/>
        <path d="M114.051 98.0737H131.097V102.222C131.097 104.405 129.686 105.496 127.514 105.496H114.486C112.314 105.496 110.034 104.514 110.034 102.222V102.112C110.143 99.8202 111.88 98.0737 114.051 98.0737Z" fill="#29266B"/>
        <path d="M131.097 97.9648H118.394L116.766 79.081C116.657 77.3345 117.96 75.9155 119.697 75.9155H129.794C131.531 75.9155 132.834 77.3345 132.726 79.081L131.097 97.9648Z" fill="#1958DB"/>
        <path d="M110.251 101.458L108.189 124.598H111.229C111.229 124.598 115.571 110.736 116.006 105.715C116.549 100.803 113.509 100.257 113.509 100.257L110.251 101.458Z" fill="#29266B"/>
        <path d="M120.023 101.239L117.96 124.708H121C121 124.708 125.56 109.644 125.994 104.732C126.537 99.8204 123.28 100.475 123.28 100.475L120.023 101.239Z" fill="#29266B"/>
        <path d="M117.091 77.6621L112.531 86.2854L118.72 85.8487L117.091 77.6621Z" fill="#1958DB"/>
        <path d="M131.966 76.8979L139.892 88.4684C140.217 89.2325 140 90.5423 139.132 90.7606L126.863 93.5987L125.234 90.8698L133.812 87.7043L127.623 81.4825L131.966 76.8979Z" fill="#1958DB"/>
        <path d="M108.297 124.599H111.337V126.891H105.257C104.823 126.891 104.714 126.018 105.04 125.799L108.297 124.599Z" fill="#1958DB"/>
        <path d="M117.96 124.599H121V126.891H114.92C114.486 126.891 114.377 126.018 114.703 125.799L117.96 124.599Z" fill="#1958DB"/>
        <path d="M125.017 90.8698L124.909 90.6515L132.617 88.0317L132.726 88.25L125.017 90.8698Z" fill="#112256"/>
        <path d="M125.343 93.4896V93.1621L134.571 92.1797V92.398L125.343 93.4896Z" fill="#112256"/>
        <path d="M127.949 92.8345H108.08V94.4718H127.949V92.8345Z" fill="#B3E3EF"/>
        <path d="M7.54285 87.0492C7.54285 97.0914 14.1657 105.278 22.4171 105.278C30.56 105.278 37.2914 97.0914 37.2914 87.0492C37.2914 77.0069 30.6686 68.8203 22.4171 68.8203C14.1657 68.8203 7.54285 77.0069 7.54285 87.0492Z" fill="#1958DB"/>
        <path d="M17.4229 127C17.4229 126.891 17.4229 126.781 17.4229 126.672C17.4229 123.943 19.5943 121.76 22.3086 121.76C25.0228 121.76 27.1943 123.943 27.1943 126.672C27.1943 126.781 27.1943 126.891 27.1943 127H17.4229Z" fill="#1958DB"/>
        <path d="M22.96 94.7993H22.0914V127H22.96V94.7993Z" fill="#1958DB"/>
        <path d="M10.9086 104.841C10.9086 106.369 12.1029 107.57 13.6229 107.57H31.2115C32.7315 107.57 33.9258 106.369 33.9258 104.841V100.038C33.9258 98.5103 32.7315 97.3096 31.2115 97.3096H13.5143C11.9943 97.3096 10.8 98.5103 10.8 100.038V104.841H10.9086Z" fill="#1958DB"/>
        <path d="M32.9487 98.0737H15.903V102.222C15.903 104.405 17.7487 106.26 19.9201 106.26H32.9487C35.1201 106.26 36.9658 104.405 36.9658 102.222V102.112C36.9658 99.8202 35.1201 98.0737 32.9487 98.0737Z" fill="#FF645F"/>
        <path d="M15.9028 97.9648H28.6057L30.2343 79.081C30.3428 77.3345 29.04 75.9155 27.3028 75.9155H17.2057C15.4686 75.9155 14.1657 77.3345 14.2743 79.081L15.9028 97.9648Z" fill="#29266B"/>
        <path d="M21.4401 77.1159H23.3944C24.0458 77.1159 24.4801 76.5701 24.4801 75.806V73.4046C24.4801 72.7497 23.9372 72.0947 23.3944 72.0947H21.4401C20.7887 72.0947 20.3544 72.6405 20.3544 73.4046V75.806C20.3544 76.5701 20.8972 77.1159 21.4401 77.1159Z" fill="#F7958D"/>
        <path d="M27.303 72.0951C26.543 74.824 24.263 74.3874 21.5487 73.6233C18.8344 72.8592 17.3144 70.0212 18.183 67.2923C18.943 64.5634 21.7658 63.0353 24.4801 63.9085C27.0858 64.6726 28.063 69.4754 27.303 72.0951Z" fill="#FCA89E"/>
        <path d="M36.7486 101.239L38.8114 124.708H35.7714C35.7714 124.708 30.8857 109.426 30.3429 104.514C29.8 99.6019 33.3829 100.475 33.3829 100.475L36.7486 101.239Z" fill="#FF645F"/>
        <path d="M26.9772 101.239L29.0401 124.708H26.0001C26.0001 124.708 21.1144 109.426 20.5715 104.514C20.0286 99.6019 23.6115 100.475 23.6115 100.475L26.9772 101.239Z" fill="#FF645F"/>
        <path d="M29.9086 77.6621L34.4686 86.2854L28.28 85.8487L29.9086 77.6621Z" fill="#29266B"/>
        <path d="M15.1429 76.8979L7.10861 88.3592C6.78289 89.1233 7.00004 90.4332 7.86861 90.6515L20.1372 93.4895L21.7658 90.7606L13.1886 87.5951L19.3772 81.3733L15.1429 76.8979Z" fill="#29266B"/>
        <path d="M38.7028 124.599H35.6628V126.891H41.7428C42.1771 126.891 42.2857 126.018 41.96 125.799L38.7028 124.599Z" fill="#29266B"/>
        <path d="M29.04 124.599H26V126.891H32.08C32.5143 126.891 32.6229 126.018 32.2971 125.799L29.04 124.599Z" fill="#29266B"/>
        <path d="M21.9829 90.8698L14.3829 88.25V88.0317L22.0915 90.6515L21.9829 90.8698Z" fill="#FF645F"/>
        <path d="M12.45 92.2903L12.4319 92.5078L21.3036 93.2526L21.3217 93.0351L12.45 92.2903Z" fill="#FF645F"/>
        <path d="M39.0286 92.8345H19.16V94.4718H39.0286V92.8345Z" fill="#B3E3EF"/>
        <path d="M126.863 94.4717H20.1372V95.7815H126.863V94.4717Z" fill="#823024"/>
        <path d="M20.6801 94.6899H20.1372V126.891H20.6801V94.6899Z" fill="#823024"/>
        <path d="M126.971 94.6899H126.429V126.891H126.971V94.6899Z" fill="#823024"/>
        <path d="M126.646 92.8345H121.543L121.217 90.6514H125.017C125.777 90.6514 126.32 91.1971 126.429 91.8521L126.646 92.8345Z" fill="#F7958D"/>
        <path d="M124.04 92.8342H108.08L105.909 83.0103H121.869L124.04 92.8342Z" fill="#B3E3EF"/>
        <path d="M115.68 88.1409C115.68 88.6866 115.246 89.2324 114.594 89.2324C113.943 89.2324 113.509 88.7958 113.509 88.1409C113.509 87.5951 113.943 87.0493 114.594 87.0493C115.246 87.0493 115.68 87.5951 115.68 88.1409Z" fill="#4E687F"/>
        <path d="M124.149 76.7887H126.103C126.754 76.7887 127.189 76.2429 127.189 75.4788V73.0774C127.189 72.4225 126.646 71.7676 126.103 71.7676H124.149C123.497 71.7676 123.063 72.3133 123.063 73.0774V75.4788C123.063 76.2429 123.606 76.7887 124.149 76.7887Z" fill="#F7958D"/>
        <path d="M120.891 71.7675C121.651 74.4964 123.931 74.0597 126.646 73.2957C129.36 72.5316 130.88 69.6935 130.011 66.9647C129.251 64.2358 126.429 62.7076 123.714 63.5809C121 64.345 120.023 69.1478 120.891 71.7675Z" fill="#FCA89E"/>
        <path d="M118.937 72.7501C118.937 74.7149 120.566 76.3522 122.52 76.3522C124.474 76.3522 126.103 74.7149 126.103 72.7501C126.103 70.7853 124.474 69.1479 122.52 69.1479C120.457 69.1479 118.937 70.7853 118.937 72.7501Z" fill="#FF645F"/>
        <path d="M121.76 71.7674H123.28C123.606 71.7674 123.823 71.5491 123.823 71.2216V71.0033C123.823 70.6758 123.606 70.4575 123.28 70.4575H121.76C121.434 70.4575 121.217 70.6758 121.217 71.0033V71.2216C121.217 71.5491 121.434 71.7674 121.76 71.7674Z" fill="#FCA89E"/>
        <path d="M20.3544 92.8345H25.4572L25.7829 90.6514H21.9829C21.2229 90.6514 20.6801 91.1971 20.5715 91.8521L20.3544 92.8345Z" fill="#F7958D"/>
        <path d="M23.0686 92.8342H38.92L41.0915 83.0103H25.24L23.0686 92.8342Z" fill="#B3E3EF"/>
        <path d="M31.3201 88.1409C31.3201 88.6866 31.7544 89.2324 32.4058 89.2324C32.9486 89.2324 33.4915 88.7958 33.4915 88.1409C33.4915 87.5951 33.0572 87.0493 32.4058 87.0493C31.8629 87.1585 31.3201 87.5951 31.3201 88.1409Z" fill="#4E687F"/>
        <path d="M70.8401 64.4544C69.1029 64.3453 64.3258 75.4791 63.8915 77.1164C63.3486 78.7537 63.2401 92.1798 63.6743 92.1798C64.2172 92.1798 66.8229 92.5072 66.8229 91.9614C66.8229 91.3065 67.6915 79.1903 67.8001 78.5354C67.9086 77.7713 74.7486 64.5636 70.8401 64.4544Z" fill="#BDF1FF"/>
        <path d="M66.0629 87.1587L81.3715 91.1974L81.2629 124.49H78.2229C78.2229 124.49 75.8343 106.37 74.9658 96.8735H72.5772L70.1886 124.49H67.1486C67.1486 124.49 65.8458 95.0178 65.8458 92.6164C65.7372 92.289 66.0629 87.1587 66.0629 87.1587Z" fill="#DA3F3A"/>
        <path d="M66.0629 87.1584L81.3714 91.1971L88.6457 71.2218C89.2971 69.5845 87.9943 67.7288 85.9314 67.1831L73.7714 64.0176C71.7086 63.4718 69.7543 64.4542 69.5371 66.2007L66.0629 87.1584Z" fill="#D2F7FF"/>
        <path d="M78.9829 67.5104C77.4629 66.9647 77.1372 65.2182 77.2458 64.7816L78.0058 61.7252C78.2229 61.0703 79.2001 61.3978 79.7429 61.5069L81.6972 62.0527C82.3486 62.1618 83.2172 63.0351 83.0001 63.69L82.3486 66.0914C82.3486 66.6372 80.8286 68.1654 78.9829 67.5104Z" fill="#FCA89E"/>
        <path d="M80.1771 64.2361C77.3543 64.4544 76.92 62.1622 76.7028 59.3241C76.4857 56.4861 78.6571 53.9756 81.48 53.7572C84.3028 53.5389 86.8 55.722 87.0171 58.5601C87.2343 61.5072 83 64.127 80.1771 64.2361Z" fill="#FCC4C0"/>
        <path d="M81.3714 124.489H78.3314V126.891H84.52C84.9543 126.891 85.0629 125.908 84.7371 125.799L81.3714 124.489Z" fill="#112256"/>
        <path d="M70.2972 124.489H67.2572V126.891H73.4458C73.8801 126.891 73.9886 125.908 73.6629 125.799L70.2972 124.489Z" fill="#112256"/>
        <path d="M120.891 67.1829C120.24 67.4013 119.046 66.7463 119.48 65.109C120.131 63.1442 121.869 63.2534 122.303 62.7076C122.737 62.1618 122.737 60.197 124.691 59.9787C126.754 59.7604 126.863 61.616 127.623 62.0527C128.383 62.4893 130.011 60.852 131.749 62.5984C133.269 64.1266 131.206 65.7639 131.749 66.7463C132.291 67.6196 133.486 68.4928 132.943 70.2393C132.4 71.9858 130.989 72.5315 130.337 72.5315C129.686 72.5315 128.709 72.0949 128.709 71.7675C128.709 71.3308 127.406 69.0386 128.926 67.1829C129.794 66.2006 128.817 65.109 127.514 65.4365C125.234 65.9822 123.823 64.3449 123.171 64.3449C122.52 64.3449 121.869 66.8555 120.891 67.1829Z" fill="#FF645F"/>
        <path d="M18.2915 71.1125C17.7486 70.2393 17.3143 67.6196 18.0743 66.3097C18.9429 64.6724 19.9201 63.9083 21.7658 63.4717C23.3943 63.0351 24.5886 62.7076 25.1315 61.9435C25.5658 61.1794 25.2401 60.0879 25.4572 60.0879C25.6743 60.0879 28.1715 61.7252 27.5201 64.2358C27.1943 65.5456 26.9772 66.3097 25.1315 67.4013C23.9372 68.0562 21.4401 67.8379 21.2229 68.4928C21.0058 69.1477 22.0915 69.9118 22.3086 70.2393C22.5258 70.6759 22.2001 71.0034 21.9829 71.1125C21.7658 71.2217 20.7886 70.3485 19.8115 70.3485C18.8343 70.1301 18.2915 71.1125 18.2915 71.1125Z" fill="#FF645F"/>
        <path d="M78.8743 54.8487C77.5714 55.9403 77.68 58.9966 78.1143 60.3065C78.5486 61.6163 78.6571 65.1093 79.96 65.2184C83.4343 65.6551 86.04 65.5459 86.8 64.3452C87.56 63.1445 89.2972 55.6128 84.4114 53.9755C80.3943 52.7748 79.7429 54.0846 78.8743 54.8487Z" fill="#2EB3DB"/>
        <path d="M87.6686 68.2747C89.1886 68.7113 89.6229 71.986 89.84 75.1515C90.0572 78.3169 89.5143 82.2465 89.84 82.6831C90.1658 83.2289 92.7715 91.743 92.88 92.2888C92.9886 92.8346 89.6229 93.4895 89.4058 93.162C89.08 92.8345 85.6057 84.6479 85.3886 83.8838C85.1715 83.1198 84.3029 77.3346 84.52 73.2958C84.7372 70.2395 85.8229 67.7289 87.6686 68.2747Z" fill="#BDF1FF"/>
    </g>
    <defs>
        <clipPath id="clip0">
            <rect x="7" y="3" width="133" height="124" fill="white"/>
        </clipPath>
    </defs>
</svg>
