<svg width="175" height="147" viewBox="0 0 175 147" fill="none" xmlns="http://www.w3.org/2000/svg">
    <path d="M87.5 147C46.907 147 14 114.093 14 73.5C14 32.9071 46.907 0 87.5 0C128.093 0 161 32.9071 161 73.5C161 114.093 128.093 147 87.5 147Z" fill="#FFAA62"/>
    <g clip-path="url(#clip0)">
        <path d="M142.982 116.837H6.48154C4.40747 116.837 2.59265 115.157 2.59265 112.958V32.0158C2.59265 29.9469 4.27784 28.1367 6.48154 28.1367H142.982C145.056 28.1367 146.87 29.8176 146.87 32.0158V113.088C146.87 115.157 145.185 116.837 142.982 116.837Z" fill="#B7DFEA"/>
        <path d="M136.37 110.631H13.0927C11.1482 110.631 9.59265 109.208 9.59265 107.269V37.7046C9.59265 35.8944 11.1482 34.3428 13.0927 34.3428H136.37C138.315 34.3428 139.87 35.7651 139.87 37.7046V107.269C139.87 109.079 138.315 110.631 136.37 110.631Z" fill="#FFBBBB"/>
        <path d="M67.926 62.6597L84.389 72.228L67.926 81.667V62.6597Z" fill="white"/>
        <path d="M9.33373 100.287C5.44484 99.7696 2.46336 92.658 5.18558 88.3911C7.9078 83.9948 9.33373 82.7018 7.13003 78.4349C4.92632 74.1679 -1.68479 70.8061 0.389285 65.3754C2.46336 59.9448 8.94484 59.8155 7.38929 54.7727C5.83373 49.8593 -0.518123 47.9198 2.59299 40.1617C5.44484 33.1794 11.7967 36.7998 11.7967 28.6539C11.7967 21.8009 1.94484 14.9479 10.63 9.90516C17.7597 5.76752 22.4263 16.7581 22.2967 22.8353C22.1671 33.438 14.0004 36.2826 17.1115 42.877C18.6671 46.2388 24.7597 48.3077 23.4634 56.5829C22.1671 64.8582 14.13 64.0824 14.13 69.1252C14.13 74.2972 23.7226 77.0126 22.9448 86.8395C22.2967 95.5026 20.8708 101.968 9.33373 100.287Z" fill="#2B79E6"/>
        <path d="M164.759 69.2544H103.315V90.4598H164.759C167.611 90.4598 169.815 87.2273 169.815 83.2189V76.4953C169.815 72.4869 167.611 69.2544 164.759 69.2544Z" fill="#0A5DC1"/>
        <path d="M163.982 71.7109H103.445V88.0029H163.982C166.056 88.0029 166.056 71.7109 163.982 71.7109Z" fill="white"/>
        <path d="M167.222 73.6504H102.407V74.5555H167.222V73.6504Z" fill="#B3E3EF"/>
        <path d="M167.222 76.4951H102.407V77.4002H167.222V76.4951Z" fill="#B3E3EF"/>
        <path d="M167.222 79.3398H102.407V80.2449H167.222V79.3398Z" fill="#B3E3EF"/>
        <path d="M167.222 82.1841H102.407V83.0892H167.222V82.1841Z" fill="#B3E3EF"/>
        <path d="M167.222 85.0288H102.407V85.9339H167.222V85.0288Z" fill="#B3E3EF"/>
        <path d="M164.759 111.794H103.315V133H164.759C167.611 133 169.815 129.767 169.815 125.759V119.035C169.815 115.027 167.611 111.794 164.759 111.794Z" fill="#823024"/>
        <path d="M163.982 114.251H103.445V130.543H163.982C166.056 130.543 166.056 114.251 163.982 114.251Z" fill="white"/>
        <path d="M167.222 116.19H102.407V117.096H167.222V116.19Z" fill="#B3E3EF"/>
        <path d="M167.222 119.035H102.407V119.94H167.222V119.035Z" fill="#B3E3EF"/>
        <path d="M167.222 121.88H102.407V122.785H167.222V121.88Z" fill="#B3E3EF"/>
        <path d="M167.222 124.724H102.407V125.629H167.222V124.724Z" fill="#B3E3EF"/>
        <path d="M167.222 127.569H102.407V128.474H167.222V127.569Z" fill="#B3E3EF"/>
        <path d="M112.648 111.794H174.093V90.4595H112.648C109.796 90.4595 107.593 93.692 107.593 97.7003V104.424C107.593 108.432 109.796 111.794 112.648 111.794Z" fill="#DA3F3A"/>
        <path d="M113.426 109.337H173.963V92.916H113.426C111.352 92.916 111.352 109.337 113.426 109.337Z" fill="white"/>
        <path d="M175 106.493H110.185V107.398H175V106.493Z" fill="#B3E3EF"/>
        <path d="M175 103.648H110.185V104.553H175V103.648Z" fill="#B3E3EF"/>
        <path d="M175 100.803H110.185V101.708H175V100.803Z" fill="#B3E3EF"/>
        <path d="M175 97.959H110.185V98.8641H175V97.959Z" fill="#B3E3EF"/>
        <path d="M175 94.9849H110.185V95.89H175V94.9849Z" fill="#B3E3EF"/>
        <path d="M87.7592 87.8735L91.1295 88.52L90.611 91.1061L83.7406 89.8131C83.3518 89.6838 83.3518 88.6493 83.7406 88.52L87.7592 87.8735Z" fill="#FC6262"/>
        <path d="M101.37 90.5891L104.741 90.2012L105 92.7872L98.1296 93.563C97.6111 93.563 97.3518 92.6579 97.7407 92.3993L101.37 90.5891Z" fill="#FC6262"/>
        <path d="M121.852 67.5734C124.056 63.6944 122.5 57.6172 122.5 57.6172L112.907 59.5567L98.5186 65.246L88.4075 82.5724L105.648 85.2877L105.389 73.6506C105.519 73.6506 118.352 73.6506 121.852 67.5734Z" fill="#2B79E6"/>
        <path d="M125.741 68.2197C127.944 64.3407 126.778 61.2374 126.778 61.2374L116.796 60.0737L101.63 66.4095L95.1482 83.4773L109.407 85.8047L109.148 74.1676C109.278 74.1676 122.241 74.2969 125.741 68.2197Z" fill="#0A5DC1"/>
        <path d="M119.389 22.1885C119.389 22.1885 124.574 21.2834 126.907 26.5848C127.556 28.1364 127.556 29.4294 127.426 30.3345C127.296 31.1103 126.519 31.7568 125.741 31.7568H122.889L119.389 22.1885Z" fill="#2A2873"/>
        <path d="M127.037 61.4962L109.796 60.979L112.518 52.5744L108.37 38.6099C108.241 36.7997 110.055 35.248 112.259 35.248L125.741 35.5067C127.944 35.5067 129.759 37.1876 129.5 38.9978L124.315 52.7037L127.037 61.4962Z" fill="#FF645F"/>
        <path d="M109.018 36.6703C106.944 39.3857 107.204 51.54 106.944 52.1865C106.685 52.833 103.185 62.9185 103.185 62.9185L106.685 63.1771C106.685 63.1771 110.704 53.8674 110.963 52.5744C111.352 51.2814 112.778 39.6443 112.389 38.6099C111.611 36.541 109.796 35.7652 109.018 36.6703Z" fill="#DA3F3A"/>
        <path d="M119 37.7047C121.982 37.834 121.982 35.7652 121.982 35.248L122.111 31.8862C122.111 31.1104 120.945 31.1104 120.296 31.1104H118.093C117.445 31.1104 116.278 31.6276 116.278 32.4034V34.9894C116.278 35.6359 116.537 37.7047 119 37.7047Z" fill="#F7958D"/>
        <path d="M114.463 31.1105C115.241 34.0844 117.704 33.6965 120.685 32.9207C123.667 32.1449 125.352 29.0417 124.574 26.197C123.796 23.2231 120.685 21.5422 117.833 22.318C114.852 23.0938 113.685 28.1366 114.463 31.1105Z" fill="#FCA89E"/>
        <path d="M120.685 25.0334C120.685 25.0334 120.685 26.9729 120.944 26.9729C121.204 26.9729 122.241 26.585 122.889 27.4901C123.667 28.3952 122.759 29.4296 121.852 29.5589C120.944 29.6882 121.463 32.0156 123.667 31.6277C125.741 31.2398 126.648 26.4557 125.611 24.5162C124.574 22.5766 121.204 20.5078 120.037 20.5078C118.87 20.6371 110.704 24.7748 110.704 24.7748L120.685 25.0334Z" fill="#2A2873"/>
        <path d="M106.685 63.1771L103.185 62.9185C103.185 62.9185 103.444 65.7631 105.129 66.0217C107.333 66.4096 106.685 63.1771 106.685 63.1771Z" fill="#FF9283"/>
        <path d="M116.148 63.3066L118.87 65.5048C118.87 65.5048 116.796 67.4443 115.37 66.5392C113.426 65.3755 116.148 63.3066 116.148 63.3066Z" fill="#FF9283"/>
        <path d="M125.611 32.7915C125.481 36.5413 122.37 39.5152 118.611 39.3859C114.852 39.2566 111.87 36.1533 112 32.4036C112.13 28.6539 115.241 25.6799 119 25.8092C122.63 25.9385 125.611 29.0418 125.611 32.7915Z" fill="#F7958D"/>
        <path d="M121.722 23.2229C122.889 23.2229 125.352 19.7318 123.278 17.6629C121.333 15.7234 118.093 17.4043 117.963 19.4732C117.574 22.835 119.13 23.0936 121.722 23.2229Z" fill="#2A2873"/>
        <path d="M11.9259 101.451H11.537C11.537 100.028 12.7037 97.5716 13.8704 94.8562C14.7778 92.9167 15.6852 90.8479 16.0741 89.4256C17.6296 83.7363 13.7407 78.8229 10.8889 75.3317C9.46295 73.6508 8.29628 72.2285 8.03702 70.9355C6.87035 66.9272 9.33332 64.729 11.7963 62.5309C13.4815 60.9793 15.2963 59.4277 15.8148 57.1003C16.5926 53.8677 15.1667 52.1868 13.4815 50.2473C11.9259 48.4371 10.1111 46.3682 9.85183 42.6185C9.72221 40.2911 11.0185 38.4809 12.5741 36.412C14.2592 34.0846 16.3333 31.3693 16.8518 27.2316C17.7592 20.8959 14.2592 16.241 14.1296 16.241L14.5185 15.9824C14.5185 15.9824 18.1481 20.7666 17.2407 27.3609C16.5926 31.6279 14.6481 34.3432 12.8333 36.7999C11.2778 38.8688 9.98146 40.5497 10.2407 42.7478C10.5 46.3682 12.1852 48.3078 13.7407 50.118C15.4259 52.0575 16.9815 53.997 16.2037 57.3589C15.6852 59.6863 13.7407 61.3672 12.0555 62.9188C9.59258 65.1169 7.38887 67.0564 8.42591 70.8062C8.68517 71.9699 9.85183 73.3922 11.2778 74.9438C14.2592 78.5643 18.1481 83.4777 16.5926 89.5549C16.2037 91.1065 15.2963 93.1753 14.3889 95.1148C13.0926 97.7009 11.9259 100.287 11.9259 101.451Z" fill="white"/>
        <path d="M18.4074 132.871H7.00001L3.62964 105.717C3.62964 105.717 4.14816 98.6059 13.6111 99.1231C20.8704 99.3817 21.7778 105.717 21.7778 105.717L18.4074 132.871Z" fill="#2A2873"/>
        <path d="M15.2964 16.1116C15.2964 16.6288 14.9075 17.146 14.2593 17.146C13.7408 17.146 13.2223 16.7581 13.2223 16.1116C13.2223 15.5944 13.6112 15.0771 14.2593 15.0771C14.9075 15.0771 15.2964 15.5944 15.2964 16.1116Z" fill="white"/>
        <path d="M101.37 90.5889L104.741 90.201L105 85.1582L100.852 84.5117L101.37 90.5889Z" fill="#FF9283"/>
        <path d="M87.8889 88.003L91.1297 88.5202L93.0741 83.3482L89.1852 82.7017L87.8889 88.003Z" fill="#FF9283"/>
        <path d="M126.648 37.3169C125.482 38.3513 125.093 43.2648 125.482 45.5922C125.87 47.7903 126.13 52.4452 126.13 53.221C126.13 54.1261 116.148 63.3065 116.148 63.3065L118.87 65.5046C118.87 65.5046 130.407 57.1 130.926 55.0312C131.444 52.9624 131.056 39.1271 129.889 37.7048C128.593 36.4118 127.296 36.6704 126.648 37.3169Z" fill="#DA3F3A"/>
    </g>
    <defs>
        <clipPath id="clip0">
            <rect y="9" width="175" height="124" fill="white"/>
        </clipPath>
    </defs>
</svg>
