<svg width="174" height="147" viewBox="0 0 174 147" fill="none" xmlns="http://www.w3.org/2000/svg">
    <path d="M86.5 147C45.907 147 13 114.093 13 73.5C13 32.9071 45.907 0 86.5 0C127.093 0 160 32.9071 160 73.5C160 114.093 127.093 147 86.5 147Z" fill="#FFAA62"/>
    <path d="M128.411 55.369C128.411 82.677 106.333 104.738 79.0041 104.738C51.6749 104.738 29.5967 82.677 29.5967 55.369C29.5967 28.061 51.6749 6 79.0041 6C106.333 6 128.411 28.061 128.411 55.369Z" fill="#FFC7C7"/>
    <path d="M10.2634 108.554H55.9712V91.1436H10.2634C7.99589 91.1436 6.08643 93.767 6.08643 97.106V102.591C6.20577 105.93 7.99589 108.554 10.2634 108.554Z" fill="#1194C8"/>
    <path d="M10.9796 106.527H55.9713V93.1709H10.9796C9.18943 93.1709 9.18943 106.527 10.9796 106.527Z" fill="white"/>
    <path d="M56.8067 104.261H8.354V104.976H56.8067V104.261Z" fill="#B3E3EF"/>
    <path d="M56.8067 101.876H8.354V102.591H56.8067V101.876Z" fill="#B3E3EF"/>
    <path d="M56.8067 99.6104H8.354V100.326H56.8067V99.6104Z" fill="#B3E3EF"/>
    <path d="M56.8067 97.2251H8.354V97.9406H56.8067V97.2251Z" fill="#B3E3EF"/>
    <path d="M56.8067 94.8403H8.354V95.5558H56.8067V94.8403Z" fill="#B3E3EF"/>
    <path d="M9.90547 73.7332H55.6133V56.2036H9.90547C7.63798 56.2036 5.72852 58.8271 5.72852 62.1661V67.6515C5.72852 70.9905 7.63798 73.7332 9.90547 73.7332Z" fill="#2A2873"/>
    <path d="M10.5021 71.7061H55.4939V58.231H10.5021C8.83133 58.231 8.83133 71.7061 10.5021 71.7061Z" fill="white"/>
    <path d="M56.3294 69.3208H7.87671V70.0363H56.3294V69.3208Z" fill="#B3E3EF"/>
    <path d="M56.3294 67.0552H7.87671V67.7707H56.3294V67.0552Z" fill="#B3E3EF"/>
    <path d="M56.3294 64.6704H7.87671V65.3859H56.3294V64.6704Z" fill="#B3E3EF"/>
    <path d="M56.3294 62.2852H7.87671V63.0006H56.3294V62.2852Z" fill="#B3E3EF"/>
    <path d="M56.3294 60.0195H7.87671V60.735H56.3294V60.0195Z" fill="#B3E3EF"/>
    <path d="M46.5433 73.7334H0.835449V91.1437H46.5433C48.8108 91.1437 50.7202 88.5203 50.7202 85.1813V79.6958C50.7202 76.3569 48.8108 73.7334 46.5433 73.7334Z" fill="#833125"/>
    <path d="M45.8272 75.7607H0.835449V89.1166H45.8272C47.6173 89.1166 47.6173 75.7607 45.8272 75.7607Z" fill="white"/>
    <path d="M48.4527 77.311H0V78.0265H48.4527V77.311Z" fill="#B3E3EF"/>
    <path d="M48.4527 79.6958H0V80.4113H48.4527V79.6958Z" fill="#B3E3EF"/>
    <path d="M48.4527 81.9619H0V82.6774H48.4527V81.9619Z" fill="#B3E3EF"/>
    <path d="M48.4527 84.3467H0V85.0622H48.4527V84.3467Z" fill="#B3E3EF"/>
    <path d="M48.4527 86.7314H0V87.447H48.4527V86.7314Z" fill="#B3E3EF"/>
    <path d="M171.971 108.554H103.111C101.918 108.554 101.082 107.6 101.082 106.526V64.9086C101.082 63.7161 102.037 62.8813 103.111 62.8813H171.971C173.165 62.8813 174 63.8353 174 64.9086V106.526C174 107.6 173.045 108.554 171.971 108.554Z" fill="#2A2873"/>
    <path d="M145.119 96.2714C145.119 96.2714 144.165 100.326 139.033 99.9681C133.901 99.6103 133.066 96.0329 133.066 96.0329L133.305 88.8779H144.761L145.119 96.2714Z" fill="#F7958D"/>
    <path d="M134.856 92.0974C140.226 96.3903 143.807 93.4091 147.506 87.5659C151.922 80.6495 151.922 73.8523 146.551 69.5594C141.181 65.2664 133.304 66.1011 129.008 71.4673C124.712 76.8335 129.486 87.8044 134.856 92.0974Z" fill="#FCA89E"/>
    <path d="M136.407 78.98L145.477 84.2269L136.407 89.4739V78.98Z" fill="white"/>
    <path d="M147.387 133H130.082C122.206 133 115.761 126.56 115.761 118.69V110.581C115.761 102.71 122.206 96.271 130.082 96.271H147.267C155.144 96.271 161.588 102.71 161.588 110.581V118.69C161.708 126.56 155.263 133 147.387 133Z" fill="#0C5A9A"/>
    <path d="M164.453 85.1808H163.975L165.169 73.9714C165.527 70.1555 165.527 67.1743 161.111 64.9085L161.35 64.5508C166.004 67.055 166.123 70.1555 165.646 74.0907L164.453 85.1808Z" fill="#2A2873"/>
    <path d="M153.473 64.4318L122.444 63.7163L126.979 76.4759H150.609L153.473 64.4318Z" fill="#0C5A9A"/>
    <path d="M138.675 73.1368L116.477 64.4317L139.391 54.1763L161.708 64.6702L138.675 73.1368Z" fill="#1C7BBA"/>
    <path d="M162.185 88.1624L164.453 84.1079L165.885 88.5201L162.185 88.1624Z" fill="#2A2873"/>
    <path d="M91.2964 68.248H70.4116L71.0083 106.05H74.9466C74.9466 106.05 77.9301 87.0894 79.1236 76.5955H81.8684L82.7038 106.05H86.6421C86.6421 106.05 91.2964 76.4762 91.1771 70.7523C91.4157 70.2753 91.2964 68.248 91.2964 68.248Z" fill="#DA3F3A"/>
    <path d="M91.2965 68.2482H70.4117L67.7862 44.7562C67.5475 42.8482 69.6956 41.1787 72.5598 41.1787H89.1483C91.8932 41.1787 94.1607 42.8482 93.922 44.7562L91.2965 68.2482Z" fill="#FF645F"/>
    <path d="M83.4198 41.0595V37.6013C83.4198 36.7665 82.2264 36.8858 81.5104 36.8858H79.2429C78.5268 36.8858 77.3334 37.482 77.3334 38.3168V41.0595C77.0947 41.298 77.9301 43.9215 80.0783 43.8022C83.7779 43.5637 83.4198 41.4172 83.4198 41.0595Z" fill="#F7958D"/>
    <path d="M75.5433 36.8856C76.498 39.986 79.0042 39.509 81.9877 38.5551C85.0906 37.6011 86.7614 34.5006 85.926 31.4001C84.9712 28.2997 81.8684 26.6302 78.7655 27.4649C75.6626 28.4189 74.5885 33.9044 75.5433 36.8856Z" fill="#FDA8A3"/>
    <path d="M81.8683 30.4463C81.8683 30.4463 81.8683 32.4735 82.107 32.4735C82.3457 32.4735 83.4197 31.9965 84.2551 33.0697C84.9712 34.0237 84.1358 34.9777 83.3004 35.2162C82.3457 35.4547 83.0617 37.8397 85.2099 37.3627C87.358 36.8857 88.1934 31.8773 87 29.85C85.9259 27.942 82.3457 25.6763 81.0329 25.9148C79.7202 26.0341 71.4856 30.5655 71.4856 30.5655L81.8683 30.4463Z" fill="#2A2873"/>
    <path d="M71.3663 41.417C71.3663 41.417 69.3375 41.6555 68.3828 42.0132C65.5186 43.2057 56.926 48.9297 56.926 48.9297C55.8519 49.5259 55.2552 51.5531 55.8519 52.6264C57.1647 55.0114 65.8766 61.9278 65.8766 61.9278L68.1441 59.3043L62.177 52.5071C62.177 52.5071 70.0536 49.8837 72.6791 49.0489C73.8725 48.6912 71.963 43.9212 71.963 43.9212L71.3663 41.417Z" fill="#FF645F"/>
    <path d="M71.0083 106.05H75.0659V108.673H68.0247C67.5474 108.673 67.428 107.6 67.7861 107.362L71.0083 106.05Z" fill="#112256"/>
    <path d="M86.5227 106.05H82.4651V108.673H89.5062C89.9836 108.673 90.1029 107.6 89.7449 107.362L86.5227 106.05Z" fill="#112256"/>
    <path d="M89.9836 54.2959H71.7244V70.633H89.9836V54.2959Z" fill="white"/>
    <path d="M65.9961 62.0473L72.0825 65.0285L72.7986 63.9553L68.2636 59.4238L65.9961 62.0473Z" fill="#F7958D"/>
    <path d="M90.461 41.417C90.461 41.417 92.4898 41.6555 93.4446 42.0132C96.3087 43.2057 104.901 48.9297 104.901 48.9297C105.975 49.5259 106.572 51.5531 105.975 52.6264C104.663 55.0114 95.9507 61.9278 95.9507 61.9278L93.6832 59.3043L99.6503 52.5071C99.6503 52.5071 91.7738 49.8837 89.1483 49.0489C87.9548 48.6912 89.8643 43.9212 89.8643 43.9212L90.461 41.417Z" fill="#FF645F"/>
    <path d="M95.8313 62.0473L89.7449 65.0285L89.1482 63.9553L93.5638 59.4238L95.8313 62.0473Z" fill="#F7958D"/>
    <path d="M86.8806 59.0659H74.8271V60.9739H86.8806V59.0659Z" fill="#2A2873"/>
    <path d="M86.8806 63.478H74.8271V65.386H86.8806V63.478Z" fill="#2A2873"/>
    <path d="M41.2921 29.8496H38.7859V50.7182H41.2921V29.8496Z" fill="#112256"/>
    <path d="M37.5925 28.6574C37.5925 27.3457 39.9794 19.833 39.9794 19.833C39.9794 19.833 42.3662 27.3457 42.3662 28.6574C42.3662 29.9692 41.2921 31.0424 39.9794 31.0424C38.6666 31.0424 37.5925 29.9692 37.5925 28.6574Z" fill="#61B3DB"/>
    <path d="M35.2056 37.124C34.2509 36.17 30.6707 29.1343 30.6707 29.1343C30.6707 29.1343 37.7118 32.7117 38.6665 33.6657C39.6213 34.6197 39.6213 36.17 38.6665 37.124C37.7118 38.0779 36.1604 38.0779 35.2056 37.124Z" fill="#61B3DB"/>
    <path d="M41.2922 33.6657C42.247 32.7117 49.2881 29.1343 49.2881 29.1343C49.2881 29.1343 45.7079 36.17 44.7531 37.124C43.7984 38.0779 42.247 38.0779 41.2922 37.124C40.3375 36.17 40.3375 34.6197 41.2922 33.6657Z" fill="#61B3DB"/>
    <path d="M39.502 38.078L34.967 33.5465L35.0864 33.4272L39.6214 37.9587L39.502 38.078Z" fill="#112256"/>
    <path d="M44.6504 33.3689L40.0923 37.9209L40.261 38.0896L44.8192 33.5376L44.6504 33.3689Z" fill="#112256"/>
    <path d="M40.0988 26.6299H39.8601V33.0693H40.0988V26.6299Z" fill="#112256"/>
    <path d="M40.5761 26.6298C40.5761 26.8683 40.3374 27.1068 40.0987 27.1068C39.86 27.1068 39.6213 26.8683 39.6213 26.6298C39.6213 26.3913 39.86 26.1528 40.0987 26.1528C40.3374 26.1528 40.5761 26.2721 40.5761 26.6298Z" fill="#112256"/>
    <path d="M44.753 33.9042C45.0166 33.9042 45.2304 33.6906 45.2304 33.4272C45.2304 33.1638 45.0166 32.9502 44.753 32.9502C44.4894 32.9502 44.2756 33.1638 44.2756 33.4272C44.2756 33.6906 44.4894 33.9042 44.753 33.9042Z" fill="#112256"/>
    <path d="M35.5639 33.4272C35.5639 33.6657 35.3252 33.9042 35.0865 33.9042C34.8478 33.9042 34.6091 33.6657 34.6091 33.4272C34.6091 33.1887 34.8478 32.9502 35.0865 32.9502C35.3252 32.9502 35.5639 33.1887 35.5639 33.4272Z" fill="#112256"/>
    <path d="M43.7983 40.3438H36.2798C36.2798 40.3438 34.609 41.1785 34.3703 43.6827C34.1316 48.2142 36.9958 56.3231 36.9958 56.3231H44.037C44.037 56.3231 46.4238 46.6639 45.8271 43.6827C45.4691 41.1785 43.7983 40.3438 43.7983 40.3438Z" fill="#0E97CD"/>
</svg>
