<svg width="302" height="324" viewBox="0 0 302 324" fill="none" xmlns="http://www.w3.org/2000/svg">
    <circle cx="151" cy="172" r="151" fill="#FFAA62"/>
    <g clip-path="url(#clip0)">
        <path d="M154.9 297.9C160.5 296.7 187.9 289.9 207.2 269.7C204.2 266.9 199.1 260.5 194.6 252L154.4 258.3L114.1 252C109.6 260.6 104.5 267 101.5 269.7C120.8 289.9 148.1 296.7 153.8 297.9V298.1C153.8 298.1 154 298.1 154.3 298C154.6 298.1 154.8 298.1 154.8 298.1L154.9 297.9Z" fill="#3E6185"/>
        <path d="M94.9001 270C76.1001 266.3 42.8001 265 28.1001 272.8C13.4001 280.6 4.70006 300 37.1001 316.4C69.5001 332.8 110.6 317 143.3 316.7C176 316.4 185.9 323.4 199.1 321.1C232.1 323.9 272.9 314.9 279.6 299.7C287.6 281.7 267.9 264.7 239.7 265.9C211.6 267.1 205.6 263.5 192.2 281.3C161.2 288.3 155.1 288.8 145.4 281.6C135.8 274.4 131.2 280.8 123.7 278.8C116.3 276.9 108.2 264.7 94.9001 270Z" fill="#FFC7AB"/>
        <path d="M114 80.7C104.4 89.4 84.2 88.5001 78.9 102.4C73.6 116.3 79.4 138.8 116.5 140.6C153.6 142.4 192 139.7 201 138.3C210 136.9 228.7 131.9 223.6 111.4C218.6 90.9001 202.5 92.9 196.7 75C190.9 57.1001 203 24.1 173.2 20.4C149.2 18.3 137.9 57.3 114 80.7Z" fill="#6F438F"/>
        <path d="M173.8 22.7999C183.7 22.5999 191.9 38.6999 189.4 54.3999C186.9 70.0999 182.2 84.9999 196.9 93.7999C211.6 102.6 219.4 115 206.8 128.2" stroke="#43205C" stroke-miterlimit="10" stroke-linecap="round"/>
        <path d="M133.5 63.2001C123.2 70.1001 118.5 110.8 132.8 118.6C147.1 126.4 185 122.6 185.9 118.1C178.7 110.1 178.1 96.1001 181.2 81.9001C184.3 67.7001 186.5 61.2001 186 51.8001C185.5 42.4001 181.8 27.5001 171.3 28.2001C160 28.6001 138.2 46.6001 133.5 63.2001Z" fill="#4E256B"/>
        <path d="M175.5 28.7C179.7 29.2 188.7 43.3 185.2 61.7C181.8 80.2 172.7 105.4 187.3 119.5" stroke="#43205C" stroke-miterlimit="10" stroke-linecap="round"/>
        <path d="M136.9 74.0999C131.3 81.5999 147.7 100.6 139.4 114.7" stroke="#43205C" stroke-miterlimit="10" stroke-linecap="round"/>
        <path d="M237 214.4C235.9 204.5 232.6 192.4 226.2 160.1C219.8 127.8 204.2 124.3 184.9 117.7C165.6 111.1 166.1 95.5 167 83.3L154.6 82.2H154.4H154.2L141.8 83.3C142.7 95.4 143.2 111 123.9 117.7C104.6 124.3 89.1 127.8 82.6 160.1C76.2 192.4 73 204.6 71.8 214.4C70.7 224.3 74.3 227.7 83.3 227C92.2 226.3 94.8 210.7 97.5 195.6C100.3 180.5 103.2 164.4 105.3 165.6C107.4 166.7 111 184.2 113.3 186.9C115.5 189.5 151.2 185.9 154.3 185.5C157.5 185.8 193.1 189.5 195.3 186.9C197.6 184.1 201.3 166.7 203.3 165.6C205.4 164.5 208.3 180.5 211.1 195.6C213.9 210.7 216.4 226.3 225.3 227C234.5 227.7 238.1 224.3 237 214.4Z" fill="#FFC7AB"/>
        <path d="M154.7 109.5C159.9 109.5 164.8 107.5 169 103.9C166.2 97.2999 166.6 89.7999 167.1 83.1999L154.7 82.0999H154.5H154.3L141.9 83.1999C142.4 89.5999 142.7 97.0999 140.1 103.6C144.3 107.4 149.3 109.5 154.7 109.5Z" fill="#C98665" fill-opacity="0.5"/>
        <path d="M181.9 52.3999C181.9 72.9999 169.7 89.6999 154.7 89.6999C139.7 89.6999 127.5 72.9999 127.5 52.3999C127.5 31.7999 139.7 15.0999 154.7 15.0999C169.7 15.0999 181.9 31.7999 181.9 52.3999Z" fill="#FFC7AB"/>
        <path d="M144 47.7999C144 51.7999 137.8 52.7 136.6 47.7" stroke="black" stroke-width="2" stroke-miterlimit="10" stroke-linecap="round"/>
        <path d="M132.9 61.4C132.9 65.1 135.9 68 139.5 68C143.2 68 146.1 65 146.1 61.4C146.1 57.7 143.1 54.8 139.5 54.8C135.9 54.7 132.9 57.7 132.9 61.4Z" fill="#FF8C94"/>
        <path d="M144 36.5C141.8 35.8 138.4 36.2 136.3 38.3" stroke="#6F438F" stroke-miterlimit="10" stroke-linecap="round"/>
        <path d="M195.4 199.4C199 186 202.3 170.1 202.3 170.1C193.3 157 192.7 139.5 193 120.6C185.8 117.8 179.7 114.8 179.7 114.8C182.4 127.3 189 166.1 156.5 166.1C156.3 171.6 155 177.8 152.8 184.3C152.6 177.7 152.4 171.5 152.2 166.1C119.6 166.1 126.3 127.3 129 114.8C129 114.8 123 117.9 115.7 120.6C116 139.5 115.4 157 106.4 170.1C106.4 170.1 109.7 186 113.3 199.4C116.9 212.8 120.5 232.7 112.1 255.3C115.2 256.5 124.7 258.2 134.4 258.9C170.6 263.3 191.7 257.2 196.5 255.3C188.1 232.7 191.8 212.9 195.4 199.4Z" fill="#F26F8C"/>
        <path d="M224 205.2C213.1 204.1 186 199 174.2 190.8C162.4 182.5 161.7 179.1 162.6 164.9C163.5 150.7 158.8 142.9 156.6 144.3C154.4 145.7 154.6 162.9 155 178C155.4 193.1 153.7 198.4 160.1 202.3C166.6 206.2 195.8 222.2 211 227.1C229.3 233.3 237.6 228.9 236.5 216.6C235.4 204.1 224 205.2 224 205.2Z" fill="#FFC7AB"/>
        <path d="M85.7001 205.2C96.6001 204.1 123.7 199 135.5 190.8C147.3 182.5 148 179.1 147.1 164.9C146.2 150.7 150.9 142.9 153.1 144.3C155.3 145.7 155.1 162.9 154.7 178C154.3 193.1 156 198.4 149.6 202.3C143.1 206.2 113.9 222.2 98.7001 227.1C80.4001 233.3 72.1001 228.9 73.2001 216.6C74.3001 204.1 85.7001 205.2 85.7001 205.2Z" fill="#FFC7AB"/>
        <path d="M147.1 165.8C147.1 165.5 147.1 165.2 147 164.9C146.1 150.7 150.8 142.9 153 144.3C155.2 145.7 155 162.9 154.6 178C154.3 189.3 155.2 195.1 153 199" stroke="#C98665" stroke-miterlimit="10" stroke-linecap="round"/>
        <path d="M173.9 21.6C174.4 3.69995 146.5 -8.90005 134 7.89995C125.4 19.5 135.1 21.1 117.3 36.9C98.1 53.9 118.5 70.2999 111.6 80.6C104.7 90.9 80.1 105 96.6 128.6C113.1 152.2 137.3 129.2 136.2 115.2C134.7 95.3999 122.1 84.2 131.3 73.6C141.5 62 142.9 57.2 142 45C141.1 32.8999 150.3 10.9 168.5 22.6C172.8 25.3 173.7 23.7 173.9 21.6Z" fill="#895CAB"/>
        <path d="M155.4 11.3998C146.6 12.4998 142.6 24.5998 142.5 38.5998C144.4 26.6998 153.3 12.6998 168.7 22.5998C169.7 23.2998 170.5 23.6998 171.2 23.8998C168.4 17.5998 164.3 10.1998 155.4 11.3998Z" fill="#6F438F"/>
        <path d="M83.2001 209.7C85.2001 207.6 88.5001 205.1 97.1001 203.6" stroke="#C98665" stroke-miterlimit="10" stroke-linecap="round"/>
        <path d="M60.4 283.8C67.1 278.6 92.2 277.4 118.6 288.7C145 300 153.4 304.4 174.2 299.7C195 295 210.3 296 210 305.4C209.7 314.7 206.6 320.2 200.1 321" stroke="#C98665" stroke-miterlimit="10" stroke-linecap="round"/>
        <path d="M88.4 280.4C88.2 274.4 94.7 268.5 103.4 269.2" stroke="#C98665" stroke-miterlimit="10" stroke-linecap="round"/>
        <path d="M209.8 303.5C210.3 307 206.6 308.2 202 307.6C199.6 308.1 198.6 307.9 198.6 307.9" stroke="#C98665" stroke-miterlimit="10" stroke-linecap="round"/>
        <path d="M199.9 311.6C202.3 311.9 207.8 312.2 209.2 310.5" stroke="#C98665" stroke-miterlimit="10" stroke-linecap="round"/>
        <path d="M199.1 314.8C201.4 315.3 207.1 315.7 208.3 314.3" stroke="#C98665" stroke-miterlimit="10" stroke-linecap="round"/>
        <path d="M197.6 318C199.4 318.8 203.6 319.7 205.2 318.6" stroke="#C98665" stroke-miterlimit="10" stroke-linecap="round"/>
        <path d="M192.6 281C204.4 277 238.6 272.1 249.8 285.1" stroke="#C98665" stroke-miterlimit="10" stroke-linecap="round"/>
        <path d="M92.2001 272.5C90.4001 274.9 94.3001 277.7 99.8001 277.2C100.7 278.1 102.4 278.6 102.4 278.6" stroke="#C98665" stroke-miterlimit="10" stroke-linecap="round"/>
        <path d="M89.3 276.8C89 278.8 93.9 280.2 97.2 279.9" stroke="#C98665" stroke-miterlimit="10" stroke-linecap="round"/>
        <path d="M154.2 155C152.7 155.5 152.1 164 152.1 171" stroke="#C98665" stroke-miterlimit="10" stroke-linecap="round"/>
        <path d="M154 147.8C152.5 147.6 150.2 153.6 149.7 166.7" stroke="#C98665" stroke-miterlimit="10" stroke-linecap="round"/>
        <path d="M162.9 165.8C162.9 165.5 162.9 165.2 163 164.9C163.9 150.7 159.2 142.9 157 144.3C154.8 145.7 155 162.9 155.4 178C155.7 189.3 154.8 195.1 157 199" stroke="#C98665" stroke-miterlimit="10" stroke-linecap="round"/>
        <path d="M155.8 155C157.3 155.5 157.9 164 157.9 171" stroke="#C98665" stroke-miterlimit="10" stroke-linecap="round"/>
        <path d="M156 147.8C157.5 147.6 159.8 153.6 160.3 166.7" stroke="#C98665" stroke-miterlimit="10" stroke-linecap="round"/>
        <path d="M171.1 23.2999C167.7 14.3999 159.8 7.0999 150.8 13.3999C141.9 19.6999 142.1 38.1999 142.1 47.2999" stroke="#43205C" stroke-miterlimit="10" stroke-linecap="round"/>
        <path d="M146.8 17.9999C150.2 13.9999 159.3 13.9999 163.7 19.9999" stroke="#43205C" stroke-miterlimit="10" stroke-linecap="round"/>
        <path d="M144.4 23.6C145.8 20.4 152.7 18.7 156.1 19.8" stroke="#43205C" stroke-miterlimit="10" stroke-linecap="round"/>
        <path d="M95.5001 99.2C90.8001 107.7 86.6001 119 100 132.7" stroke="#43205C" stroke-miterlimit="10" stroke-linecap="round"/>
        <path d="M142.2 1.5C133 7.1 144.9 21.5 123.7 35.6C102.5 49.7 123.4 62.4 121.1 81.4C118.8 100.4 88.2 108.2 99.2 130.5" stroke="#43205C" stroke-miterlimit="10" stroke-linecap="round"/>
        <path d="M164.4 47.7999C164.4 51.7999 170.6 52.7 171.8 47.7" stroke="black" stroke-width="2" stroke-miterlimit="10" stroke-linecap="round"/>
        <path d="M151.4 58.8999C153 60.7999 155.8 61.2999 158 58.9999" stroke="#C98665" stroke-miterlimit="10" stroke-linecap="round"/>
        <path d="M149.9 66.9999C151.2 70.7999 156.5 72.4999 159.4 66.8999" stroke="#DB6C73" stroke-miterlimit="10" stroke-linecap="round"/>
        <path d="M175.5 61.4C175.5 65.1 172.5 68 168.9 68C165.2 68 162.3 65 162.3 61.4C162.3 57.7 165.3 54.8 168.9 54.8C172.6 54.7 175.5 57.7 175.5 61.4Z" fill="#FF8C94"/>
        <path d="M164.4 36.5C166.6 35.8 170 36.2 172.1 38.3" stroke="#6F438F" stroke-miterlimit="10" stroke-linecap="round"/>
    </g>
    <defs>
        <clipPath id="clip0">
            <rect x="15" width="266.4" height="323.8" fill="white"/>
        </clipPath>
    </defs>
</svg>
