<svg width="518" height="438" viewBox="0 0 518 438" fill="none" xmlns="http://www.w3.org/2000/svg">
<g clip-path="url(#clip0)">
<path d="M209.867 394.842C202.954 364.905 221.561 335.018 251.427 328.089C281.293 321.159 311.108 339.81 318.021 369.747C324.934 399.684 306.327 429.571 276.461 436.5C246.595 443.43 216.78 424.779 209.867 394.842Z" fill="#FFAA62"/>
<path d="M55.5091 267.511C24.8523 267.511 3.05176e-05 242.599 3.05176e-05 211.87C3.05176e-05 181.14 24.8523 156.228 55.5091 156.228C86.1659 156.228 111.018 181.14 111.018 211.87C111.018 242.599 86.1659 267.511 55.5091 267.511Z" fill="#FFAA62"/>
<path d="M436.705 158.902C406.048 158.902 381.196 133.991 381.196 103.261C381.196 72.5311 406.048 47.6196 436.705 47.6196C467.362 47.6196 492.214 72.5311 492.214 103.261C492.214 133.991 467.362 158.902 436.705 158.902Z" fill="#FFAA62"/>
<path d="M398.09 36.7969C398.09 36.7969 347.027 -1.65539 272.337 18.3347C180.627 42.7812 172.624 129.745 110.129 147.57C47.6337 165.396 31.5017 247.521 49.285 290.684C67.0682 333.848 142.52 423.612 273.989 392.29C395.931 363.26 465.413 297.942 471.129 195.572C474.304 90.6557 398.09 36.7969 398.09 36.7969Z" fill="#FFAA62"/>
<path d="M97.2997 65.5727L94.2511 50.0389L60.9712 37.561C60.9712 37.561 64.0197 49.657 72.2762 52.3308C80.6597 55.0046 85.4866 55.0046 85.4866 55.0046L85.8676 67.4826L97.2997 65.5727Z" fill="#130E42"/>
<path d="M103.27 256.561L88.281 261.654L80.4055 296.414C80.4055 296.414 91.9646 291.703 93.4889 283.172C95.0132 274.514 94.3781 269.676 94.3781 269.676L106.699 267.638L103.27 256.561Z" fill="#130E42"/>
<path d="M228.387 154.828C228.387 154.828 188.248 242.937 183.675 249.685C179.102 256.434 102.635 273.241 102.635 273.241L98.8239 252.741C98.8239 252.741 156.365 229.186 160.938 226.894C165.511 224.602 180.627 160.812 180.627 160.812L228.387 154.828Z" fill="#130E42"/>
<path d="M191.932 182.84L178.34 176.728C178.34 176.728 118.513 167.561 105.683 160.048C94.3782 147.952 80.6597 64.4268 80.6597 64.4268L104.921 59.0791C104.921 59.0791 122.323 125.161 126.896 131.273C131.469 137.384 186.724 144.897 186.724 144.897C186.724 144.897 212.51 132.801 238.93 141.077L191.932 182.84Z" fill="url(#paint0_linear)"/>
<path d="M441.151 91.5472C441.151 91.5472 444.073 87.8547 445.724 85.1809C447.502 82.3797 445.343 77.796 448.518 74.4856C451.694 71.1751 458.172 68.5012 458.807 70.4111C459.442 72.321 451.948 75.2495 450.805 77.414C449.662 79.7059 450.043 82.7617 450.043 82.7617C450.043 82.7617 450.932 78.3053 454.616 76.9047C458.299 75.5042 466.175 75.2495 464.523 77.414C462.872 79.5786 457.41 78.0507 455.505 80.5972C453.599 83.0164 453.091 86.1995 453.091 86.1995C453.091 86.1995 455.378 83.0164 458.172 82.2524C460.967 81.4885 466.429 83.1437 465.921 84.9262C465.413 86.7088 460.078 84.1623 458.934 85.0536C457.791 85.9449 456.013 91.1652 454.107 93.0751C452.202 94.985 447.248 99.696 447.248 99.696L441.151 91.5472Z" fill="#FF8E75"/>
<path d="M314.128 138.658C314.128 138.658 299.266 145.788 306.634 162.213C314.001 178.638 340.168 173.927 359.856 163.995C379.545 154.064 429.846 136.62 451.313 101.479C451.313 101.479 448.9 90.5285 438.484 89.1279C438.484 89.1279 397.328 113.065 372.432 119.431C347.535 125.798 319.59 133.692 314.128 138.658Z" fill="#D4E9FF"/>
<path d="M266.367 321.752C266.367 321.752 267.511 326.335 268.654 329.391C269.797 332.447 274.751 333.593 275.513 338.177C276.275 342.76 274.37 349.509 272.464 348.745C270.559 347.981 272.846 340.341 271.702 338.177C270.559 335.885 267.892 334.357 267.892 334.357C267.892 334.357 270.94 337.795 269.797 341.614C268.654 345.434 264.081 351.928 263.319 349.254C262.557 346.58 267.129 343.142 266.367 340.087C265.605 337.031 263.319 334.739 263.319 334.739C263.319 334.739 264.462 338.559 263.319 341.233C262.176 343.906 257.603 347.344 256.46 345.816C255.316 344.288 260.651 341.615 260.651 340.087C260.651 338.559 257.603 333.975 257.222 331.301C256.841 328.627 256.078 321.752 256.078 321.752H266.367Z" fill="#FF8E75"/>
<path d="M344.614 159.412C344.614 159.412 338.135 195.445 286.564 213.907C237.66 230.587 191.932 182.84 191.932 182.84C191.932 182.84 180.5 167.688 209.969 148.207C228.387 137.13 239.438 139.931 239.438 139.931C239.438 139.931 285.929 159.412 312.731 133.437L344.614 159.412Z" fill="#C2E0FF"/>
<path d="M308.793 192.134C308.793 192.134 312.223 175.964 294.566 171.89C277.037 167.815 264.843 191.498 260.905 213.143C256.841 234.788 239.947 285.464 254.808 324.044C254.808 324.044 264.97 328.755 272.337 321.37C272.337 321.37 278.435 274.005 288.469 250.322C298.631 226.512 309.428 199.519 308.793 192.134Z" fill="#D4E9FF"/>
<path d="M335.341 164.377C335.341 164.377 334.96 172.781 328.99 178.765C328.99 178.765 313.747 175.2 308.666 157.884L335.341 164.377Z" fill="#FF5A61"/>
<path d="M330.006 121.214C330.006 121.214 335.976 120.705 342.327 130.254C348.678 139.676 353.378 137.512 354.902 139.549C355.411 141.841 351.092 143.241 351.092 143.241C351.092 143.241 360.237 154.7 350.965 164.123C341.692 173.545 324.925 173.035 316.923 165.269C308.92 157.502 302.823 147.061 307.142 136.366C311.461 125.543 320.225 120.577 330.006 121.214Z" fill="#FF8E75"/>
<path d="M328.736 105.68C328.736 105.68 337.373 110.518 338.898 120.323C340.422 130.127 332.038 135.474 326.068 137.512C320.098 139.549 319.971 145.278 320.987 148.462C322.003 151.645 331.276 154.828 330.387 157.12C329.498 159.412 328.863 159.03 326.576 158.138C324.29 157.247 321.368 153.173 318.955 155.21C316.414 157.12 316.923 160.685 320.098 163.104C323.274 165.523 327.72 164.123 328.355 165.141C328.99 166.032 328.101 169.598 321.114 169.088C314.128 168.579 299.393 161.067 297.869 153.173C296.98 145.278 300.537 143.878 300.537 143.878C300.537 143.878 293.931 133.31 297.488 122.996C301.045 112.81 319.717 98.2952 328.736 105.68Z" fill="url(#paint1_linear)"/>
<path d="M328.99 178.892L338.389 178.51L340.93 185.64L329.879 186.659L328.99 178.892Z" fill="#231D5A"/>
<path d="M337.373 183.603C337.373 183.603 349.949 187.678 357.57 179.529C365.191 171.38 363.159 169.343 377.767 163.359C392.374 157.247 388.31 149.225 398.979 134.965C409.649 120.832 412.698 122.869 417.652 116.757C422.733 110.646 427.814 101.606 427.814 101.606L444.962 97.022L443.946 113.702C443.946 113.702 434.8 118.795 426.289 128.344C417.652 138.021 410.157 146.552 402.536 158.266C394.915 169.98 383.864 170.362 378.275 178.001C372.686 185.641 355.029 190.097 346.519 190.097C337.881 190.097 332.419 186.023 332.419 186.023L337.373 183.603Z" fill="url(#paint2_linear)"/>
<path d="M333.69 152.282C333.69 155.083 335.976 157.375 338.771 157.375C341.565 157.375 343.851 155.083 343.851 152.282C343.851 149.48 341.565 147.188 338.771 147.188C335.976 147.188 333.69 149.48 333.69 152.282Z" fill="#FF6961"/>
<path d="M430.502 263.492C426.762 255.619 431.741 245.414 441.622 240.698C451.504 235.982 462.545 238.541 466.285 246.414C470.025 254.287 465.046 264.493 455.165 269.209C445.284 273.925 434.242 271.365 430.502 263.492Z" fill="#FF981A"/>
<path d="M453.472 265.728C460.967 262.163 464.65 254.524 461.856 248.54C459.061 242.555 450.678 240.645 443.31 244.21C435.816 247.776 432.132 255.415 434.927 261.399C437.721 267.256 445.978 269.166 453.472 265.728Z" fill="#FF981A"/>
<path d="M437.467 270.058L452.964 238.354C455.632 238.481 458.045 239.117 460.204 240.263L444.962 271.458C442.294 271.585 439.754 271.076 437.467 270.058Z" fill="#FF981A"/>
<path d="M453.472 265.728C460.967 262.163 464.65 254.524 461.856 248.54C459.061 242.555 450.678 240.645 443.31 244.21C435.816 247.776 432.132 255.415 434.927 261.399C437.721 267.256 445.978 269.166 453.472 265.728Z" fill="#FF981A"/>
<path d="M451.567 261.654C459.061 258.089 462.745 250.449 459.95 244.465C457.156 238.481 448.772 236.571 441.405 240.136C433.911 243.701 430.227 251.341 433.021 257.325C435.816 263.309 444.072 265.219 451.567 261.654Z" fill="#FFC21A"/>
<path d="M461.221 243.828C458.045 237.208 448.899 234.916 440.643 238.863C432.513 242.81 428.449 251.341 431.624 257.962C434.8 264.583 443.945 266.874 452.202 262.927C460.331 259.108 464.396 250.577 461.221 243.828ZM433.403 257.198C430.735 251.595 434.419 244.338 441.659 240.9C448.899 237.462 456.775 239.245 459.442 244.72C462.11 250.322 458.426 257.58 451.186 261.017C443.945 264.455 436.07 262.673 433.403 257.198Z" fill="#FF981A"/>
<path d="M453.726 247.521L465.539 259.362C464.396 261.654 462.618 263.691 460.586 265.601L448.137 253.123L453.726 247.521Z" fill="#FFEC41"/>
<path d="M457.918 267.511C457.029 268.148 456.013 268.657 454.997 269.166C454.488 269.421 454.107 269.548 453.599 269.803L448.772 262.545L452.075 259.999L457.918 267.511Z" fill="#FFC21A"/>
<path d="M428.525 259.533C424.785 251.66 429.762 241.454 439.644 236.737C449.525 232.02 460.568 234.578 464.308 242.451C468.049 250.324 463.071 260.53 453.189 265.247C443.308 269.964 432.266 267.406 428.525 259.533Z" fill="#FFC21A"/>
<path d="M435.562 266.111L451.059 234.406C453.726 234.534 456.14 235.17 458.299 236.316L443.056 267.511C440.389 267.511 437.848 267.002 435.562 266.111Z" fill="#FFEC41"/>
<path d="M447.375 234.406L433.53 264.965C432.767 264.455 432.132 263.946 431.497 263.437L443.818 235.17C444.962 234.788 446.232 234.534 447.375 234.406Z" fill="#FFEC41"/>
<path d="M282.626 295.268C298.25 304.563 317.05 302.016 324.417 289.538C331.784 277.06 325.052 259.362 309.428 250.067C293.804 240.773 275.005 243.319 267.638 255.797C260.27 268.275 267.002 285.846 282.626 295.268Z" fill="#FF981A"/>
<path d="M285.929 289.666C297.742 296.669 311.842 294.759 317.431 285.337C323.02 275.914 317.939 262.673 306.126 255.67C294.312 248.667 280.213 250.577 274.624 259.999C269.162 269.294 274.116 282.663 285.929 289.666Z" fill="#FF981A"/>
<path d="M265.097 271.585L323.147 263.691C325.306 267.511 326.703 271.458 327.211 275.405L269.924 283.299C267.511 279.48 265.859 275.532 265.097 271.585Z" fill="#FF981A"/>
<path d="M285.929 289.666C297.742 296.669 311.842 294.759 317.431 285.337C323.02 275.914 317.939 262.673 306.126 255.67C294.312 248.667 280.213 250.577 274.624 259.999C269.162 269.294 274.116 282.663 285.929 289.666Z" fill="#FF981A"/>
<path d="M289.74 283.299C301.553 290.302 315.652 288.392 321.241 278.97C326.83 269.548 321.749 256.306 309.936 249.303C298.123 242.301 284.024 244.21 278.435 253.633C272.846 262.927 277.926 276.297 289.74 283.299Z" fill="#FFC21A"/>
<path d="M323.274 280.244C329.498 269.676 324.036 254.778 311.08 247.139C298.123 239.372 282.499 241.791 276.275 252.359C270.051 262.927 275.513 277.824 288.469 285.464C301.426 293.103 317.05 290.812 323.274 280.244ZM279.197 253.887C284.405 245.102 297.996 243.447 309.301 250.195C320.733 256.943 325.687 269.676 320.479 278.461C315.271 287.246 301.68 288.902 290.375 282.153C278.943 275.405 273.989 262.8 279.197 253.887Z" fill="#FF981A"/>
<path d="M311.206 273.113L305.744 300.616C301.553 301.125 296.98 300.743 292.534 299.47L298.25 270.567L311.206 273.113Z" fill="#FFEC41"/>
<path d="M287.58 297.687C285.929 296.923 284.278 296.159 282.626 295.268C281.864 294.886 281.229 294.377 280.467 293.867L286.056 280.371L292.534 282.535L287.58 297.687Z" fill="#FFC21A"/>
<path d="M286.437 288.902C302.061 298.197 320.86 295.65 328.228 283.172C335.595 270.694 328.863 252.996 313.239 243.701C297.615 234.406 278.816 236.953 271.448 249.431C264.081 261.781 270.813 279.48 286.437 288.902Z" fill="#FFC21A"/>
<path d="M268.908 265.219L326.957 257.325C329.117 261.145 330.514 265.092 331.022 269.039L273.735 276.933C271.321 273.113 269.67 269.166 268.908 265.219Z" fill="#FFEC41"/>
<path d="M323.528 252.359L268.527 261.399C268.527 259.999 268.527 258.471 268.781 257.07L319.209 247.903C320.733 249.303 322.13 250.831 323.528 252.359Z" fill="#FFEC41"/>
<path d="M166.908 399.42C174.149 407.569 185.327 409.479 191.805 403.749C198.283 397.892 197.648 386.561 190.28 378.412C183.04 370.263 171.862 368.353 165.384 374.083C158.906 379.94 159.541 391.272 166.908 399.42Z" fill="#FF981A"/>
<path d="M169.83 396.874C175.292 402.985 183.675 404.513 188.629 400.057C193.456 395.728 193.075 387.197 187.486 380.958C182.024 374.846 173.64 373.319 168.686 377.775C163.86 382.104 164.241 390.635 169.83 396.874Z" fill="#FF981A"/>
<path d="M161.065 382.741L195.742 388.725C196.378 391.272 196.378 393.818 195.997 396.237L161.827 390.38C161.065 387.706 160.811 385.16 161.065 382.741Z" fill="#FF981A"/>
<path d="M169.83 396.874C175.292 402.985 183.675 404.513 188.629 400.057C193.456 395.728 193.075 387.197 187.486 380.958C182.024 374.846 173.64 373.319 168.686 377.775C163.86 382.104 164.241 390.635 169.83 396.874Z" fill="#FF981A"/>
<path d="M173.132 393.818C178.594 399.93 186.978 401.457 191.932 397.001C196.759 392.672 196.378 384.141 190.789 377.902C185.327 371.791 176.943 370.263 171.989 374.719C167.162 379.175 167.543 387.706 173.132 393.818Z" fill="#FFC21A"/>
<path d="M192.821 398.147C198.283 393.181 197.902 383.759 191.805 377.011C185.835 370.263 176.435 368.735 170.973 373.701C165.511 378.666 165.892 388.088 171.989 394.837C177.959 401.585 187.359 403.113 192.821 398.147ZM172.37 375.101C176.943 371.027 184.945 372.555 190.28 378.412C195.615 384.396 196.124 392.545 191.551 396.619C186.978 400.694 178.975 399.166 173.64 393.309C168.305 387.452 167.67 379.303 172.37 375.101Z" fill="#FF981A"/>
<path d="M187.232 391.908L179.229 406.678C176.689 406.169 174.276 405.15 171.862 403.622L180.373 388.088L187.232 391.908Z" fill="#FFEC41"/>
<path d="M169.195 401.712C168.432 400.948 167.543 400.312 166.781 399.42C166.4 399.038 166.146 398.656 165.765 398.274L171.354 391.526L174.657 393.945L169.195 401.712Z" fill="#FFC21A"/>
<path d="M170.211 396.492C177.451 404.641 188.629 406.551 195.107 400.821C201.586 394.964 200.95 383.632 193.583 375.483C186.343 367.334 175.165 365.425 168.687 371.154C162.208 376.884 162.843 388.216 170.211 396.492Z" fill="#FFC21A"/>
<path d="M164.368 379.685L199.045 385.669C199.68 388.216 199.68 390.762 199.299 393.182L165.13 387.325C164.368 384.778 164.114 382.104 164.368 379.685Z" fill="#FFEC41"/>
<path d="M198.029 382.231L164.876 377.393C165.13 376.502 165.384 375.738 165.765 374.974L196.25 378.921C196.886 380.067 197.521 381.086 198.029 382.231Z" fill="#FFEC41"/>
<path d="M137.566 329.518C144.298 331.174 150.903 328.118 152.174 322.77C153.444 317.423 149.125 311.693 142.266 310.038C135.534 308.382 128.928 311.438 127.658 316.786C126.388 322.261 130.834 327.863 137.566 329.518Z" fill="#FF981A"/>
<path d="M138.201 327.099C143.282 328.373 148.236 326.081 149.252 322.006C150.268 317.932 146.966 313.73 141.885 312.457C136.804 311.184 131.85 313.476 130.834 317.55C129.691 321.624 133.12 325.953 138.201 327.099Z" fill="#FF981A"/>
<path d="M128.547 322.898L148.871 313.476C150.141 314.622 151.03 315.895 151.665 317.295L131.596 326.59C130.325 325.572 129.182 324.298 128.547 322.898Z" fill="#FF981A"/>
<path d="M138.201 327.099C143.282 328.373 148.236 326.081 149.252 322.006C150.268 317.932 146.966 313.73 141.885 312.457C136.804 311.184 131.85 313.476 130.834 317.55C129.691 321.624 133.12 325.953 138.201 327.099Z" fill="#FF981A"/>
<path d="M138.836 324.426C143.917 325.699 148.871 323.407 149.887 319.333C150.903 315.258 147.601 311.056 142.52 309.783C137.439 308.51 132.485 310.802 131.469 314.876C130.453 318.823 133.755 323.152 138.836 324.426Z" fill="#FFC21A"/>
<path d="M150.776 319.587C151.92 315.003 148.236 310.292 142.647 308.892C137.058 307.491 131.596 310.165 130.58 314.621C129.436 319.205 133.12 323.916 138.709 325.317C144.171 326.717 149.633 324.043 150.776 319.587ZM131.723 314.876C132.612 311.056 137.439 309.019 142.266 310.165C147.22 311.311 150.395 315.385 149.506 319.205C148.617 323.025 143.79 325.062 138.963 323.916C134.009 322.77 130.707 318.696 131.723 314.876Z" fill="#FF981A"/>
<path d="M145.568 318.314L146.712 328.882C145.187 329.518 143.536 329.9 141.758 329.9L140.614 318.696L145.568 318.314Z" fill="#FFEC41"/>
<path d="M139.598 329.9C138.963 329.773 138.201 329.773 137.566 329.518C137.312 329.391 136.931 329.391 136.677 329.264L137.185 323.661L139.852 323.789L139.598 329.9Z" fill="#FFC21A"/>
<path d="M138.201 326.845C144.933 328.5 151.538 325.444 152.809 320.096C154.079 314.749 149.76 309.019 142.901 307.364C136.169 305.709 129.563 308.764 128.293 314.112C127.023 319.46 131.469 325.189 138.201 326.845Z" fill="#FFC21A"/>
<path d="M129.182 320.096L149.506 310.674C150.776 311.82 151.665 313.094 152.301 314.494L132.231 323.789C130.961 322.77 129.944 321.497 129.182 320.096Z" fill="#FFEC41"/>
<path d="M147.728 309.401L128.674 318.823C128.547 318.314 128.42 317.805 128.293 317.168L145.695 308.255C146.331 308.51 147.093 308.892 147.728 309.401Z" fill="#FFEC41"/>
<path d="M471.637 114.593V112.174L476.845 110.773L474.558 107.717L476.463 104.916L479.893 104.789L477.607 100.46L477.734 96.6398L479.766 94.8573L479.004 89.8916L484.339 86.4538L483.196 82.8886L487.26 81.2334L485.609 73.4666L499.455 79.3235C505.171 74.8671 507.965 76.6497 507.965 76.6497L505.425 82.634C511.903 87.4724 515.333 95.3666 514.443 103.388L518 104.661L513.173 116.121L509.998 114.72C504.409 122.105 494.755 125.415 485.609 122.869L480.782 130.381L476.082 128.599L478.115 120.068L467.826 115.739L471.637 114.593Z" fill="#FF3767"/>
<path d="M499.455 97.7857C498.947 98.9317 499.455 100.205 500.598 100.714C501.741 101.224 503.011 100.714 503.519 99.5683C504.027 98.4224 503.519 97.1491 502.376 96.6398C501.233 96.1305 499.836 96.6398 499.455 97.7857Z" fill="url(#paint3_linear)"/>
<path d="M399.615 40.744C398.598 39.0888 397.074 37.5608 396.058 36.7969C395.677 36.4149 395.804 35.7783 396.439 35.651C399.233 35.3963 401.393 36.5422 402.663 37.4335C406.728 33.7411 412.19 31.4492 418.16 31.4492H434.419L431.37 33.9957L432.386 36.1603L428.068 39.4707L431.37 41.3806L430.608 44.6911L427.56 46.0917L431.37 49.1475L432.768 52.7126L431.624 55.1318L434.165 59.5882L430.608 64.8085L432.895 67.8643L429.846 70.9202L434.419 77.4138H420.065L418.668 86.0719H413.587L411.936 76.5225C402.155 73.8486 395.169 64.9358 395.169 54.4951C395.169 49.2748 396.82 44.5638 399.615 40.744Z" fill="#FF3767"/>
<path d="M452.202 44.6911C457.537 50.2934 465.412 51.4394 469.731 47.2376C474.177 43.0359 473.542 35.1417 468.207 29.5394C462.872 23.9371 454.996 22.7911 450.678 26.9929C446.232 31.1946 446.867 39.0888 452.202 44.6911Z" fill="#FF981A"/>
<path d="M454.234 42.9085C458.172 47.1103 464.142 48.0015 467.445 44.8184C470.747 41.6353 470.239 35.651 466.302 31.4492C462.364 27.2475 456.394 26.3562 453.091 29.5393C449.662 32.5951 450.17 38.5794 454.234 42.9085Z" fill="#FF981A"/>
<path d="M447.756 33.1045L472.272 36.6696C472.78 38.4522 472.78 40.2347 472.526 41.89L448.391 38.4522C447.883 36.6696 447.629 34.7597 447.756 33.1045Z" fill="#FF981A"/>
<path d="M454.234 42.9085C458.172 47.1103 464.142 48.0015 467.445 44.8184C470.747 41.6353 470.239 35.651 466.302 31.4492C462.364 27.2475 456.394 26.3562 453.091 29.5393C449.662 32.5951 450.17 38.5794 454.234 42.9085Z" fill="#FF981A"/>
<path d="M456.394 40.744C460.332 44.9457 466.302 45.837 469.604 42.6539C472.907 39.4707 472.399 33.4864 468.461 29.2847C464.523 25.0829 458.553 24.1916 455.251 27.3748C451.948 30.5579 452.456 36.5422 456.394 40.744Z" fill="#FFC21A"/>
<path d="M470.366 43.2905C474.177 39.7254 473.669 33.1044 469.223 28.5207C464.904 23.937 458.299 23.0457 454.488 26.6108C450.678 30.1759 451.186 36.7969 455.632 41.3806C460.077 46.0916 466.683 46.8556 470.366 43.2905ZM455.505 27.6294C458.68 24.7009 464.269 25.5922 468.207 29.6666C472.018 33.7411 472.653 39.4707 469.477 42.3992C466.302 45.3277 460.712 44.4364 456.775 40.362C452.964 36.2876 452.329 30.5579 455.505 27.6294Z" fill="#FF981A"/>
<path d="M466.302 39.0887L460.967 49.6568C459.188 49.4021 457.41 48.6382 455.759 47.6196L461.348 36.5422L466.302 39.0887Z" fill="#FFEC41"/>
<path d="M453.853 46.3463C453.218 45.837 452.71 45.3277 452.202 44.8184C451.948 44.5637 451.694 44.3091 451.44 44.0544L455.251 39.2161L457.664 40.744L453.853 46.3463Z" fill="#FFC21A"/>
<path d="M454.488 42.5266C459.823 48.1289 467.699 49.2748 472.018 45.0731C476.463 40.8713 475.828 32.9772 470.493 27.3748C465.158 21.7725 457.283 20.6266 452.964 24.8283C448.518 29.0301 449.153 37.0516 454.488 42.5266Z" fill="#FFC21A"/>
<path d="M450.043 30.9399L474.558 34.3777C475.066 36.1603 475.066 37.9428 474.812 39.5981L450.678 36.1603C450.17 34.5051 449.916 32.7225 450.043 30.9399Z" fill="#FFEC41"/>
<path d="M473.669 32.0858L450.297 29.412C450.424 28.7753 450.678 28.266 450.932 27.6294L472.399 29.7939C472.907 30.5579 473.288 31.3218 473.669 32.0858Z" fill="#FFEC41"/>
<path d="M375.734 91.8018C380.688 88.8733 382.721 83.271 380.307 79.3239C377.894 75.3768 372.051 74.7401 367.097 77.6686C362.143 80.5971 360.11 86.1995 362.524 90.1465C364.937 93.9663 370.907 94.7303 375.734 91.8018Z" fill="#FF981A"/>
<path d="M374.718 90.0191C378.402 87.7273 379.926 83.5255 378.148 80.597C376.369 77.6685 371.924 77.1592 368.24 79.3238C364.556 81.6156 363.032 85.8174 364.81 88.7459C366.589 91.6743 371.034 92.1837 374.718 90.0191Z" fill="#FF981A"/>
<path d="M366.589 93.2025L372.94 75.8862C374.337 75.8862 375.607 76.0136 376.75 76.5229L370.526 93.5845C369.129 93.7118 367.859 93.5845 366.589 93.2025Z" fill="#FF981A"/>
<path d="M374.718 90.0191C378.402 87.7273 379.926 83.5255 378.148 80.597C376.369 77.6685 371.924 77.1592 368.24 79.3238C364.556 81.6156 363.032 85.8174 364.81 88.7459C366.589 91.6743 371.034 92.1837 374.718 90.0191Z" fill="#FF981A"/>
<path d="M373.448 87.982C377.131 85.6901 378.656 81.4884 376.877 78.5599C375.099 75.6314 370.653 75.1221 366.97 77.2867C363.286 79.5785 361.762 83.7803 363.54 86.7087C365.318 89.7646 369.764 90.2739 373.448 87.982Z" fill="#FFC21A"/>
<path d="M377.64 78.1779C375.607 74.8674 370.78 74.2308 366.716 76.65C362.651 79.0692 361 83.7802 363.032 87.0907C365.064 90.4011 369.891 91.0378 373.956 88.6186C377.894 86.1994 379.545 81.4883 377.64 78.1779ZM363.794 86.5814C362.143 83.7802 363.667 79.8331 367.224 77.6686C370.78 75.504 375.099 76.0133 376.75 78.6872C378.402 81.4883 376.877 85.4354 373.321 87.6C369.764 89.8918 365.445 89.3825 363.794 86.5814Z" fill="#FF981A"/>
<path d="M373.829 80.5969L380.688 86.1993C380.18 87.4725 379.418 88.6184 378.402 89.7644L371.288 83.9074L373.829 80.5969Z" fill="#FFEC41"/>
<path d="M377.131 90.783C376.75 91.165 376.242 91.4197 375.734 91.8016C375.48 91.929 375.226 92.0563 375.099 92.1836L372.178 88.6185L373.702 87.0906L377.131 90.783Z" fill="#FFC21A"/>
<path d="M374.591 89.7644C379.545 86.8359 381.577 81.2336 379.164 77.2865C376.75 73.3394 370.907 72.7028 365.953 75.6313C361 78.5598 358.967 84.1621 361.381 88.1092C363.794 92.0563 369.637 92.6929 374.591 89.7644Z" fill="#FFC21A"/>
<path d="M365.445 91.1649L371.796 73.8486C373.194 73.8486 374.464 73.976 375.607 74.4853L369.383 91.5469C367.986 91.6742 366.589 91.5469 365.445 91.1649Z" fill="#FFEC41"/>
<path d="M369.891 74.1033L364.302 90.7829C363.921 90.5283 363.54 90.4009 363.159 90.019L367.986 74.6126C368.621 74.3579 369.256 74.2306 369.891 74.1033Z" fill="#FFEC41"/>
<path d="M493.993 63.5351C497.168 61.6252 498.438 57.9328 496.914 55.3863C495.39 52.8397 491.579 52.3304 488.404 54.3676C485.228 56.2775 483.958 59.97 485.482 62.5165C487.006 64.9357 490.817 65.445 493.993 63.5351Z" fill="#FF981A"/>
<path d="M493.357 62.3892C495.771 60.9886 496.787 58.1874 495.644 56.2775C494.501 54.3677 491.579 53.9857 489.166 55.5136C486.752 56.9142 485.736 59.7153 486.879 61.6252C488.023 63.4078 490.944 63.7898 493.357 62.3892Z" fill="#FF981A"/>
<path d="M488.022 64.4265L492.087 53.0945C492.976 53.0945 493.866 53.2218 494.628 53.4765L490.563 64.5538C489.801 64.6811 488.912 64.6811 488.022 64.4265Z" fill="#FF981A"/>
<path d="M493.357 62.3892C495.771 60.9886 496.787 58.1874 495.644 56.2775C494.501 54.3677 491.579 53.9857 489.166 55.5136C486.752 56.9142 485.736 59.7153 486.879 61.6252C488.023 63.4078 490.944 63.7898 493.357 62.3892Z" fill="#FF981A"/>
<path d="M492.595 61.116C495.009 59.7154 496.025 56.9142 494.882 55.0043C493.738 53.0945 490.817 52.7125 488.404 54.2404C485.99 55.641 484.974 58.4421 486.117 60.352C487.26 62.1346 490.182 62.5166 492.595 61.116Z" fill="#FFC21A"/>
<path d="M495.263 54.7498C493.993 52.5853 490.817 52.2033 488.149 53.7312C485.482 55.3864 484.466 58.4423 485.736 60.4795C487.006 62.644 490.182 63.026 492.849 61.4981C495.39 59.8428 496.533 56.787 495.263 54.7498ZM486.244 60.2248C485.101 58.4423 486.117 55.7684 488.404 54.3678C490.69 52.9673 493.484 53.2219 494.628 55.0045C495.771 56.787 494.755 59.4609 492.468 60.8614C490.055 62.262 487.387 62.0074 486.244 60.2248Z" fill="#FF981A"/>
<path d="M492.722 56.2776L497.168 59.8427C496.787 60.6067 496.406 61.3706 495.644 62.1346L490.944 58.3148L492.722 56.2776Z" fill="#FFEC41"/>
<path d="M494.882 62.8987C494.628 63.1533 494.247 63.408 493.993 63.5353C493.866 63.6626 493.739 63.6626 493.484 63.79L491.579 61.4981L492.595 60.4795L494.882 62.8987Z" fill="#FFC21A"/>
<path d="M493.23 62.2619C496.406 60.352 497.676 56.6596 496.152 54.1131C494.628 51.5665 490.817 51.0572 487.641 53.0945C484.466 55.0043 483.196 58.6968 484.72 61.2433C486.244 63.6625 490.055 64.1718 493.23 62.2619Z" fill="#FFC21A"/>
<path d="M487.26 63.1533L491.325 51.8213C492.214 51.8213 493.103 51.9486 493.866 52.2033L489.801 63.2806C488.912 63.4079 488.023 63.4079 487.26 63.1533Z" fill="#FFEC41"/>
<path d="M490.182 51.9487L486.498 62.7714C486.244 62.6441 485.99 62.5168 485.736 62.2621L488.912 52.3307C489.42 52.2034 489.801 52.0761 490.182 51.9487Z" fill="#FFEC41"/>
<path d="M444.835 137.893C448.137 139.549 451.948 138.785 453.218 136.238C454.615 133.564 452.964 130.127 449.662 128.344C446.359 126.689 442.548 127.453 441.278 129.999C440.008 132.673 441.532 136.238 444.835 137.893Z" fill="#FF981A"/>
<path d="M445.47 136.747C448.01 138.021 450.805 137.511 451.821 135.474C452.837 133.437 451.694 130.891 449.153 129.617C446.613 128.344 443.818 128.853 442.802 130.891C441.786 132.8 442.929 135.474 445.47 136.747Z" fill="#FF981A"/>
<path d="M441.024 133.31L452.71 130.891C453.218 131.655 453.599 132.419 453.726 133.182L442.167 135.474C441.532 134.965 441.151 134.201 441.024 133.31Z" fill="#FF981A"/>
<path d="M445.47 136.747C448.01 138.021 450.805 137.511 451.821 135.474C452.837 133.437 451.694 130.891 449.153 129.617C446.613 128.344 443.818 128.853 442.802 130.891C441.786 132.8 442.929 135.474 445.47 136.747Z" fill="#FF981A"/>
<path d="M446.105 135.347C448.645 136.62 451.44 136.111 452.456 134.074C453.472 132.037 452.329 129.49 449.789 128.217C447.248 126.944 444.454 127.453 443.437 129.49C442.421 131.527 443.691 134.074 446.105 135.347Z" fill="#FFC21A"/>
<path d="M452.964 134.328C454.107 132.037 452.837 129.108 450.043 127.707C447.248 126.307 444.2 126.944 443.056 129.235C441.913 131.527 443.183 134.456 445.978 135.856C448.645 137.257 451.821 136.62 452.964 134.328ZM443.564 129.617C444.454 127.707 447.248 127.198 449.662 128.471C452.075 129.745 453.218 132.291 452.329 134.074C451.44 135.984 448.645 136.493 446.232 135.22C443.818 133.946 442.675 131.4 443.564 129.617Z" fill="#FF981A"/>
<path d="M450.424 133.055L449.662 138.785C448.772 138.912 447.883 138.912 446.994 138.657L447.756 132.673L450.424 133.055Z" fill="#FFEC41"/>
<path d="M445.851 138.403C445.47 138.276 445.216 138.148 444.835 138.021C444.708 137.894 444.581 137.894 444.327 137.766L445.343 134.965L446.74 135.347L445.851 138.403Z" fill="#FFC21A"/>
<path d="M445.597 136.62C448.899 138.276 452.71 137.512 453.98 134.965C455.378 132.291 453.726 128.853 450.424 127.071C447.121 125.416 443.31 126.18 442.04 128.726C440.643 131.4 442.294 134.838 445.597 136.62Z" fill="#FFC21A"/>
<path d="M441.659 132.037L453.345 129.617C453.853 130.381 454.234 131.145 454.361 131.909L442.802 134.201C442.294 133.565 441.913 132.801 441.659 132.037Z" fill="#FFEC41"/>
<path d="M452.583 128.599L441.532 131.145C441.532 130.891 441.532 130.509 441.532 130.254L451.694 127.708C452.075 128.089 452.329 128.344 452.583 128.599Z" fill="#FFEC41"/>
<path d="M340.803 30.4309C349.059 25.3379 352.616 15.9158 348.551 9.2949C344.487 2.67397 334.579 1.40071 326.195 6.49373C317.939 11.5868 314.382 21.0089 318.447 27.6298C322.512 34.378 332.419 35.524 340.803 30.4309Z" fill="#FF981A"/>
<path d="M339.024 27.5024C345.249 23.6826 347.916 16.5524 344.868 11.5867C341.819 6.62097 334.325 5.60236 328.1 9.54946C321.876 13.3692 319.209 20.4995 322.257 25.4652C325.179 30.4309 332.673 31.3221 339.024 27.5024Z" fill="#FF981A"/>
<path d="M325.306 32.8502L336.103 3.43795C338.389 3.31062 340.676 3.6926 342.708 4.45655L332.038 33.4868C329.625 33.7414 327.338 33.4868 325.306 32.8502Z" fill="#FF981A"/>
<path d="M339.024 27.5024C345.249 23.6826 347.916 16.5524 344.868 11.5867C341.819 6.62097 334.325 5.60236 328.1 9.54946C321.876 13.3692 319.209 20.4995 322.257 25.4652C325.179 30.4309 332.673 31.3221 339.024 27.5024Z" fill="#FF981A"/>
<path d="M336.865 24.1918C343.089 20.372 345.757 13.2418 342.708 8.27612C339.66 3.31042 332.165 2.29182 325.941 6.23891C319.717 10.0587 317.05 17.1889 320.098 22.1546C323.147 26.993 330.641 28.0116 336.865 24.1918Z" fill="#FFC21A"/>
<path d="M343.851 7.51228C340.422 1.90996 332.038 0.764027 325.179 4.96577C318.32 9.16752 315.525 17.189 318.955 22.7914C322.385 28.3937 330.768 29.5396 337.627 25.3379C344.487 21.0088 347.281 13.1146 343.851 7.51228ZM320.479 21.7727C317.685 17.0617 320.225 10.3134 326.322 6.621C332.419 2.92856 339.66 3.69252 342.454 8.40356C345.249 13.1146 342.708 19.8629 336.611 23.5553C330.514 27.2477 323.274 26.4838 320.479 21.7727Z" fill="#FF981A"/>
<path d="M337.5 11.4592L349.059 20.8813C348.17 23.0459 346.9 25.0831 345.249 26.8656L333.054 16.9342L337.5 11.4592Z" fill="#FFEC41"/>
<path d="M343.216 28.7756C342.454 29.4122 341.692 29.9215 340.803 30.4308C340.422 30.6855 340.041 30.9401 339.66 31.0674L334.706 25.0831L337.373 22.5366L343.216 28.7756Z" fill="#FFC21A"/>
<path d="M338.77 27.1204C347.027 22.0274 350.584 12.6053 346.519 5.98435C342.454 -0.636579 332.546 -1.90984 324.163 3.18319C315.906 8.27621 312.35 17.6983 316.414 24.3192C320.352 30.9402 330.387 32.2134 338.77 27.1204Z" fill="#FFC21A"/>
<path d="M323.147 29.5395L333.944 -4.1673e-05C336.23 -0.127367 338.516 0.254609 340.549 1.01856L329.879 30.0488C327.592 30.3034 325.306 30.1761 323.147 29.5395Z" fill="#FFEC41"/>
<path d="M330.768 0.381836L321.241 28.6481C320.606 28.2661 319.844 27.8842 319.209 27.5022L327.465 1.40044C328.736 1.01846 329.752 0.636487 330.768 0.381836Z" fill="#FFEC41"/>
<path d="M245.154 94.2208C245.027 94.2208 244.9 94.3481 244.773 94.3481C243.884 94.7301 242.868 94.4754 242.106 93.8388L185.073 36.1603C184.437 35.5237 184.183 34.3777 184.564 33.4865C184.564 33.3591 184.691 33.2318 184.691 33.1045L245.154 94.2208Z" fill="white"/>
<path d="M250.87 91.2924C249.854 91.8017 248.711 91.6744 247.949 90.9105L187.994 30.3035C187.232 29.5395 187.105 28.2663 187.613 27.375L250.87 91.2924Z" fill="white"/>
<path d="M256.078 87.5999C255.57 87.9819 255.062 88.3638 254.681 88.7458L190.154 23.5551C190.535 23.0458 190.916 22.5365 191.297 22.1545L256.078 87.5999Z" fill="white"/>
<path d="M231.055 97.5313C230.547 97.5313 230.166 97.6586 229.658 97.6586C229.023 97.6586 228.26 97.4039 227.879 96.8946L181.77 50.2935C181.262 49.7842 181.008 49.1476 181.008 48.5109C181.008 48.0016 181.008 47.6197 181.135 47.1104L231.055 97.5313Z" fill="white"/>
<path d="M210.858 94.7301C209.461 94.2208 208.064 93.5842 206.666 92.9475C206.412 92.8202 206.158 92.6929 206.031 92.4382L186.089 72.3208C185.835 72.0661 185.708 71.9388 185.581 71.6842C184.945 70.2836 184.31 68.883 183.802 67.4824L210.858 94.7301Z" fill="white"/>
<path d="M238.549 96.3854C238.295 96.5127 238.041 96.5127 237.787 96.5127C237.025 96.64 236.136 96.3854 235.501 95.8761L182.913 42.654C182.278 42.0173 182.024 41.1261 182.278 40.3621C182.278 40.1074 182.405 39.8528 182.532 39.5981L238.549 96.3854Z" fill="white"/>
<path d="M222.29 97.5313C221.528 97.404 220.766 97.404 220.131 97.2767C219.623 97.1494 219.115 96.8947 218.734 96.6401L182.151 59.5883C181.77 59.2063 181.516 58.697 181.516 58.1877C181.389 57.4238 181.262 56.6598 181.262 56.0232L222.29 97.5313Z" fill="white"/>
<path d="M264.589 78.6871C264.208 79.1964 263.827 79.7058 263.446 80.2151L198.791 14.7697C199.299 14.3877 199.807 14.0058 200.315 13.6238L264.589 78.6871Z" fill="white"/>
<path d="M272.21 42.3994C272.591 42.7814 272.845 43.1634 272.845 43.6727C272.973 44.4366 273.1 45.2006 273.227 45.9645L233.087 5.34766C233.849 5.47498 234.612 5.60231 235.374 5.72963C235.882 5.85696 236.263 6.11161 236.644 6.36626L272.21 42.3994Z" fill="white"/>
<path d="M267.638 28.9027C267.765 29.0301 268.019 29.2847 268.019 29.5394C268.781 31.0673 269.543 32.5952 270.178 34.1231L244.773 8.40332C246.298 9.03995 247.822 9.8039 249.346 10.5679C249.6 10.6952 249.727 10.8225 249.981 10.9498L267.638 28.9027Z" fill="white"/>
<path d="M272.718 51.6941C273.227 52.2034 273.481 52.84 273.481 53.4766C273.481 53.9859 273.481 54.3679 273.354 54.8772L224.069 5.0929C224.577 5.0929 224.958 5.0929 225.466 4.96558C226.101 4.96558 226.736 5.22023 227.244 5.72953L272.718 51.6941Z" fill="white"/>
<path d="M269.543 66.0817C270.178 66.7183 270.432 67.8643 270.051 68.7556C270.051 68.8829 269.924 69.0102 269.924 69.1375L209.842 8.40323C209.969 8.40323 210.096 8.27591 210.223 8.27591C211.112 7.89393 212.128 8.14858 212.891 8.78521L269.543 66.0817Z" fill="white"/>
<path d="M266.748 72.0661C267.511 72.8301 267.638 73.976 267.129 74.9946L204.126 11.2045C205.142 10.6952 206.285 10.8225 207.048 11.5865L266.748 72.0661Z" fill="white"/>
<path d="M195.488 17.5708L260.651 83.3981C260.27 83.7801 259.762 84.2894 259.381 84.6714L194.218 18.8441C194.599 18.4621 194.98 18.0801 195.488 17.5708Z" fill="white"/>
<path d="M271.702 59.461C272.337 60.0976 272.592 60.8615 272.337 61.7528C272.337 62.0075 272.21 62.2621 272.083 62.5168L216.447 6.23887C216.701 6.11155 216.955 6.11155 217.209 6.11155C217.972 5.98422 218.861 6.23887 219.496 6.74818L271.702 59.461Z" fill="white"/>
<path opacity="0.35" d="M418.414 304.181C418.414 306.091 419.938 307.619 421.844 307.619C423.749 307.619 425.273 306.091 425.273 304.181C425.273 302.271 423.749 300.743 421.844 300.743C419.938 300.616 418.414 302.271 418.414 304.181Z" fill="white"/>
<path d="M400.123 304.181C400.123 306.091 401.647 307.619 403.552 307.619C405.458 307.619 406.982 306.091 406.982 304.181C406.982 302.271 405.458 300.743 403.552 300.743C401.647 300.743 400.123 302.271 400.123 304.181Z" fill="white"/>
<path opacity="0.35" d="M381.831 304.181C381.831 306.091 383.356 307.619 385.261 307.619C387.166 307.619 388.691 306.091 388.691 304.181C388.691 302.271 387.166 300.743 385.261 300.743C383.356 300.616 381.831 302.271 381.831 304.181Z" fill="white"/>
<path d="M363.54 304.181C363.54 306.091 365.064 307.619 366.97 307.619C368.875 307.619 370.399 306.091 370.399 304.181C370.399 302.271 368.875 300.743 366.97 300.743C365.191 300.616 363.54 302.271 363.54 304.181Z" fill="white"/>
<path d="M345.376 304.181C345.376 306.091 346.9 307.619 348.805 307.619C350.711 307.619 352.235 306.091 352.235 304.181C352.235 302.271 350.711 300.743 348.805 300.743C346.9 300.616 345.376 302.271 345.376 304.181Z" fill="white"/>
<path d="M418.414 321.879C418.414 323.789 419.938 325.317 421.844 325.317C423.749 325.317 425.273 323.789 425.273 321.879C425.273 319.969 423.749 318.441 421.844 318.441C419.938 318.441 418.414 319.969 418.414 321.879Z" fill="white"/>
<path d="M403.552 325.317C401.658 325.317 400.123 323.778 400.123 321.879C400.123 319.98 401.658 318.441 403.552 318.441C405.446 318.441 406.982 319.98 406.982 321.879C406.982 323.778 405.446 325.317 403.552 325.317Z" fill="white"/>
<path d="M381.831 321.879C381.831 323.789 383.356 325.317 385.261 325.317C387.166 325.317 388.691 323.789 388.691 321.879C388.691 319.969 387.166 318.441 385.261 318.441C383.356 318.441 381.831 319.969 381.831 321.879Z" fill="white"/>
<path opacity="0.35" d="M363.54 321.879C363.54 323.789 365.064 325.317 366.97 325.317C368.875 325.317 370.399 323.789 370.399 321.879C370.399 319.969 368.875 318.441 366.97 318.441C365.064 318.441 363.54 319.969 363.54 321.879Z" fill="white"/>
<path d="M345.376 321.879C345.376 323.789 346.9 325.317 348.805 325.317C350.711 325.317 352.235 323.789 352.235 321.879C352.235 319.969 350.711 318.441 348.805 318.441C346.9 318.441 345.376 319.969 345.376 321.879Z" fill="white"/>
<path d="M418.414 339.577C418.414 341.487 419.938 343.015 421.844 343.015C423.749 343.015 425.273 341.487 425.273 339.577C425.273 337.667 423.749 336.139 421.844 336.139C419.938 336.139 418.414 337.667 418.414 339.577Z" fill="white"/>
<path opacity="0.35" d="M400.123 339.577C400.123 341.487 401.647 343.015 403.552 343.015C405.458 343.015 406.982 341.487 406.982 339.577C406.982 337.667 405.458 336.139 403.552 336.139C401.647 336.139 400.123 337.667 400.123 339.577Z" fill="white"/>
<path opacity="0.35" d="M381.831 339.577C381.831 341.487 383.356 343.015 385.261 343.015C387.166 343.015 388.691 341.487 388.691 339.577C388.691 337.667 387.166 336.139 385.261 336.139C383.356 336.139 381.831 337.667 381.831 339.577Z" fill="white"/>
<path d="M363.54 339.577C363.54 341.487 365.064 343.015 366.97 343.015C368.875 343.015 370.399 341.487 370.399 339.577C370.399 337.667 368.875 336.139 366.97 336.139C365.191 336.139 363.54 337.667 363.54 339.577Z" fill="white"/>
<path d="M345.376 339.577C345.376 341.487 346.9 343.015 348.805 343.015C350.711 343.015 352.235 341.487 352.235 339.577C352.235 337.667 350.711 336.139 348.805 336.139C346.9 336.139 345.376 337.667 345.376 339.577Z" fill="white"/>
<path d="M418.414 357.275C418.414 359.185 419.938 360.713 421.844 360.713C423.749 360.713 425.273 359.185 425.273 357.275C425.273 355.366 423.749 353.838 421.844 353.838C419.938 353.838 418.414 355.366 418.414 357.275Z" fill="white"/>
<path d="M400.123 357.275C400.123 359.185 401.647 360.713 403.552 360.713C405.458 360.713 406.982 359.185 406.982 357.275C406.982 355.366 405.458 353.838 403.552 353.838C401.647 353.838 400.123 355.366 400.123 357.275Z" fill="white"/>
<path d="M381.831 357.275C381.831 359.185 383.356 360.713 385.261 360.713C387.166 360.713 388.691 359.185 388.691 357.275C388.691 355.366 387.166 353.838 385.261 353.838C383.356 353.838 381.831 355.366 381.831 357.275Z" fill="white"/>
<path opacity="0.35" d="M363.54 357.275C363.54 359.185 365.064 360.713 366.97 360.713C368.875 360.713 370.399 359.185 370.399 357.275C370.399 355.366 368.875 353.838 366.97 353.838C365.191 353.838 363.54 355.366 363.54 357.275Z" fill="white"/>
<path d="M345.376 357.275C345.376 359.185 346.9 360.713 348.805 360.713C350.711 360.713 352.235 359.185 352.235 357.275C352.235 355.366 350.711 353.838 348.805 353.838C346.9 353.838 345.376 355.366 345.376 357.275Z" fill="white"/>
<path d="M418.414 375.101C418.414 377.011 419.938 378.539 421.844 378.539C423.749 378.539 425.273 377.011 425.273 375.101C425.273 373.191 423.749 371.663 421.844 371.663C419.938 371.536 418.414 373.064 418.414 375.101Z" fill="white"/>
<path opacity="0.35" d="M400.123 375.101C400.123 377.011 401.647 378.539 403.552 378.539C405.458 378.539 406.982 377.011 406.982 375.101C406.982 373.191 405.458 371.663 403.552 371.663C401.647 371.663 400.123 373.064 400.123 375.101Z" fill="white"/>
<path d="M381.831 375.101C381.831 377.011 383.356 378.539 385.261 378.539C387.166 378.539 388.691 377.011 388.691 375.101C388.691 373.191 387.166 371.663 385.261 371.663C383.356 371.536 381.831 373.064 381.831 375.101Z" fill="white"/>
<path d="M363.54 375.101C363.54 377.011 365.064 378.539 366.97 378.539C368.875 378.539 370.399 377.011 370.399 375.101C370.399 373.191 368.875 371.663 366.97 371.663C365.191 371.536 363.54 373.064 363.54 375.101Z" fill="white"/>
<path d="M345.376 375.101C345.376 377.011 346.9 378.539 348.805 378.539C350.711 378.539 352.235 377.011 352.235 375.101C352.235 373.191 350.711 371.663 348.805 371.663C346.9 371.536 345.376 373.064 345.376 375.101Z" fill="white"/>
<path d="M83.8352 234.534L95.1403 226.003L91.8377 221.674L83.8352 227.658L74.1815 220.401L64.5277 227.658L54.8739 220.401L45.3472 227.658L35.6934 220.401L24.3884 228.931L27.564 233.26L35.6934 227.276L45.3472 234.534L54.8739 227.276L64.5277 234.534L74.1815 227.276L83.8352 234.534Z" fill="white"/>
<path d="M497.93 219.764L509.108 211.36L505.933 207.031L497.93 213.016L488.277 205.758L478.623 213.016L468.969 205.758L459.315 213.016L449.662 205.758L438.357 214.289L441.659 218.618L449.662 212.634L459.315 219.764L468.969 212.634L478.623 219.764L488.277 212.634L497.93 219.764Z" fill="#FF3767"/>
<path d="M72.7844 346.811C66.5875 341.203 66.0989 331.622 71.6931 325.411C77.2872 319.199 86.8457 318.709 93.0425 324.317C99.2394 329.924 99.728 339.505 94.1339 345.717C88.5397 351.929 78.9813 352.418 72.7844 346.811Z" fill="#FF3767"/>
<path d="M161.827 118.285C153.479 118.285 146.712 111.502 146.712 103.134C146.712 94.7656 153.479 87.9819 161.827 87.9819C170.176 87.9819 176.943 94.7656 176.943 103.134C176.943 111.502 170.176 118.285 161.827 118.285Z" fill="#FF3767"/>
<path d="M487.514 163.104C487.514 166.16 489.928 168.579 492.976 168.579C496.025 168.579 498.438 166.16 498.438 163.104C498.438 160.048 496.025 157.629 492.976 157.629C489.928 157.629 487.514 160.048 487.514 163.104Z" fill="#FF3767"/>
<path d="M430.608 188.569L412.063 207.031L402.79 197.737L383.61 217.09" stroke="white" stroke-width="2.1588" stroke-miterlimit="10"/>
<path d="M381.196 219.637L382.975 209.196L391.485 217.727L381.196 219.637Z" fill="white"/>
<path d="M77.484 141.841L58.9386 160.303L49.793 151.008L30.4855 170.362" stroke="white" stroke-width="2.1588" stroke-miterlimit="10"/>
<path d="M28.072 172.908L29.9773 162.467L38.3608 170.998L28.072 172.908Z" fill="white"/>
<path d="M295.456 369.244L277.037 387.834L267.765 378.539L248.584 397.765" stroke="white" stroke-width="2.1588" stroke-miterlimit="10"/>
<path d="M246.171 400.312L247.949 389.998L256.459 398.402L246.171 400.312Z" fill="white"/>
<path d="M419.811 4.58374L401.266 23.1733L392.12 13.8785L372.813 33.1047" stroke="white" stroke-width="2.1588" stroke-miterlimit="10"/>
<path d="M370.399 35.6513L372.304 25.3379L380.688 33.7414L370.399 35.6513Z" fill="white"/>
<path d="M457.283 298.451C457.283 302.653 460.713 305.963 464.777 305.963C468.842 305.963 472.272 302.526 472.272 298.451C472.272 294.249 468.842 290.939 464.777 290.939C460.713 290.939 457.283 294.249 457.283 298.451Z" stroke="white" stroke-width="2.1588" stroke-miterlimit="10"/>
<path d="M65.1629 114.975C65.1629 119.177 68.5925 122.487 72.6573 122.487C76.849 122.487 80.1516 119.049 80.1516 114.975C80.1516 110.9 76.722 107.463 72.6573 107.463C68.5925 107.463 65.1629 110.773 65.1629 114.975Z" stroke="white" stroke-width="2.1588" stroke-miterlimit="10"/>
<path d="M159.287 69.3925C155.639 69.3925 152.682 66.4282 152.682 62.7716C152.682 59.1149 155.639 56.1506 159.287 56.1506C162.935 56.1506 165.892 59.1149 165.892 62.7716C165.892 66.4282 162.935 69.3925 159.287 69.3925Z" stroke="white" stroke-width="1.8972" stroke-miterlimit="10"/>
</g>
<defs>
<linearGradient id="paint0_linear" x1="171.656" y1="83.251" x2="107.828" y2="187.72" gradientUnits="userSpaceOnUse">
<stop stop-color="#456BFF"/>
<stop offset="0.0531289" stop-color="#3F5DE1"/>
<stop offset="0.1374" stop-color="#3649B8"/>
<stop offset="0.2239" stop-color="#2F3996"/>
<stop offset="0.3116" stop-color="#2A2D7C"/>
<stop offset="0.4012" stop-color="#262469"/>
<stop offset="0.4936" stop-color="#241F5E"/>
<stop offset="0.5937" stop-color="#231D5A"/>
</linearGradient>
<linearGradient id="paint1_linear" x1="326.413" y1="89.1394" x2="306.446" y2="173.798" gradientUnits="userSpaceOnUse">
<stop stop-color="#456BFF"/>
<stop offset="0.0531289" stop-color="#3F5DE1"/>
<stop offset="0.1374" stop-color="#3649B8"/>
<stop offset="0.2239" stop-color="#2F3996"/>
<stop offset="0.3116" stop-color="#2A2D7C"/>
<stop offset="0.4012" stop-color="#262469"/>
<stop offset="0.4936" stop-color="#241F5E"/>
<stop offset="0.5937" stop-color="#231D5A"/>
</linearGradient>
<linearGradient id="paint2_linear" x1="444.981" y1="143.637" x2="332.37" y2="143.637" gradientUnits="userSpaceOnUse">
<stop stop-color="#456BFF"/>
<stop offset="0.0531289" stop-color="#3F5DE1"/>
<stop offset="0.1374" stop-color="#3649B8"/>
<stop offset="0.2239" stop-color="#2F3996"/>
<stop offset="0.3116" stop-color="#2A2D7C"/>
<stop offset="0.4012" stop-color="#262469"/>
<stop offset="0.4936" stop-color="#241F5E"/>
<stop offset="0.5937" stop-color="#231D5A"/>
</linearGradient>
<linearGradient id="paint3_linear" x1="508.66" y1="92.9732" x2="492.988" y2="105.404" gradientUnits="userSpaceOnUse">
<stop stop-color="#456BFF"/>
<stop offset="0.0531289" stop-color="#3F5DE1"/>
<stop offset="0.1374" stop-color="#3649B8"/>
<stop offset="0.2239" stop-color="#2F3996"/>
<stop offset="0.3116" stop-color="#2A2D7C"/>
<stop offset="0.4012" stop-color="#262469"/>
<stop offset="0.4936" stop-color="#241F5E"/>
<stop offset="0.5937" stop-color="#231D5A"/>
</linearGradient>
<clipPath id="clip0">
<rect width="518" height="438" transform="matrix(-1 0 0 1 518 0)" fill="white"/>
</clipPath>
</defs>
</svg>
