<svg width="123" height="16" viewBox="0 0 123 16" fill="none" xmlns="http://www.w3.org/2000/svg">
<path d="M8.02 5.88C7.68667 5.88 7.38667 5.94667 7.12 6.08C6.85333 6.2 6.62667 6.37333 6.44 6.6C6.26667 6.81333 6.13333 7.06667 6.04 7.36C5.94667 7.65333 5.9 7.96667 5.9 8.3C5.9 8.40667 5.90667 8.56667 5.92 8.78C5.94667 8.98 6.00667 9.18 6.1 9.38C6.20667 9.58 6.37333 9.76 6.6 9.92C6.82667 10.0667 7.14667 10.14 7.56 10.14C7.93333 10.14 8.24667 10.0667 8.5 9.92C8.75333 9.77333 8.95333 9.58667 9.1 9.36C9.24667 9.12 9.34667 8.86 9.4 8.58C9.46667 8.28667 9.5 8 9.5 7.72C9.5 7.18667 9.38 6.74667 9.14 6.4C8.9 6.05333 8.52667 5.88 8.02 5.88ZM14.54 12.34C13.82 13.3267 12.92 14.08 11.84 14.6C10.7733 15.1067 9.62667 15.36 8.4 15.36C7.33333 15.36 6.32667 15.18 5.38 14.82C4.44667 14.4467 3.62667 13.9333 2.92 13.28C2.21333 12.6267 1.65333 11.8467 1.24 10.94C0.84 10.02 0.64 9.02 0.64 7.94C0.64 6.87333 0.84 5.88667 1.24 4.98C1.64 4.07333 2.18667 3.28667 2.88 2.62C3.57333 1.95333 4.38 1.43333 5.3 1.06C6.23333 0.673333 7.22667 0.48 8.28 0.48C9.16 0.48 10.02 0.626666 10.86 0.919999C11.7133 1.2 12.4733 1.62 13.14 2.18C13.8067 2.74 14.34 3.43333 14.74 4.26C15.1533 5.07333 15.36 6.00667 15.36 7.06C15.36 7.76667 15.2733 8.38 15.1 8.9C14.94 9.42 14.7267 9.86 14.46 10.22C14.2067 10.58 13.9133 10.8733 13.58 11.1C13.26 11.3267 12.9333 11.5 12.6 11.62C12.28 11.74 11.9667 11.8267 11.66 11.88C11.3667 11.92 11.12 11.94 10.92 11.94C10.36 11.94 9.96 11.8267 9.72 11.6C9.48 11.3733 9.35333 11.1267 9.34 10.86H9.3C9.03333 11.1267 8.7 11.3733 8.3 11.6C7.9 11.8267 7.38 11.94 6.74 11.94C6.31333 11.94 5.92 11.86 5.56 11.7C5.21333 11.5267 4.91333 11.2933 4.66 11C4.40667 10.7067 4.20667 10.3533 4.06 9.94C3.92667 9.52667 3.86 9.07333 3.86 8.58C3.86 7.99333 3.95333 7.43333 4.14 6.9C4.32667 6.35333 4.58667 5.87333 4.92 5.46C5.26667 5.03333 5.68667 4.7 6.18 4.46C6.67333 4.20667 7.23333 4.08 7.86 4.08C8.39333 4.08 8.83333 4.16667 9.18 4.34C9.54 4.51333 9.82 4.80667 10.02 5.22H10.06L10.22 4.32H12.1L11.36 8.26C11.32 8.44667 11.28 8.63333 11.24 8.82C11.2 9.00667 11.18 9.2 11.18 9.4C11.18 9.64 11.2133 9.82667 11.28 9.96C11.36 10.08 11.5067 10.14 11.72 10.14C11.9333 10.14 12.14 10.0867 12.34 9.98C12.5533 9.86 12.74 9.68 12.9 9.44C13.06 9.18667 13.1867 8.87333 13.28 8.5C13.3867 8.12667 13.44 7.68 13.44 7.16C13.44 6.36 13.3067 5.66 13.04 5.06C12.7867 4.44667 12.4267 3.93333 11.96 3.52C11.5067 3.10667 10.96 2.8 10.32 2.6C9.68 2.38667 8.98 2.28 8.22 2.28C7.39333 2.28 6.64 2.42 5.96 2.7C5.28 2.98 4.69333 3.37333 4.2 3.88C3.72 4.38667 3.34667 4.98667 3.08 5.68C2.81333 6.37333 2.68 7.12667 2.68 7.94C2.68 8.82 2.82667 9.60667 3.12 10.3C3.41333 10.9933 3.82 11.58 4.34 12.06C4.87333 12.54 5.5 12.9133 6.22 13.18C6.94 13.4333 7.72 13.56 8.56 13.56C9.32 13.56 10.0133 13.4533 10.64 13.24C11.28 13.0267 11.8467 12.7267 12.34 12.34H14.54ZM30.4341 3.88C30.1674 3.49333 29.8074 3.21333 29.3541 3.04C28.9141 2.85333 28.4474 2.76 27.9541 2.76C27.6607 2.76 27.3741 2.79333 27.0941 2.86C26.8274 2.92667 26.5807 3.03333 26.3541 3.18C26.1407 3.32667 25.9674 3.52 25.8341 3.76C25.7007 3.98667 25.6341 4.26 25.6341 4.58C25.6341 5.06 25.8007 5.42667 26.1341 5.68C26.4674 5.93333 26.8807 6.15333 27.3741 6.34C27.8674 6.52667 28.4074 6.70667 28.9941 6.88C29.5807 7.05333 30.1207 7.29333 30.6141 7.6C31.1074 7.90667 31.5207 8.31333 31.8541 8.82C32.1874 9.32667 32.3541 10 32.3541 10.84C32.3541 11.6 32.2141 12.2667 31.9341 12.84C31.6541 13.4 31.2741 13.8667 30.7941 14.24C30.3274 14.6133 29.7807 14.8933 29.1541 15.08C28.5274 15.2667 27.8674 15.36 27.1741 15.36C26.2941 15.36 25.4474 15.2133 24.6341 14.92C23.8207 14.6267 23.1207 14.1333 22.5341 13.44L24.4341 11.6C24.7407 12.0667 25.1407 12.4333 25.6341 12.7C26.1407 12.9533 26.6741 13.08 27.2341 13.08C27.5274 13.08 27.8207 13.04 28.1141 12.96C28.4074 12.88 28.6741 12.76 28.9141 12.6C29.1541 12.44 29.3474 12.24 29.4941 12C29.6407 11.7467 29.7141 11.46 29.7141 11.14C29.7141 10.62 29.5474 10.22 29.2141 9.94C28.8807 9.66 28.4674 9.42667 27.9741 9.24C27.4807 9.04 26.9407 8.85333 26.3541 8.68C25.7674 8.50667 25.2274 8.27333 24.7341 7.98C24.2407 7.67333 23.8274 7.27333 23.4941 6.78C23.1607 6.27333 22.9941 5.6 22.9941 4.76C22.9941 4.02667 23.1407 3.39333 23.4341 2.86C23.7407 2.32667 24.1341 1.88667 24.6141 1.54C25.1074 1.18 25.6674 0.913332 26.2941 0.739999C26.9207 0.566666 27.5607 0.48 28.2141 0.48C28.9607 0.48 29.6807 0.593333 30.3741 0.819999C31.0807 1.04667 31.7141 1.42 32.2741 1.94L30.4341 3.88ZM34.2184 7.98C34.2184 6.84667 34.4051 5.82 34.7784 4.9C35.1518 3.96667 35.6651 3.17333 36.3184 2.52C36.9851 1.86667 37.7718 1.36667 38.6784 1.02C39.5984 0.659999 40.6051 0.48 41.6984 0.48C42.8051 0.466666 43.8184 0.633332 44.7384 0.979999C45.6584 1.31333 46.4518 1.80667 47.1184 2.46C47.7851 3.11333 48.3051 3.9 48.6784 4.82C49.0518 5.74 49.2384 6.76667 49.2384 7.9C49.2384 9.00667 49.0518 10.0133 48.6784 10.92C48.3051 11.8267 47.7851 12.6067 47.1184 13.26C46.4518 13.9133 45.6584 14.4267 44.7384 14.8C43.8184 15.16 42.8051 15.3467 41.6984 15.36C40.6051 15.36 39.5984 15.1867 38.6784 14.84C37.7718 14.48 36.9851 13.98 36.3184 13.34C35.6651 12.6867 35.1518 11.9067 34.7784 11C34.4051 10.0933 34.2184 9.08667 34.2184 7.98ZM36.8584 7.82C36.8584 8.58 36.9718 9.28 37.1984 9.92C37.4384 10.56 37.7718 11.1133 38.1984 11.58C38.6251 12.0467 39.1318 12.4133 39.7184 12.68C40.3184 12.9467 40.9851 13.08 41.7184 13.08C42.4518 13.08 43.1184 12.9467 43.7184 12.68C44.3184 12.4133 44.8318 12.0467 45.2584 11.58C45.6851 11.1133 46.0118 10.56 46.2384 9.92C46.4784 9.28 46.5984 8.58 46.5984 7.82C46.5984 7.11333 46.4784 6.45333 46.2384 5.84C46.0118 5.22667 45.6851 4.69333 45.2584 4.24C44.8318 3.77333 44.3184 3.41333 43.7184 3.16C43.1184 2.89333 42.4518 2.76 41.7184 2.76C40.9851 2.76 40.3184 2.89333 39.7184 3.16C39.1318 3.41333 38.6251 3.77333 38.1984 4.24C37.7718 4.69333 37.4384 5.22667 37.1984 5.84C36.9718 6.45333 36.8584 7.11333 36.8584 7.82ZM51.6386 0.84H56.5586C57.2386 0.84 57.8919 0.906667 58.5186 1.04C59.1586 1.16 59.7253 1.37333 60.2186 1.68C60.7119 1.98667 61.1053 2.4 61.3986 2.92C61.6919 3.44 61.8386 4.1 61.8386 4.9C61.8386 5.92667 61.5519 6.78667 60.9786 7.48C60.4186 8.17333 59.6119 8.59333 58.5586 8.74L62.3186 15H59.2786L55.9986 9H54.1586V15H51.6386V0.84ZM56.1186 6.84C56.4786 6.84 56.8386 6.82667 57.1986 6.8C57.5586 6.76 57.8853 6.68 58.1786 6.56C58.4853 6.42667 58.7319 6.23333 58.9186 5.98C59.1053 5.71333 59.1986 5.34667 59.1986 4.88C59.1986 4.46667 59.1119 4.13333 58.9386 3.88C58.7653 3.62667 58.5386 3.44 58.2586 3.32C57.9786 3.18667 57.6653 3.1 57.3186 3.06C56.9853 3.02 56.6586 3 56.3386 3H54.1586V6.84H56.1186ZM62.5962 0.84H65.4963L69.3563 11.54L73.3363 0.84H76.0563L70.3363 15H68.1563L62.5962 0.84ZM77.5761 0.84H86.9561V3.12H80.0961V6.6H86.5961V8.88H80.0961V12.72H87.3161V15H77.5761V0.84ZM92.7027 3.12H88.3627V0.84H99.5627V3.12H95.2227V15H92.7027V3.12ZM104.187 3.12H99.847V0.84H111.047V3.12H106.707V15H104.187V3.12ZM112.771 0.84H122.151V3.12H115.291V6.6H121.791V8.88H115.291V12.72H122.511V15H112.771V0.84Z" fill="black"/>
</svg>
