<svg width="147" height="147" viewBox="0 0 147 147" fill="none" xmlns="http://www.w3.org/2000/svg">
    <path opacity="0.12" d="M73.5 147C32.907 147 0 114.093 0 73.5C0 32.9071 32.907 0 73.5 0C114.093 0 147 32.9071 147 73.5C147 114.093 114.093 147 73.5 147Z" fill="#FFAA62"/>
    <path d="M93.7524 63.1328C95.1734 56.666 91.0594 50.2767 84.5634 48.8621C78.0675 47.4474 71.6495 51.5431 70.2285 58.0099C68.8075 64.4768 72.9215 70.866 79.4175 72.2807C85.9134 73.6953 92.3314 69.5997 93.7524 63.1328Z" fill="#FFD066"/>
    <path d="M91.824 60.5346C91.824 65.9401 87.4171 70.3272 81.9873 70.3272C76.5575 70.3272 72.1506 65.9401 72.1506 60.5346C72.1506 55.129 76.5575 50.7419 81.9873 50.7419C87.4171 50.7419 91.824 55.129 91.824 60.5346Z" fill="#FEAC1A"/>
    <path d="M80.8071 55.5208C82.7744 54.8941 84.8205 55.0508 85.6074 56.931L82.4597 58.1844C82.1449 57.4794 81.358 57.636 80.8858 57.7927C80.571 57.8711 79.6267 58.2628 79.8628 58.8895C80.4136 60.2213 85.6861 56.5393 87.1813 60.1429C88.0469 62.3365 86.6304 63.9033 84.5844 64.8434L85.6861 67.1153L83.7188 67.8987L82.8531 65.4701C80.8071 66.0185 78.6037 65.8618 77.8167 63.9033L80.9645 62.6499V62.7282C81.358 63.59 82.381 63.3549 82.8531 63.1982C83.3253 63.0416 84.2696 62.5715 84.0335 61.9448C83.4827 60.613 78.1315 64.1383 76.715 60.613C75.9281 58.5761 77.1872 57.166 79.0758 56.1476L77.9741 53.7973L79.9415 53.0139L80.8071 55.5208Z" fill="#FFD066"/>
    <path d="M71.3636 54.5806C71.5209 54.5806 71.5996 54.2672 71.5996 54.1889C71.757 54.0322 72.8587 53.5621 72.7013 53.4055C72.4653 53.2488 72.1505 53.2488 71.9144 53.2488C71.6783 53.2488 71.3636 53.4055 71.2062 53.5621C71.0488 53.7972 71.0488 54.1889 71.2062 54.5022C71.2849 54.5022 71.3636 54.5806 71.3636 54.5806Z" fill="#E8A393"/>
    <path d="M73.331 53.0137C73.4884 53.0137 74.1179 53.2488 74.1179 53.0137C74.1966 52.7004 73.5671 52.5437 73.331 52.5437C73.0949 52.5437 72.7802 52.5437 72.4654 52.622C72.2293 52.7004 71.9145 52.7787 71.6784 52.8571C71.5211 52.8571 71.4424 53.0137 71.285 53.0921C71.2063 53.1704 70.9702 53.3271 70.7341 53.3271C70.6554 53.3271 70.5767 53.3271 70.498 53.3271V53.4055C70.3407 53.7972 70.1833 54.1889 70.0259 54.5022C70.262 54.5022 70.5767 54.5022 70.7341 54.5022C70.8915 54.5022 70.9702 54.5022 71.1276 54.5806C71.285 54.6589 71.3637 54.6589 71.5211 54.7372C71.5997 54.7372 71.7571 54.8156 71.8358 54.8939C71.9145 54.8939 72.1506 54.8939 72.1506 54.8156C72.1506 54.7372 72.0719 54.5806 71.9932 54.5022C71.8358 54.3455 71.3637 54.4239 71.4424 54.1105C71.4424 53.9538 71.5997 53.8755 71.6784 53.7972C71.7571 53.7188 71.9145 53.6405 71.9932 53.6405C72.2293 53.5621 72.5441 53.5621 72.7802 53.5621C72.9375 53.5621 73.0949 53.6405 73.2523 53.4838C73.331 53.4055 73.4097 53.3271 73.2523 53.2488C73.1736 53.2488 73.1736 53.1704 73.0949 53.1704C73.1736 53.0137 73.331 53.0137 73.331 53.0137Z" fill="#FCD4CA"/>
    <path d="M51.5329 42.9863C52.6347 41.9679 54.2872 41.9679 55.4676 42.908C57.3563 44.3965 60.9762 47.2167 62.0779 48.0001C63.6517 49.0969 70.8128 52.9356 70.8128 52.9356L69.8685 54.8941C69.8685 54.8941 61.0548 51.6822 59.7958 50.8204C58.5367 49.9587 51.2182 46.1983 50.8247 44.5531C50.8247 43.9264 51.1395 43.4564 51.5329 42.9863Z" fill="#F45762"/>
    <path opacity="0.35" d="M51.5329 42.9863C52.6347 41.9679 54.2872 41.9679 55.4676 42.908C57.3563 44.3965 60.9762 47.2167 62.0779 48.0001C63.6517 49.0969 70.8128 52.9356 70.8128 52.9356L69.8685 54.8941C69.8685 54.8941 61.0548 51.6822 59.7958 50.8204C58.5367 49.9587 51.2182 46.1983 50.8247 44.5531C50.8247 43.9264 51.1395 43.4564 51.5329 42.9863Z" fill="#C9071E"/>
    <path d="M45.8671 60.7695H36.8174L21 76.6728H31.2301L45.8671 60.7695Z" fill="#110239"/>
    <path d="M102.054 60.7695H111.183L127 76.6728H116.77L102.054 60.7695Z" fill="#110239"/>
    <path d="M107.012 60.7695H40.9094V115.608H107.012V60.7695Z" fill="#FFD066"/>
    <path d="M53.5004 94.5346H49.251V81.3733H53.5004V94.5346Z" fill="white"/>
    <path d="M62.2353 81.3733C66.7209 81.3733 69.1604 83.4885 69.1604 87.9539C69.1604 92.4194 66.7209 94.5346 62.2353 94.5346H56.4907V81.3733H62.2353ZM60.7402 84.5853V91.4793H62.1566C64.0453 91.4793 64.8322 90.4608 64.8322 88.659V87.4055C64.8322 85.6037 64.0453 84.5853 62.1566 84.5853H60.7402Z" fill="white"/>
    <path d="M71.5212 94.5346V81.3733H82.9318V84.5069H75.7707V86.3088H81.9088V89.3641H75.7707V91.4009H83.0892V94.5346H71.5212Z" fill="white"/>
    <path d="M98.7492 94.5346H94.2637L93.7128 92.6544H89.0699L88.5191 94.5346H84.1909L88.9912 81.3733H93.9489L98.7492 94.5346ZM91.352 85.0553L89.9355 89.7558H92.7685L91.352 85.0553Z" fill="white"/>
    <path d="M42.4832 65.0002L42.9553 63.5901H64.6747L64.2025 65.0002H42.4832Z" fill="#110239"/>
    <path d="M39.8865 72.7558L40.3586 71.2673H62.2354L61.7632 72.7558H39.8865Z" fill="#110239"/>
    <path d="M45.7097 57.3227L46.1819 55.8342H67.9799L67.5078 57.3227H45.7097Z" fill="#110239"/>
    <path d="M37.2896 80.5117L37.7617 79.0232H59.7172L59.245 80.5117H37.2896Z" fill="#110239"/>
    <path d="M34.614 88.424L35.1649 86.9355H57.199L56.7269 88.424H34.614Z" fill="#110239"/>
    <path d="M31.9382 96.3366L32.4891 94.8481H54.6806L54.2085 96.3366H31.9382Z" fill="#110239"/>
    <path d="M29.2627 104.406L29.7349 102.917H52.0838L51.6116 104.406H29.2627Z" fill="#110239"/>
    <path d="M26.7446 116H26.6659C25.9576 116 25.4855 115.295 25.7216 114.668L46.1032 53.7974C46.2605 53.4056 46.654 53.0923 47.0475 53.0923H48.464L27.6889 115.295C27.6102 115.687 27.2167 116 26.7446 116Z" fill="#110239"/>
    <path d="M48.8574 116H48.7787C48.0704 116 47.5983 115.373 47.8344 114.668L67.3503 53.7974C67.5077 53.4056 67.9012 53.0923 68.2946 53.0923C69.0029 53.0923 69.475 53.719 69.239 54.4241L49.8017 115.295C49.723 115.687 49.3295 116 48.8574 116Z" fill="#110239"/>
    <path d="M57.7499 37.1106C57.7499 37.1889 57.7499 37.2673 57.8286 37.2673C58.0646 37.8157 58.3007 38.4424 58.6155 38.9124C58.7729 39.2258 59.1663 39.5392 59.3237 39.8525C59.4024 40.0092 59.4811 40.0876 59.5598 40.1659C59.0877 40.871 57.7499 42.7511 57.4351 43.6129C57.4351 43.6129 54.9956 42.2811 54.5234 40.871C54.5234 40.871 56.8055 38.5991 57.7499 37.1106Z" fill="#FCD4CA"/>
    <path d="M57.199 41.8894C57.3564 41.106 57.2777 40.2442 56.8842 39.4608C56.7268 39.2258 56.6481 38.9908 56.4907 38.7558C56.9629 38.2074 57.435 37.5806 57.7498 37.1106C57.7498 37.1889 57.7498 37.2673 57.8285 37.2673C58.0646 37.8157 58.3007 38.4424 58.6154 38.9124C58.7728 39.2258 59.1663 39.5392 59.3237 39.8525C59.4024 40.0092 59.4811 40.0876 59.5598 40.1659C59.0876 40.871 57.7498 42.7511 57.435 43.6129C57.435 43.6129 57.0416 43.3779 56.4907 42.9862C56.8055 42.7511 57.1203 42.3594 57.199 41.8894Z" fill="#E8A393"/>
    <path d="M50.4314 84.3502C50.4314 84.3502 50.5101 87.0921 50.9036 87.4838C51.297 87.8756 56.8056 88.0322 57.2777 87.4838C57.7499 87.0138 57.4351 86.152 56.3334 85.8387C55.0743 85.5253 54.4448 85.8387 53.6578 85.5253C52.8709 85.212 53.107 83.9585 53.107 83.9585L50.4314 84.3502Z" fill="#110239"/>
    <path d="M36.8961 84.1935C36.8961 84.1935 36.5026 86.8571 36.8961 87.2488C37.2895 87.6405 42.8768 88.1105 43.3489 87.5621C43.8211 87.0921 43.585 86.2304 42.4046 85.8387C41.1455 85.4469 40.5947 85.682 39.729 85.3686C39.0995 85.1336 39.4929 83.8801 39.4929 83.8801L36.8961 84.1935Z" fill="#110239"/>
    <path d="M40.9094 68.9172C40.752 61.3964 41.6176 56.1476 42.0111 53.719C42.9554 53.719 43.821 53.7973 44.7653 54.2674C46.4179 55.0508 48.0705 55.7559 49.8017 56.4609C48.4639 59.2812 45.4736 68.3688 45.0801 70.3273C44.6079 72.6775 39.6503 84.8204 39.6503 84.8204L36.6599 84.4287C36.7386 82.4701 40.988 69.5439 40.9094 68.9172Z" fill="#0186CB"/>
    <path opacity="0.65" d="M47.126 55.3641C47.9917 55.7558 48.936 56.1475 49.8016 56.4608C48.5425 59.2028 46.103 66.7235 45.5522 68.7604C45.1587 67.5069 43.1127 64.3733 42.3257 61.0046C41.7749 58.7327 41.6962 56.3825 42.0897 54.1106C43.7422 54.2673 45.3161 54.424 47.126 55.3641Z" fill="#0056A3"/>
    <path d="M44.9228 54.8941C46.1032 55.2858 48.2279 55.8342 49.8804 56.4609C50.9822 59.2812 54.366 66.0185 54.5234 68.9955C54.6807 72.3641 53.579 84.977 53.579 84.977H50.1165C50.1165 84.977 49.8018 70.719 49.3296 69.7789C47.7557 66.7236 45.9458 64.3734 45.0015 62.4932C43.3489 59.3595 42.7193 57.3227 42.4833 55.8342C42.3259 55.2075 41.775 53.0139 42.8767 52.3088C43.6637 52.6222 43.8997 54.5807 44.9228 54.8941Z" fill="#0186CB"/>
    <path d="M50.6674 57.7143C50.6674 57.7143 47.5197 57.5576 45.0802 56.1475C43.2702 55.1291 42.2472 54.5807 41.3816 53.4839C41.3816 53.4839 46.8901 44.7097 49.5657 42.3595C52.32 40.0092 54.8382 40.4793 54.8382 40.4793C54.8382 40.4793 56.1759 42.3595 57.6711 42.9862C57.6711 42.9862 54.9955 48.7051 53.8151 50.977C52.7134 53.2489 50.6674 57.7143 50.6674 57.7143Z" fill="#F45762"/>
    <path opacity="0.35" d="M54.2873 50.1935C54.4447 49.9585 54.5234 49.6451 54.6808 49.4101C54.6808 49.4101 54.6808 49.3318 54.7595 49.3318C54.9169 49.0968 54.9956 48.7834 55.153 48.47C55.153 48.3917 55.2317 48.3917 55.2317 48.3133C55.3891 48 55.5464 47.6866 55.7038 47.3733C55.5464 47.2949 55.4677 47.2949 55.3891 47.2166C54.5234 46.5898 53.9726 45.7281 53.4217 44.9447C53.343 44.788 53.1856 44.7097 53.1069 44.553C52.3987 45.7281 52.2413 47.4516 52.0839 48.5484C51.5331 51.5253 50.274 55.129 48.5427 57.4792C49.8018 57.7926 50.8248 57.7926 50.8248 57.7926C50.8248 57.7926 52.8709 53.3272 53.9726 51.0553C54.0513 50.8203 54.2087 50.5852 54.2873 50.3502C54.2087 50.2719 54.2873 50.2719 54.2873 50.1935Z" fill="#C9071E"/>
    <path d="M58.6942 33.4286C58.6942 33.4286 61.2124 32.3318 62.3141 33.4286C63.4158 34.5254 64.0454 35.3871 63.8093 35.9355C63.5732 36.6406 62.7076 38.0507 62.6289 38.8341C62.5502 39.5392 62.6289 40.7143 62.4715 40.9494C62.2354 41.1844 61.5272 40.636 61.4485 40.7143C61.3698 40.7927 59.6385 41.9678 59.2451 41.8894C58.8516 41.8111 57.3564 38.9908 57.5925 37.9724C57.8286 36.954 57.5925 34.5254 58.6942 33.4286Z" fill="#FCD4CA"/>
    <path d="M60.9762 35.7005C61.0549 35.7788 61.1336 36.0138 61.2123 36.0922C61.3697 36.2488 61.5271 36.4055 61.6845 36.6406C61.9992 37.0323 62.314 37.3456 62.7075 37.5806C63.337 37.894 63.6518 37.1889 64.2027 37.0323C64.4387 36.9539 64.6748 37.1889 64.9896 37.1106C65.3044 37.0323 65.5404 36.7972 65.6978 36.5622C66.17 36.0138 65.6978 35.5438 65.3831 35.0737C64.9896 34.5253 65.2257 34.212 65.3044 33.6636C65.5404 32.2535 63.6518 32.8018 63.0223 32.1751C62.7075 31.8618 62.5501 31.3134 62.0779 31.235C61.6845 31.1567 61.291 31.3134 60.8975 31.3917C60.5041 31.47 60.4254 31.235 60.0319 31.0783C59.7958 31 59.4024 31 59.0876 31C58.458 31.0783 57.7498 31.47 57.435 32.0184C57.199 32.5668 57.2776 33.0369 56.9629 33.5069C56.6481 33.8986 56.2546 34.2903 56.1759 34.7604C56.0186 35.4654 56.4907 35.9355 56.5694 36.5622C56.6481 37.1889 56.9629 37.8157 57.5137 38.129C57.8285 37.8157 58.3007 37.2673 58.1433 36.8756C58.0646 36.7189 57.9859 36.5622 57.9072 36.2488C57.8285 35.7005 58.6154 35.2304 59.1663 35.8571C59.4811 36.2488 58.7728 37.424 59.3237 37.5806C59.7171 37.7373 59.7958 36.8756 59.8745 36.6406C59.9532 36.3272 60.4254 35.7005 60.8188 35.7005C60.8975 35.6221 60.8975 35.7005 60.9762 35.7005Z" fill="#110239"/>
    <path d="M63.8092 60.6912C63.9665 60.6912 64.1239 60.6128 64.2026 60.6912C64.4387 60.7695 64.9109 60.6128 65.0682 60.6128C65.4617 60.4561 66.0913 60.1428 66.5634 60.2211C66.7995 60.2994 68.2947 60.6128 67.9799 61.2395C67.9012 61.3179 67.7438 61.4746 67.6651 61.3962C67.5077 61.3179 67.1143 61.1612 67.1143 61.1612C67.1143 61.1612 67.429 61.3179 67.5077 61.3179C67.5864 61.3962 67.6651 61.3962 67.7438 61.4746C67.8225 61.6312 67.6651 61.8663 67.5864 61.9446C67.4291 62.023 67.3504 61.8663 67.2717 61.7879C67.3504 61.8663 67.5864 61.9446 67.429 62.258C67.2717 62.6497 67.193 62.4147 67.0356 62.3363C66.9569 62.3363 66.9569 62.3363 66.8782 62.258C66.9569 62.258 67.1143 62.4147 67.193 62.4147C67.3504 62.5713 67.0356 62.963 66.7208 62.8847C66.5634 62.8847 66.17 62.6497 66.0126 62.6497C65.9339 62.6497 65.7765 62.6497 65.6978 62.6497C65.383 62.6497 64.9896 62.5713 64.6748 62.4147C64.5174 62.3363 64.2813 62.258 64.1239 62.1796C63.8092 62.023 63.4157 61.7096 63.2583 61.6312C63.4944 61.3179 63.8092 61.2395 63.8092 60.6912Z" fill="#FCD4CA"/>
    <path d="M63.8878 62.4931L65.3043 60.2995C65.3043 60.2995 61.3696 54.894 59.9531 52.0737C58.5366 49.3318 57.671 44.318 56.1758 43.5345C54.6807 42.7511 52.792 43.1428 52.9494 45.6498C53.1855 48.1567 56.8841 52.6221 57.5136 53.8756C58.2219 55.129 63.1009 61.7097 63.8878 62.4931Z" fill="#F45762"/>
</svg>
