<svg width="147" height="147" viewBox="0 0 147 147" fill="none" xmlns="http://www.w3.org/2000/svg">
    <path opacity="0.12" d="M73.5 147C32.907 147 0 114.093 0 73.5C0 32.9071 32.907 0 73.5 0C114.093 0 147 32.9071 147 73.5C147 114.093 114.093 147 73.5 147Z" fill="#FFAA62"/>
    <g clip-path="url(#clip0)">
        <path d="M63.9 41.7997C63.9 41.7997 67.3 54.1997 69 56.1997C70.7 58.1997 76.2 61.1997 76.2 61.1997L74.7 63.7997C74.7 63.7997 64.7 58.6997 62.9 54.4997C61.9 52.0997 61.2 49.9997 60.9 48.0997C60.6 46.5997 59.5 42.6997 60.1 41.1997C60.5 40.1997 63.2 39.6997 63.9 41.7997Z" fill="#0186CB"/>
        <path opacity="0.65" d="M63.9 41.7997C63.9 41.7997 67.3 54.1997 69 56.1997C70.7 58.1997 76.2 61.1997 76.2 61.1997L74.7 63.7997C74.7 63.7997 64.7 58.6997 62.9 54.4997C61.9 52.0997 61.2 49.9997 60.9 48.0997C60.6 46.5997 59.5 42.6997 60.1 41.1997C60.5 40.1997 63.2 39.6997 63.9 41.7997Z" fill="#0056A3"/>
        <path d="M98.3999 101L100.9 98.5999C100.9 98.5999 111 97.8999 111.6 98.6999C112.2 99.5999 102 104.4 100.7 104.3C99.3999 104.3 98.5999 102 98.3999 101Z" fill="#110239"/>
        <path d="M79.7999 66.6998C79.7999 66.6998 89.3999 64.2998 90.1999 65.7998C90.9999 67.3998 100.9 98.5998 100.9 98.5998L98.3999 101C98.3999 101 87.6999 74.6998 84.5999 71.8998C81.5999 69.0998 78.3999 67.7998 79.7999 66.6998Z" fill="#FCD4CA"/>
        <path d="M79.7999 66.6998C79.7999 66.6998 89.3999 64.2998 90.1999 65.7998C90.9999 67.3998 100.9 98.5998 100.9 98.5998L98.3999 101C98.3999 101 87.6999 74.6998 84.5999 71.8998C81.5999 69.0998 78.3999 67.7998 79.7999 66.6998Z" fill="#E8A393"/>
        <path d="M37.0999 117.2H84.4999V125.4H37.0999V117.2Z" fill="#FFD066"/>
        <path d="M79.3999 117.2H81.7999V125.4H79.3999V117.2Z" fill="#FEAC1A"/>
        <path d="M74.3999 117.2H76.7999V125.4H74.3999V117.2Z" fill="#FEAC1A"/>
        <path d="M69.3999 117.2H71.7999V125.4H69.3999V117.2Z" fill="#FEAC1A"/>
        <path d="M64.3999 117.2H66.7999V125.4H64.3999V117.2Z" fill="#FEAC1A"/>
        <path d="M59.3999 117.2H61.7999V125.4H59.3999V117.2Z" fill="#FEAC1A"/>
        <path d="M54.3999 117.2H56.7999V125.4H54.3999V117.2Z" fill="#FEAC1A"/>
        <path d="M49.3999 117.2H51.7999V125.4H49.3999V117.2Z" fill="#FEAC1A"/>
        <path d="M44.3999 117.2H46.7999V125.4H44.3999V117.2Z" fill="#FEAC1A"/>
        <path d="M39.3999 117.2H41.7999V125.4H39.3999V117.2Z" fill="#FEAC1A"/>
        <path d="M43.0999 109H90.4999V117.2H43.0999V109Z" fill="#FFD066"/>
        <path d="M85.3999 109H87.7999V117.2H85.3999V109Z" fill="#FEAC1A"/>
        <path d="M80.3999 109H82.7999V117.2H80.3999V109Z" fill="#FEAC1A"/>
        <path d="M75.3999 109H77.7999V117.2H75.3999V109Z" fill="#FEAC1A"/>
        <path d="M70.3999 109H72.7999V117.2H70.3999V109Z" fill="#FEAC1A"/>
        <path d="M65.3999 109H67.7999V117.2H65.3999V109Z" fill="#FEAC1A"/>
        <path d="M60.3999 109H62.7999V117.2H60.3999V109Z" fill="#FEAC1A"/>
        <path d="M55.3999 109H57.7999V117.2H55.3999V109Z" fill="#FEAC1A"/>
        <path d="M50.3999 109H52.7999V117.2H50.3999V109Z" fill="#FEAC1A"/>
        <path d="M45.3999 109H47.7999V117.2H45.3999V109Z" fill="#FEAC1A"/>
        <path d="M34.8999 100.9H82.2999V109.1H34.8999V100.9Z" fill="#FFD066"/>
        <path d="M77.2999 100.9H79.7V109.1H77.2999V100.9Z" fill="#FEAC1A"/>
        <path d="M72.2999 100.9H74.7V109.1H72.2999V100.9Z" fill="#FEAC1A"/>
        <path d="M67.2999 100.9H69.7V109.1H67.2999V100.9Z" fill="#FEAC1A"/>
        <path d="M62.2999 100.9H64.7V109.1H62.2999V100.9Z" fill="#FEAC1A"/>
        <path d="M57.2999 100.9H59.7V109.1H57.2999V100.9Z" fill="#FEAC1A"/>
        <path d="M52.2999 100.9H54.7V109.1H52.2999V100.9Z" fill="#FEAC1A"/>
        <path d="M47.2999 100.9H49.7V109.1H47.2999V100.9Z" fill="#FEAC1A"/>
        <path d="M42.2 100.9H44.6V109.1H42.2V100.9Z" fill="#FEAC1A"/>
        <path d="M37.2 100.9H39.6V109.1H37.2V100.9Z" fill="#FEAC1A"/>
        <path d="M39.0999 92.6997H86.4999V100.9H39.0999V92.6997Z" fill="#FFD066"/>
        <path d="M81.3999 92.6997H83.7999V100.9H81.3999V92.6997Z" fill="#FEAC1A"/>
        <path d="M76.3999 92.6997H78.7999V100.9H76.3999V92.6997Z" fill="#FEAC1A"/>
        <path d="M71.3999 92.6997H73.7999V100.9H71.3999V92.6997Z" fill="#FEAC1A"/>
        <path d="M66.3999 92.6997H68.7999V100.9H66.3999V92.6997Z" fill="#FEAC1A"/>
        <path d="M61.3999 92.6997H63.7999V100.9H61.3999V92.6997Z" fill="#FEAC1A"/>
        <path d="M56.3999 92.6997H58.7999V100.9H56.3999V92.6997Z" fill="#FEAC1A"/>
        <path d="M51.3999 92.6997H53.7999V100.9H51.3999V92.6997Z" fill="#FEAC1A"/>
        <path d="M46.3999 92.6997H48.7999V100.9H46.3999V92.6997Z" fill="#FEAC1A"/>
        <path d="M41.3999 92.6997H43.7999V100.9H41.3999V92.6997Z" fill="#FEAC1A"/>
        <path d="M45.0999 84.5H92.4999V92.7H45.0999V84.5Z" fill="#FFD066"/>
        <path d="M87.3999 84.5H89.7999V92.7H87.3999V84.5Z" fill="#FEAC1A"/>
        <path d="M82.3999 84.5H84.7999V92.7H82.3999V84.5Z" fill="#FEAC1A"/>
        <path d="M77.3999 84.5H79.7999V92.7H77.3999V84.5Z" fill="#FEAC1A"/>
        <path d="M72.3999 84.5H74.7999V92.7H72.3999V84.5Z" fill="#FEAC1A"/>
        <path d="M67.3999 84.5H69.7999V92.7H67.3999V84.5Z" fill="#FEAC1A"/>
        <path d="M62.3999 84.5H64.7999V92.7H62.3999V84.5Z" fill="#FEAC1A"/>
        <path d="M57.3999 84.5H59.7999V92.7H57.3999V84.5Z" fill="#FEAC1A"/>
        <path d="M52.3999 84.5H54.7999V92.7H52.3999V84.5Z" fill="#FEAC1A"/>
        <path d="M47.3999 84.5H49.7999V92.7H47.3999V84.5Z" fill="#FEAC1A"/>
        <path d="M38.6999 76.3999H86.0999V84.5999H38.6999V76.3999Z" fill="#FFD066"/>
        <path d="M81.0999 76.3999H83.4999V84.5999H81.0999V76.3999Z" fill="#FEAC1A"/>
        <path d="M75.9999 76.3999H78.3999V84.5999H75.9999V76.3999Z" fill="#FEAC1A"/>
        <path d="M70.9999 76.3999H73.3999V84.5999H70.9999V76.3999Z" fill="#FEAC1A"/>
        <path d="M65.9999 76.3999H68.3999V84.5999H65.9999V76.3999Z" fill="#FEAC1A"/>
        <path d="M60.9999 76.3999H63.3999V84.5999H60.9999V76.3999Z" fill="#FEAC1A"/>
        <path d="M55.9999 76.3999H58.3999V84.5999H55.9999V76.3999Z" fill="#FEAC1A"/>
        <path d="M50.9999 76.3999H53.3999V84.5999H50.9999V76.3999Z" fill="#FEAC1A"/>
        <path d="M45.9999 76.3999H48.3999V84.5999H45.9999V76.3999Z" fill="#FEAC1A"/>
        <path d="M40.9999 76.3999H43.3999V84.5999H40.9999V76.3999Z" fill="#FEAC1A"/>
        <path d="M74.8999 60.8997C75.5999 60.6997 76.1999 60.4997 76.8999 60.0997C77.3999 59.7997 77.8999 59.4997 78.5999 59.5997C78.9999 59.6997 82.6999 61.2997 81.6999 61.9997C81.3999 62.1997 80.5999 61.7997 80.2999 61.6997C79.7999 61.4997 79.3999 61.2997 78.9999 61.0997C79.3999 61.0997 81.3999 61.8997 81.1999 62.3997C80.7999 63.1997 78.7999 62.0997 78.2999 61.8997C78.6999 61.9997 79.8999 62.3997 79.8999 62.8997C79.8999 63.5997 78.3999 62.9997 78.0999 62.8997C77.8999 62.7997 77.6999 62.5997 77.3999 62.5997C77.0999 62.5997 76.7999 62.6997 76.4999 62.7997C75.9999 62.8997 75.3999 62.8997 74.8999 62.7997C74.5999 62.7997 73.8999 62.7997 73.6999 62.5997C73.4999 62.2997 73.6999 61.6997 73.8999 61.4997C74.1999 61.0997 74.5999 60.9997 74.8999 60.8997Z" fill="#FCD4CA"/>
        <path d="M74.8999 60.8997C75.5999 60.6997 76.1999 60.4997 76.8999 60.0997C77.3999 59.7997 77.8999 59.4997 78.5999 59.5997C78.9999 59.6997 82.6999 61.2997 81.6999 61.9997C81.3999 62.1997 80.5999 61.7997 80.2999 61.6997C79.7999 61.4997 79.3999 61.2997 78.9999 61.0997C79.3999 61.0997 81.3999 61.8997 81.1999 62.3997C80.7999 63.1997 78.7999 62.0997 78.2999 61.8997C78.6999 61.9997 79.8999 62.3997 79.8999 62.8997C79.8999 63.5997 78.3999 62.9997 78.0999 62.8997C77.8999 62.7997 77.6999 62.5997 77.3999 62.5997C77.0999 62.5997 76.7999 62.6997 76.4999 62.7997C75.9999 62.8997 75.3999 62.8997 74.8999 62.7997C74.5999 62.7997 73.8999 62.7997 73.6999 62.5997C73.4999 62.2997 73.6999 61.6997 73.8999 61.4997C74.1999 61.0997 74.5999 60.9997 74.8999 60.8997Z" fill="#E8A393"/>
        <path d="M91.5 44.3999L93.7 45.2999L86 63.9999L83.7 62.7999L91.5 44.3999Z" fill="#110239"/>
        <path d="M69.8 62.3999H84.5V64.6999H69.8V62.3999Z" fill="#110239"/>
        <path d="M43.6999 51.7998C45.6999 50.6998 45.9999 49.3998 44.8999 45.2998C43.7999 41.1998 46.6999 36.8998 49.3999 35.7998C51.3999 34.9998 53.1999 34.5998 54.3999 32.3998C55.6999 30.1998 53.3999 25.5998 57.2999 22.1998C60.0999 19.6998 64.1999 21.6998 64.1999 21.6998C65.0999 21.1998 65.3999 26.2998 65.4999 30.1998C60.5999 37.6998 61.9999 47.5998 63.7999 55.9998C63.7999 56.1998 63.8999 56.3998 63.9999 56.5998C63.5999 63.0998 63.2999 68.4998 63.2999 68.4998C63.2999 68.4998 51.4999 75.1998 43.3999 69.4998C35.2999 63.7998 39.7999 53.9998 43.6999 51.7998Z" fill="#110239"/>
        <path d="M78.4999 99.3999L81.4999 101.1C81.4999 101.1 85.1999 110.6 84.4999 111.4C83.7999 112.2 76.1999 103.9 75.8999 102.6C75.6999 101.4 77.6999 99.8999 78.4999 99.3999Z" fill="#110239"/>
        <path d="M74.7 66.0999C74.7 66.0999 94 67.4999 95.8 69.1999C97.6 70.8999 81.2 101 81.2 101L78.5 99.4999C78.5 99.4999 82.6 85.1999 83.6 81.8999C84.7 78.4999 86.7 74.5999 86.4 73.9999C86 73.4999 66.6 76.3999 66.7 70.8999C66.8 65.4999 74.7 66.0999 74.7 66.0999Z" fill="#FCD4CA"/>
        <path d="M65.2 33.4999C65.2 33.4999 63.2 38.9999 64.4 43.0999L57.6 41.4999C57.6 41.4999 60.4 32.2999 61.6 30.6999C62.8 29.0999 65.2 33.4999 65.2 33.4999Z" fill="#FCD4CA"/>
        <path d="M62.4 38.5C60.2 38.5 59 40.1 58.9 41.9L57.6 41.6C57.6 41.6 60.4 32.4 61.6 30.8C62.8 29.2 65.2 33.6 65.2 33.6C65.2 33.6 64.3 36.1 64.1 39C63.6 38.7 63 38.5 62.4 38.5Z" fill="#E8A393"/>
        <path d="M65.9 26.2998C65.9 26.2998 68.5 27.5998 69.2 28.5998C69.8 29.6998 69.3 31.0998 69.3 32.0998C69.4 33.0998 69.6 34.4998 69.5 34.6998C69.4 34.8998 68.4 34.6998 68.2 34.8998C68 35.0998 66.8 35.8998 66.4 36.7998C66 37.6998 65.5 37.7998 64.6 37.2998C63.7 36.8998 60.2 32.1998 60.1 30.0998C60 27.9998 63.3 25.4998 65.9 26.2998Z" fill="#FCD4CA"/>
        <path d="M63.6999 23.3999C63.6999 23.3999 64.8999 25.8999 65.0999 26.7999C65.1999 27.7999 64.2999 30.5999 63.6999 30.9999C63.1999 31.3999 63.5999 27.7999 62.1999 28.8999C60.7999 29.9999 62.2999 32.0999 62.1999 32.4999C62.0999 32.8999 61.4999 34.2999 59.9999 34.3999C58.5999 34.4999 56.1999 27.3999 57.7999 25.5999C59.2999 23.8999 61.9999 23.3999 63.6999 23.3999Z" fill="#110239"/>
        <path d="M63.3999 21.9999C63.3999 21.9999 65.6999 20.2999 68.0999 22.1999C70.4999 24.0999 70.3999 27.0999 72.3999 26.7999C72.3999 26.7999 71.0999 30.1999 68.1999 29.3999C65.3999 28.5999 62.3999 23.9999 63.3999 21.9999Z" fill="#110239"/>
        <path d="M55.5 60.2L64.5 59.5C64.5 59.5 69.2 64.7 73.8 64.7C78.3 64.7 89.6 64.7 89.6 64.7C89.6 64.7 88.8 71.3 85 76.5C85 76.5 70 77.6 62.7 77C55.3 76.4 48.4 68.3 55.5 60.2Z" fill="#F45762"/>
        <path opacity="0.35" d="M54.7 61.1999C55 60.7999 55.2 60.4999 55.5 60.0999L64.5 59.3999C64.5 59.3999 69 64.4999 73.6 64.5999C68.1 65.2999 57.6 66.4999 54.7 61.1999Z" fill="#C9071E"/>
        <path opacity="0.35" d="M85.4 65.7997C83.1 65.5997 80.9 64.9997 78.7 64.6997H88.6C87.5 65.1997 87 65.8997 85.4 65.7997Z" fill="#C9071E"/>
        <path d="M58.5 38.3999C58.5 38.3999 62.6 39.9999 64 40.1999C64 40.1999 66.9 46.5999 68 48.2999C69.1 49.9999 65.1 56.5999 64.9 59.4999C64.9 59.4999 62.5 61.7999 55.2 60.3999C55.3 60.3999 53.4 42.4999 58.5 38.3999Z" fill="#0186CB"/>
        <path opacity="0.65" d="M57.4 42.1998C58.7 41.5998 60.8 42.1998 61.5 43.4998C62.3 45.0998 61.5 47.7998 61.6 49.4998C61.7 51.2998 61.7999 53.5998 62.2999 55.3998C62.6999 56.6998 63.5 58.3998 64.7 59.7998C63.8 60.3998 61.1 61.4998 55.4 60.3998C55.4 60.3998 54.2 49.4998 56.2 42.6998C56.6 42.5998 57.1 42.3998 57.4 42.1998Z" fill="#0056A3"/>
        <path d="M73.4999 60.8997C74.1999 60.6997 74.7999 60.4997 75.4999 60.0997C75.9999 59.7997 76.4999 59.4997 77.1999 59.5997C77.6999 59.6997 81.2999 61.1997 80.3999 61.8997C80.0999 62.0997 79.2999 61.6997 78.9999 61.5997C78.4999 61.3997 78.0999 61.1997 77.6999 60.9997C78.0999 60.9997 80.0999 61.7997 79.8999 62.2997C79.4999 63.0997 77.4999 61.9997 76.9999 61.7997C77.3999 61.8997 78.5999 62.2997 78.5999 62.7997C78.5999 63.4997 77.0999 62.8997 76.7999 62.7997C76.5999 62.6997 76.3999 62.4997 76.0999 62.4997C75.7999 62.4997 75.4999 62.5997 75.1999 62.6997C74.6999 62.7997 74.0999 62.7997 73.5999 62.6997C73.2999 62.6997 72.5999 62.6997 72.3999 62.4997C72.1999 62.1997 72.3999 61.5997 72.5999 61.3997C72.7999 61.0997 73.0999 60.9997 73.4999 60.8997Z" fill="#FCD4CA"/>
        <path d="M74.1 60.8997L73.3 63.8997C73.3 63.8997 53.9 61.5997 53.5 58.1997C53 54.7997 54.3 38.6997 59 40.3997C63.6 41.9997 59 53.5997 59.7 54.4997C60.4 55.3997 74.1 60.8997 74.1 60.8997Z" fill="#0186CB"/>
    </g>
    <defs>
        <clipPath id="clip0">
            <rect width="76.7" height="104.3" transform="matrix(-1 0 0 1 111.7 21)" fill="white"/>
        </clipPath>
    </defs>
</svg>
