<svg width="147" height="147" viewBox="0 0 147 147" fill="none" xmlns="http://www.w3.org/2000/svg">
    <path opacity="0.12" d="M73.5 147C32.907 147 0 114.093 0 73.5C0 32.9071 32.907 0 73.5 0C114.093 0 147 32.9071 147 73.5C147 114.093 114.093 147 73.5 147Z" fill="#FFAA62"/>
    <g clip-path="url(#clip0)">
        <path d="M130.652 72.3313C129.175 77.6119 123.611 80.6418 118.309 79.1701C113.007 77.6985 109.964 72.1582 111.442 66.8776C112.92 61.597 118.483 58.5672 123.785 60.0388C129.088 61.5104 132.13 67.0507 130.652 72.3313Z" fill="#FFD066"/>
        <path d="M128.827 71.8121C127.61 76.1405 123.09 78.6509 118.744 77.3524C114.398 76.1405 111.877 71.639 113.181 67.3106C114.398 62.9823 118.918 60.4718 123.264 61.7703C127.61 62.9823 130.131 67.4838 128.827 71.8121Z" fill="#FEAC1A"/>
        <path d="M121.265 65.3193C123.003 65.3193 124.568 65.8387 124.742 67.5701L121.873 67.8298C121.786 67.2238 121.091 67.1372 120.743 67.1372C120.482 67.1372 119.613 67.2238 119.7 67.7432C119.787 68.8686 124.915 67.1372 125.263 70.4268C125.437 72.4178 123.959 73.2835 122.134 73.6298L122.482 75.7074L120.743 75.8805L120.656 73.8029C118.918 73.8029 117.179 73.1104 117.005 71.379L119.874 71.1193V71.2059C119.961 71.985 120.83 72.0716 121.265 71.985C121.699 71.8984 122.568 71.8119 122.482 71.2924C122.395 70.0805 117.266 71.7253 116.918 68.5223C116.745 66.7044 118.048 65.8387 119.787 65.4924L119.439 63.4148L121.178 63.2417L121.265 65.3193Z" fill="#FFD066"/>
        <path d="M94.666 42.7254C93.1883 48.006 87.6252 51.0358 82.3228 49.5642C77.0205 48.0926 73.9782 42.5522 75.4559 37.2717C76.9336 31.9911 82.4967 28.9612 87.799 30.4328C93.1014 31.9045 96.1437 37.4448 94.666 42.7254Z" fill="#FFD066"/>
        <path d="M92.9275 42.2062C91.7106 46.5345 87.1906 49.045 82.8444 47.7465C78.4982 46.5345 75.9774 42.033 77.2813 37.7047C78.4982 33.3763 83.0182 30.8659 87.3644 32.1644C91.6237 33.3763 94.1444 37.8778 92.9275 42.2062Z" fill="#FEAC1A"/>
        <path d="M85.2781 35.6269C87.0166 35.6269 88.5812 36.1463 88.7551 37.8777L85.8866 38.1374C85.7997 37.5314 85.1043 37.4448 84.7566 37.4448C84.4958 37.4448 83.6266 37.5314 83.7135 38.0508C83.8004 39.1762 88.9289 37.4448 89.2766 40.7344C89.4505 42.7254 87.9728 43.5911 86.1474 43.9374L86.4951 46.015L84.7566 46.1881L84.6697 44.1971C82.9312 44.1971 81.1927 43.5045 81.0189 41.7732L83.8874 41.5135V41.6001C83.9743 42.3792 84.8435 42.4657 85.2781 42.3792C85.7127 42.2926 86.582 42.206 86.4951 41.6866C86.4081 40.4747 81.2796 42.1195 80.9319 38.9165C80.6712 37.012 82.062 36.1463 83.8004 35.8001L83.4527 33.7225L85.1912 33.5493L85.2781 35.6269Z" fill="#FFD066"/>
        <path d="M35.5578 69.7342C34.0801 75.0148 28.517 78.0446 23.2147 76.573C17.9123 75.1013 14.87 69.561 16.3477 64.2804C17.8254 58.9998 23.3885 55.97 28.6909 57.4416C34.0801 58.9133 37.1225 64.4536 35.5578 69.7342Z" fill="#FFD066"/>
        <path d="M33.8194 69.2149C32.6024 73.5433 28.0824 76.0538 23.7362 74.7552C19.39 73.5433 16.8692 69.0418 18.1731 64.7135C19.39 60.3851 23.9101 57.8746 28.2562 59.1732C32.6024 60.4717 35.0363 64.9732 33.8194 69.2149Z" fill="#FEAC1A"/>
        <path d="M26.257 62.7221C27.9955 62.7221 29.5601 63.2415 29.734 64.9729L26.8655 65.2326C26.7786 64.6266 26.0832 64.5401 25.7355 64.5401C25.4747 64.5401 24.6055 64.6266 24.6924 65.146C24.7793 66.2714 29.9078 64.5401 30.2555 67.8296C30.4294 69.8207 28.9516 70.6863 27.1263 71.0326L27.4739 73.1102L25.7355 73.2833L25.5616 71.2057C23.8232 71.2057 22.0847 70.5132 21.9108 68.7818L24.7793 68.5221V68.6087C24.8662 69.3878 25.7355 69.4744 26.1701 69.3878C26.6047 69.3012 27.4739 69.2147 27.387 68.6953C27.3001 67.4833 22.1716 69.1281 21.8239 65.9251C21.6501 64.1072 22.9539 63.2415 24.6924 62.8953L24.3447 60.8177L26.0832 60.6445L26.257 62.7221Z" fill="#FFD066"/>
        <path d="M80.3235 114.836H64.3296L65.6334 95.7046H79.0197L80.3235 114.836Z" fill="#EBEBEB"/>
        <path d="M79.6281 105.4L78.9328 95.7046H65.6334L64.4165 112.931C69.545 110.94 75.282 108.863 79.6281 105.4Z" fill="#C8C8C8"/>
        <path d="M82.4098 111.806C82.236 111.546 81.8883 111.373 81.5406 111.373H72.6744H71.979H63.1128C62.7651 111.373 62.4174 111.546 62.2435 111.806L59.8097 115.355C59.375 116.048 59.8097 117 60.6789 117H71.8921H72.5874H83.8006C84.6698 117 85.1044 116.048 84.6698 115.355L82.4098 111.806Z" fill="#EBEBEB"/>
        <path d="M111.442 100.812H33.2979C30.7771 100.812 28.7778 98.8208 28.7778 96.3103V47.1402C28.7778 44.6297 30.7771 42.6387 33.2979 42.6387H111.442C113.963 42.6387 115.962 44.6297 115.962 47.1402V96.3103C115.875 98.8208 113.876 100.812 111.442 100.812Z" fill="#EBEBEB"/>
        <path d="M111.877 46.5342H32.7764V96.3969H111.877V46.5342Z" fill="white"/>
        <path d="M78.9329 64.367L96.1437 49.3909L104.662 56.3163L116.484 45.9282L112.92 41.6864L127.871 36.6655L122.308 51.5551L118.309 48.2655L105.01 65.2327L95.7091 55.8834L85.1044 70.6864L78.9329 64.367Z" fill="#09C9CE"/>
        <path d="M44.511 96.3971H93.1013C93.1013 96.3971 99.9682 91.1165 101.359 85.8359H106.053V75.015H101.533C101.533 75.015 98.2298 62.2031 85.0174 59.9523C71.8919 57.7016 50.9433 57.615 41.9032 71.6389C32.3416 86.5284 44.511 96.3971 44.511 96.3971Z" fill="#F45762"/>
        <path opacity="0.35" d="M90.2328 86.7013C81.3666 88.3461 69.0234 87.9998 61.4611 85.4894C54.0726 82.9789 47.5533 80.7282 45.554 72.5909C45.1194 70.9461 45.1194 69.2147 45.2933 67.4834C43.9894 68.6953 42.8594 70.0804 41.9032 71.6386C32.3416 86.5282 44.511 96.3103 44.511 96.3103H93.1013C93.1013 96.3103 99.9682 91.0297 101.359 85.7491H106.053V77.0924C102.228 81.9401 95.8828 85.6625 90.2328 86.7013Z" fill="#C9071E"/>
        <path d="M88.0598 61.2509C88.0598 61.2509 93.536 55.7106 94.0575 55.9703C94.5791 56.23 96.3176 60.7315 94.9268 65.4061L88.0598 61.2509Z" fill="#F45762"/>
        <path d="M86.9298 60.6449C86.9298 60.6449 81.4536 55.1046 80.9321 55.3643C79.9759 55.8837 78.6721 60.1255 80.0628 64.8001L86.9298 60.6449Z" fill="#F45762"/>
        <path d="M72.9351 64.5405C71.9789 63.9345 70.8489 63.5882 69.7189 63.4151C68.5889 63.1554 64.9381 62.8091 62.3304 63.242C59.2011 63.7614 54.5942 65.233 53.0295 66.7912C53.0295 66.7912 52.3342 67.7435 53.4642 68.9554C54.5942 70.2539 55.985 69.2151 56.7673 68.8688C57.2019 68.6957 58.5057 68.1763 59.9834 67.7434C61.8088 67.1375 63.6342 66.9643 65.5466 67.0509C67.285 67.1375 69.4581 67.3106 69.8927 67.3972C70.762 67.5703 72.3266 68.2629 73.1089 66.7912C73.8043 65.3196 72.9351 64.5405 72.9351 64.5405Z" fill="#110239"/>
        <path d="M60.7656 65.5792C64.2425 64.7135 67.6326 65.1463 71.1095 65.1463C71.5441 64.2807 71.8918 63.2419 72.0657 62.2031C72.848 56.7493 69.1103 51.7284 63.6341 50.8628C58.1579 50.0837 53.1163 53.8061 52.2471 59.2598C51.7255 62.5493 52.9425 65.5792 55.1156 67.7434C56.941 66.8777 58.7664 66.0986 60.7656 65.5792Z" fill="#FFD066"/>
        <path d="M56.941 66.8776C58.1579 66.3581 59.3748 65.8387 60.7656 65.4925C63.5472 64.7999 66.2418 64.8865 69.0234 64.9731C69.6318 64.0208 70.0664 62.982 70.2403 61.8567C70.9357 57.4417 67.8064 53.2865 63.3733 52.594C58.9402 51.9014 54.7679 55.0179 54.0725 59.4328C53.7248 62.3761 54.8548 65.1462 56.941 66.8776Z" fill="#FEAC1A"/>
        <path d="M63.808 62.1162C63.9818 62.6356 63.1126 62.8953 62.678 62.9819C62.2434 63.0685 61.3741 63.155 61.2003 62.3759V62.2894L58.4187 62.9819C58.8533 64.7133 60.5918 65.1461 62.4172 64.8864L62.5041 65.1461C63.0257 65.0595 63.5472 64.973 64.0687 64.973L63.808 64.6267C65.6334 64.0207 66.9372 62.9819 66.5026 61.0774C65.7203 57.8744 60.9395 60.2118 60.6787 59.0864C60.5918 58.567 61.3741 58.3939 61.6349 58.3073C62.0695 58.2207 62.678 58.2207 62.8518 58.8267L65.6334 58.1341C65.1988 56.4894 63.5472 56.1431 61.8957 56.4028L61.548 54.3252L59.8964 54.758L60.5049 56.7491C58.8533 57.2685 57.5495 58.3073 57.9841 60.1252C58.6795 63.2416 63.4603 60.9909 63.808 62.1162Z" fill="#FFD066"/>
        <path d="M92.9276 72.5908C92.3191 73.9759 90.9283 74.9282 89.2768 74.9282C87.7122 74.9282 86.3214 74.0625 85.7129 72.6774C85.2783 71.8117 83.4529 72.6774 86.1475 75.7073C88.2337 78.1311 92.2322 77.6983 93.536 74.8416C93.7968 74.3222 93.8837 73.6296 93.8837 73.0237C93.8837 72.2446 93.1883 72.0714 92.9276 72.5908Z" fill="#110239"/>
    </g>
    <defs>
        <clipPath id="clip0">
            <rect x="16" y="30" width="115" height="87" fill="white"/>
        </clipPath>
    </defs>
</svg>
