<svg width="147" height="147" viewBox="0 0 147 147" fill="none" xmlns="http://www.w3.org/2000/svg">
    <path opacity="0.12" d="M73.5 147C32.907 147 0 114.093 0 73.5C0 32.9071 32.907 0 73.5 0C114.093 0 147 32.9071 147 73.5C147 114.093 114.093 147 73.5 147Z" fill="#FFAA62"/>
    <g clip-path="url(#clip0)">
        <path d="M83.3529 58.7853C95.5525 52.6808 100.493 37.8424 94.3889 25.6429C88.2844 13.4433 73.446 8.50237 61.2464 14.6069C49.0469 20.7114 44.1059 35.5498 50.2105 47.7494C56.315 59.9489 71.1534 64.8899 83.3529 58.7853Z" fill="#FFD066"/>
        <path d="M85.8039 51.7209C94.1018 44.263 94.7828 31.4904 87.3249 23.1924C79.8671 14.8945 67.0944 14.2135 58.7965 21.6713C50.4985 29.1292 49.8175 41.9019 57.2754 50.1998C64.7333 58.4978 77.5059 59.1788 85.8039 51.7209Z" fill="#FEAC1A"/>
        <path d="M73.3001 26.1C77.5001 26.2 81.5001 27.8 81.7001 32L74.7001 32.4C74.6001 30.8 72.9001 30.6 71.9001 30.6C71.3001 30.6 69.2001 30.8 69.2001 32C69.4001 34.9 82.1001 31.2 82.6001 39.3C82.9001 44.2 79.1001 46.2 74.4001 46.8L75.0001 52L70.7001 52.2001V46.9001C66.3001 46.7001 62.1001 44.9 61.9001 40.5L68.9001 40.1V40.3C69.0001 42.2 71.2001 42.5 72.3001 42.4C73.4001 42.3 75.4001 42.2001 75.4001 40.7001C75.2001 37.7001 62.4001 41.2 62.0001 33.3C61.7001 28.7 65.2001 26.8 69.5001 26.2L68.9001 21L73.2001 20.8L73.3001 26.1Z" fill="#FFD066"/>
        <path d="M92.9 57.1001C93.6 55.3001 93.6 53.1001 94 51.2001C94.2 50.0001 94.1999 49.1001 93.5999 48.1001C93.0999 47.4001 91.6999 45.7001 91.2999 46.4001C90.9999 46.9001 92.5 48.8001 92.7 49.3001C92.4 48.7001 90.9 45.9001 90 46.5001C89.2 47.0001 91.4999 49.4001 91.5999 50.1001C91.0999 49.3001 89.9 47.6001 89.2999 47.9001C88.7999 48.5001 90.2 50.0001 90.7 51.0001C90.4 50.6001 89 49.0001 88.7 49.8001C88.5 50.6001 90 51.9001 90.2 52.8001C90.4 53.9001 90.4 55.6001 90 56.8001C89.9 57.5001 92.5 58.1001 92.9 57.1001Z" fill="#FCD4CA"/>
        <path d="M52.9002 59.3999C52.2002 57.5999 52.2002 55.3999 51.8002 53.4999C51.6002 52.2999 51.5002 51.3999 52.2002 50.3999C52.6002 49.6999 54.1002 47.9999 54.5002 48.6999C54.8002 49.1999 53.3002 51.0999 53.1002 51.5999C53.4002 50.9999 54.9002 48.1999 55.8002 48.7999C56.6002 49.2999 54.3002 51.6999 54.2002 52.3999C54.7002 51.4999 55.9002 49.8999 56.4002 50.1999C56.9002 50.7999 55.5002 52.3999 55.0002 53.2999C55.3002 52.7999 56.7002 51.1999 56.9002 52.0999C57.1002 52.8999 55.6002 54.1999 55.4002 55.0999C55.2002 56.1999 55.2002 57.8999 55.6002 59.0999C55.9002 59.7999 53.3002 60.3999 52.9002 59.3999Z" fill="#FCD4CA"/>
        <path d="M75.7001 66.1001C75.1001 66.6001 74.3001 67.1001 73.5001 67.4001C73.0001 67.6001 72.3001 67.8001 71.6001 67.9001C71.4001 69.1001 71.0001 71.3001 70.4001 72.1001C70.4001 72.1001 70.3001 73.6001 73.1001 73.2001C76.0001 72.8001 75.4001 71.7001 75.4001 71.7001C75.4001 71.7001 75.2001 68.2001 75.7001 66.1001Z" fill="#FCD4CA"/>
        <path d="M72.3001 73.2001C72.3001 73.1001 72.3001 73.0001 72.3001 72.9001C72.3001 72.5001 72.3001 72.2001 72.4001 71.8001C72.7001 70.7001 73.7001 69.9001 74.8001 69.8001C75.0001 69.8001 75.1001 69.8001 75.3001 69.8001C75.3001 68.6001 75.4001 67.2001 75.7001 66.1001C75.1001 66.6001 74.3001 67.1001 73.5001 67.4001C73.0001 67.6001 72.3001 67.8001 71.6001 67.9001C71.4001 69.1001 71.0001 71.3001 70.4001 72.1001C70.3001 72.1001 70.2001 73.4001 72.3001 73.2001C72.3001 73.3001 72.3001 73.3001 72.3001 73.2001Z" fill="#E8A393"/>
        <path d="M54.5 126.2C54.5 126.2 55 128.2 55 129.5C55 130.9 54.5 131.7 54.1 132C53.3 132.7 43.3 133.7 42.4 132.7C41.5 131.7 42.1 130.1 44.4 129.6C46.8 129 47.2 128.7 48.7 128.1C50.2 127.5 50.5 125.5 50.5 125.5L54.5 126.2Z" fill="#110239"/>
        <path d="M99.4001 115.4C99.4001 115.4 101.9 115.1 103.1 115.8C104.3 116.4 104.8 117.2 104.9 117.8C105.1 118.9 101.5 128.2 100.2 128.6C98.9001 128.9 97.8001 127.7 98.3001 125.4C98.9001 123 98.7001 122.5 98.9001 120.9C99.1001 119.3 97.6001 118.9 97.6001 118.9L99.4001 115.4Z" fill="#110239"/>
        <path d="M78 93H68.2C68.2 93 54.6 103.2 52.8 105.6C51.7 107.1 49.7 126.7 49.7 126.7L55.3 127.2C55.3 127.2 58 109.8 58.9 108.4C59.8 107 78 101.5 78 101.5C78 101.5 80.2999 98.7 78 93Z" fill="#0186CB"/>
        <path opacity="0.65" d="M78 93H68.5C68.4 93 68.5 98.5 67.6 100.8C66.6 103.4 63.6 106.1 63.2 106.3C67.2 104.8 78.0999 101.4 78.0999 101.4C78.0999 101.4 80.2999 98.7 78 93Z" fill="#0056A3"/>
        <path d="M81.6001 92.6001L68.1001 93.4001C68.1001 93.4001 79.1001 114 80.4001 115.1C81.7001 116.2 98.7001 120.3 98.7001 120.3L100.1 114.9C100.1 114.9 86.9001 111.3 85.8001 110.4C85.2001 109.9 82.4001 103 82.5001 99.3001C82.8001 95.1001 82.3001 93.2001 81.6001 92.6001Z" fill="#0186CB"/>
        <path d="M75 71.6999C75 71.6999 72.5 73.2999 70.4 72.0999C70.4 72.0999 69.4 72.6999 67.1 72.5999C64.8 72.4999 59.8 68.8999 59.3 67.9999C58.7 67.0999 55.6 56.2999 55.6 56.2999L52 56.7999C52 56.7999 54.4 71.1999 55.1 72.5999C55.8 73.8999 63 79.0999 66.5 80.6999C67 80.8999 67.3 81.3999 67.3 81.8999C67.1 84.2999 66.2 90.8999 65.4 94.0999C65.4 94.0999 71.6 98.3999 83.3 94.7999C83.3 94.7999 83.2 86.6999 81.9 80.2999C81.7 79.1999 82 77.9999 82.9 77.0999C85.3 74.6999 89.9 69.9999 90.5 69.4999C91.3 68.7999 93.8 56.0999 93.8 56.0999L90.1 55.8999C90.1 55.8999 86.6 65.3999 86.1 65.9999C85.6 66.6999 79.9 71.8999 79.4 72.1999C78.7 72.3999 76.6 71.6999 75 71.6999Z" fill="#F45762"/>
        <path opacity="0.35" d="M82.7999 69.3001C85.8999 68.0001 87.7999 66.6001 88.2999 62.9001C88.4999 61.1001 89.9999 57.8001 89.7999 56.1001C89.1999 57.6001 86.3 65.3001 85.9 65.9001C85.6 66.3001 83.9 67.9001 82.2 69.4001C82.4 69.4001 82.5999 69.3001 82.7999 69.3001Z" fill="#C9071E"/>
        <path opacity="0.35" d="M75.3 96.2C76.1 96.2 78.3 89.1 78.5 88C78.7 87 79.7 80.1 79.8 79.1C79.9 78.1 80.2001 77.7 80.9001 77C82.8001 75.3 84.9 73.8 87 72.3C87.2 72.1 87.5001 72.1 87.7001 72C86.7001 73 85.5 74.2 84.5 75.2C84.4 75.3 84.4 75.3 84.3 75.4C84.3 75.4 84.3001 75.4 84.2001 75.5C84.0001 75.8 83.7 76 83.5 76.2C83.4 76.3 83.3 76.4 83.3 76.4C83.1 76.6 82.8 76.9 82.6 77.1C81.8 77.9 81.4 79.1 81.6 80.3C82.9 86.7 83 94.8 83 94.8C80.2 95.7 77.6 96.1 75.3 96.2Z" fill="#C9071E"/>
        <path opacity="0.35" d="M55 68.3999C56.8 72.4999 59.9 75.4999 64 77.2999C66.9 78.5999 67.5 78.6999 67.8 79.0999C67.7 81.0999 67.2 83.1999 66.8 85.2999C67 83.8999 67.1 82.6999 67.2 81.8999C67.2 81.3999 66.9 80.8999 66.4 80.5999C62.9 78.9999 55.7 73.7999 55 72.4999C54.6 71.7999 53.9 67.6999 53.2 63.8999C53.8 65.4999 54.4 66.9999 55 68.3999Z" fill="#C9071E"/>
        <path d="M76.2001 60.7001C76.2001 60.7001 71.5001 58.4001 70.3001 59.5001C69.1001 60.6001 69.1001 63.5001 68.9001 63.8001C68.7001 64.1001 67.6001 65.3001 67.5001 65.5001C67.4001 65.8001 68.7001 66.1001 68.7001 66.3001C68.8001 66.5001 69.0001 68.8001 69.8001 69.2001C70.6001 69.6001 75.2001 69.1001 76.5001 66.7001C77.9001 64.2001 77.9001 61.6001 76.2001 60.7001Z" fill="#FCD4CA"/>
        <path d="M77.2001 58.3999L74.3001 59.7999C74.3001 59.7999 73.6001 63.6999 73.6001 65.2999C73.6001 66.8999 74.5001 65.4999 74.6001 64.5999C74.7001 63.6999 75.4001 63.5999 75.9001 64.0999C76.4001 64.4999 76.0001 65.5999 74.9001 66.0999C74.9001 66.0999 74.2001 67.3999 74.7001 68.4999C74.7001 68.4999 76.6001 68.0999 77.8001 65.6999C79.0001 63.3999 79.5001 60.2999 77.2001 58.3999Z" fill="#110239"/>
        <path d="M76.5 57.1C75.8 56.6 74.6 56.4 73.8 56.3C72.9 56.2 71.7 56.8 71.1 57.5C70.5 58.1 70 58.5 69.1 58.6C68.5 58.7 68.2 58.7 67.8 58.3C67.6 58.8 67.7 59.8 68.1 60.6C68.4 61 68.6 61.4 69 61.7C70.5 62.6 72.1 62.5 72.5 62.5C73.3 62.5 74.1 62.5 74.9 62.3C75.7 62 78.3 60 78.3 59.5C78.1 58.6 77.1 57.6 76.5 57.1Z" fill="#110239"/>
    </g>
    <defs>
        <clipPath id="clip0">
            <rect x="42" y="12" width="63" height="121.2" fill="white"/>
        </clipPath>
    </defs>
</svg>
