<svg width="147" height="147" viewBox="0 0 147 147" fill="none" xmlns="http://www.w3.org/2000/svg">
    <path opacity="0.12" d="M73.5 147C32.907 147 0 114.093 0 73.5C0 32.9071 32.907 0 73.5 0C114.093 0 147 32.9071 147 73.5C147 114.093 114.093 147 73.5 147Z" fill="#FFAA62"/>
    <g clip-path="url(#clip0)">
        <path d="M63.9829 66.2857H63.8948C63.6305 66.3726 63.278 66.3726 62.9255 66.3726C62.3087 66.3726 61.6919 66.1118 61.075 66.0249C60.8988 66.0249 60.6344 66.0249 60.4582 65.938C60.1057 65.938 58.6958 66.1118 58.3433 66.1988C57.6384 66.3726 57.5503 66.3726 56.7572 66.5464C56.4047 66.6333 55.9641 66.981 55.6117 67.0679C55.0829 67.2418 54.9948 67.9371 55.3473 67.9371C55.6117 67.9371 55.6117 67.9371 55.876 67.7633C56.1404 67.5894 57.0216 67.2418 57.0216 67.2418C56.7572 67.3287 56.0523 67.5894 55.876 67.7633C55.6117 67.9371 55.3473 68.024 55.1711 68.3717C55.0829 68.4586 54.9948 68.5455 54.9948 68.6324C54.9948 68.8062 54.9948 68.8932 55.0829 68.9801C55.2592 69.1539 55.4354 69.067 55.6117 69.067C56.0523 68.9801 56.4047 68.6324 56.7572 68.4586C57.1097 68.2847 57.2859 67.9371 57.6384 67.7633C57.1097 68.024 56.581 68.5455 56.1404 68.8932C55.9641 69.067 55.6117 69.3277 55.4354 69.4147C55.1711 69.5885 55.083 70.0231 55.4354 70.2838C55.7879 70.4576 56.3166 70.11 56.4928 69.9362C56.7572 69.6754 57.1978 69.4147 57.4622 69.1539C57.5503 69.067 57.7265 68.8932 57.8146 68.8062C58.079 68.6324 58.2552 68.3717 58.5196 68.1978C58.5196 68.1978 57.374 69.1539 56.9334 69.6754C56.7572 69.9362 56.4047 70.2838 56.6691 70.5446C57.0216 71.0661 57.5503 70.6315 57.8146 70.3707C58.1671 70.11 58.5196 69.8492 58.7839 69.5885C59.2245 69.1539 59.8414 68.7193 60.3701 68.3717C60.6344 68.1978 60.9869 68.2847 61.3394 68.1978C61.1631 68.3717 60.8988 68.3717 60.8107 68.5455C60.6344 68.7193 60.4582 68.8932 60.1938 69.067C59.9295 69.2408 59.6651 69.5016 59.577 69.7623C59.4889 70.0231 59.4889 70.3707 59.8414 70.4576C60.3701 70.5446 60.8107 70.1969 61.1631 69.8492C61.6037 69.5016 62.0443 69.067 62.573 69.067C62.8374 69.067 63.0136 69.067 63.278 69.067C63.8948 69.067 64.4235 69.1539 65.0404 69.067C65.481 68.9801 65.8334 68.8062 66.0097 68.3717C66.1859 68.024 66.3622 67.7633 66.4503 67.4156C66.4503 67.3287 66.8028 66.3726 66.8909 66.3726C66.1859 66.1118 65.5691 65.5904 64.9523 65.3296C64.6879 65.1558 64.5117 65.5034 64.3354 65.6773C64.4235 66.0249 64.1592 66.1988 63.9829 66.2857Z" fill="#FCD4CA"/>
        <path d="M63.8949 65.2431L66.2741 69.3281C66.2741 69.3281 77.2008 64.7216 79.4919 62.6356C81.783 60.5496 84.0741 55.2477 84.8672 49.9459C85.3078 46.8169 81.783 46.6431 81.783 46.6431C79.7563 49.772 75.879 58.2029 75.4384 58.8113C74.9979 59.3328 63.8949 65.2431 63.8949 65.2431Z" fill="#BBEADB"/>
        <path d="M95.1771 110.265C95.1771 110.265 95.7939 112.09 95.7939 113.481C95.7939 114.872 95.7058 116.349 95.2652 116.697C94.384 117.392 83.2811 117.479 82.3999 116.523C81.5187 115.48 82.1355 113.916 84.4266 113.307C86.9821 112.699 88.1276 113.394 89.7137 112.786C91.2999 112.177 90.0662 110.004 90.0662 110.004L95.1771 110.265Z" fill="#110239"/>
        <path d="M106.016 116.176C106.897 115.915 107.866 115.741 108.747 115.741C109.452 115.741 110.51 115.741 111.039 115.22C111.479 114.698 111.479 114.003 111.127 113.395C111.127 113.308 110.51 112.352 110.422 112.352L114.828 110.526C114.828 110.526 118.264 114.611 118 115.654C117.912 115.915 117.031 116.697 116.149 117.567C114.651 118.957 112.625 119.739 110.598 119.913C107.602 120.087 104.694 120 104.165 119.566C103.196 118.61 103.725 116.871 106.016 116.176Z" fill="#110239"/>
        <path d="M103.725 64.8081C103.725 64.8081 109.276 68.1109 108.395 74.7165C107.514 81.3221 105.663 89.753 106.104 91.4913C106.545 93.2296 116.414 110.96 116.414 110.96L110.862 114.003C110.862 114.003 99.2306 95.3156 98.6138 93.3165C97.997 91.3175 97.8207 79.41 97.8207 79.41C97.8207 79.41 90.9475 90.796 90.595 92.3604C90.2425 93.9249 96.0584 110.96 96.0584 110.96L90.1544 112.003C90.1544 112.003 82.1356 94.4464 82.6643 91.5782C82.9287 89.753 89.8901 72.0221 89.8901 72.0221L103.725 64.8081Z" fill="#0186CB"/>
        <path opacity="0.65" d="M90.595 92.1001C90.4188 91.8393 92.1812 84.2776 92.9743 83.1477C93.503 82.3655 95.5297 78.715 96.1465 77.5851C96.9396 76.1945 95.4416 72.2832 95.1772 70.6318C95.3535 70.5449 95.5297 70.458 95.7059 70.3711C96.3228 73.5001 97.7327 79.4103 97.7327 79.4103C96.5871 81.5832 91.3881 90.0141 90.595 92.1001Z" fill="#0056A3"/>
        <path d="M85.1315 39.168C85.1315 39.168 87.2464 43.6876 88.9207 44.5568C88.9207 44.5568 86.982 48.0334 82.5761 46.8166C82.5761 46.8166 82.7523 45.0782 81.2543 41.167C81.2543 41.167 84.1622 40.3848 85.1315 39.168Z" fill="#FCD4CA"/>
        <path d="M82.2236 43.7745H82.1355C81.9593 43.0792 81.6949 42.21 81.2543 41.167C81.2543 41.167 84.1622 40.3848 85.1315 39.168C85.1315 39.168 87.2464 43.6876 88.9207 44.5568C88.9207 44.5568 88.1276 45.9474 86.3652 46.6427C85.8365 44.9913 84.1622 43.7745 82.2236 43.7745Z" fill="#E8A393"/>
        <path d="M78.6989 30.5635C78.6989 30.5635 75.7028 31.7803 75.791 33.171C75.8791 34.4747 75.7028 34.3009 75.9672 35.1701C76.2315 36.0392 76.4078 36.7345 76.2315 37.7775C76.0553 38.9074 76.1434 39.4289 77.289 39.1682C77.289 39.1682 77.6414 38.9944 77.6414 39.4289C77.6414 39.8635 77.4652 42.5579 79.7563 42.6448C82.0474 42.7317 85.6603 39.2551 85.484 37.7775C85.3078 36.3 84.8672 32.9102 83.2811 31.3458C81.6068 29.7813 79.4919 30.2159 78.6989 30.5635Z" fill="#FCD4CA"/>
        <path d="M82.1355 29.5203C82.1355 29.5203 78.787 35.6914 73.8523 32.9101C73.8523 32.9101 73.8523 30.3026 76.2315 28.7381C78.6107 27.1736 81.783 28.3904 82.1355 29.5203Z" fill="#110239"/>
        <path d="M77.5533 39.1682C80.6375 38.299 81.0781 36.9953 81.0781 34.4747C81.0781 31.9542 80.285 31.7803 80.285 31.7803C78.4345 31.1719 78.3464 30.2158 78.3464 30.2158C76.9365 26.4785 85.3959 26.0439 85.5721 28.5644C85.7484 31.085 85.3959 30.2158 87.4226 32.128C89.4494 34.0401 88.48 35.8654 87.5989 36.9084C86.7177 37.9514 88.3919 37.7775 88.48 39.5158C88.5682 40.8196 87.7751 41.3411 86.6296 41.6887C86.4533 41.7757 85.7484 40.0373 85.3959 39.4289C85.3078 39.7766 83.986 41.7757 83.1048 42.471C81.0781 44.0355 78.6107 43.7747 77.9939 42.471C77.2008 41.2542 77.5533 39.1682 77.5533 39.1682Z" fill="#110239"/>
        <path d="M29.0114 95.0993C27.8409 81.0825 38.4123 68.7837 52.6231 67.6292C66.834 66.4747 79.303 76.9017 80.4735 90.9186C81.6439 104.935 71.0726 117.234 56.8617 118.389C42.6509 119.543 30.1819 109.116 29.0114 95.0993Z" fill="#FFD066"/>
        <path d="M54.7306 113.829C43.0993 113.829 33.6702 104.529 33.6702 93.0561C33.6702 81.5835 43.0993 72.2832 54.7306 72.2832C66.362 72.2832 75.791 81.5835 75.791 93.0561C75.791 104.529 66.362 113.829 54.7306 113.829Z" fill="#FEAC1A"/>
        <path d="M57.2861 82.3658C53.0564 81.0621 48.6505 81.3228 46.9762 85.4079L53.7613 88.1023C54.3782 86.6247 56.1406 86.8855 57.1099 87.32C57.7267 87.5808 59.7534 88.363 59.2247 89.5798C58.0792 92.3612 46.7118 84.5387 43.5396 92.3612C41.6009 97.0546 44.6851 100.27 49.091 102.356L46.8 107.224L51.0297 108.788L52.792 103.66C57.198 104.877 61.9564 104.529 63.6307 100.271L56.8455 97.5761L56.7574 97.7499C55.9643 99.5752 53.7613 99.1406 52.6158 98.706C51.5584 98.2714 49.6198 97.4023 50.1485 96.0985C51.294 93.2303 62.8376 100.792 65.9217 93.2303C67.6841 88.8845 64.9524 85.8425 60.8109 83.8434L63.1019 78.8892L58.9604 77.2378L57.2861 82.3658Z" fill="#FFD066"/>
        <path d="M68.5653 69.5886C68.3891 69.6755 68.301 69.7625 68.1247 69.7625C67.8604 69.8494 67.5079 69.9363 67.2436 70.0232C66.9792 70.0232 66.7148 70.0232 66.3624 70.0232C65.9218 70.0232 65.4812 70.0232 65.1287 69.9363C64.2475 69.7625 63.4544 69.5017 62.5733 69.5017C62.4851 69.5017 62.4851 69.5017 62.397 69.5017C61.2515 69.5017 60.1941 69.6755 59.2247 70.0232C58.696 70.197 57.903 70.4578 57.9911 71.0662C57.9911 71.327 58.2554 71.4139 58.5198 71.4139C58.9604 71.4139 59.5772 71.24 60.0178 71.0662C60.5465 70.8924 61.5158 70.3709 61.5158 70.3709C61.5158 70.3709 60.5465 70.7185 60.1941 70.9793C59.9297 71.1531 59.7535 71.24 59.5772 71.4139C59.3129 71.5877 58.8723 71.7615 58.7842 72.1092C58.696 72.3699 58.696 72.6307 59.0485 72.8045C59.4891 72.9784 60.1941 72.6307 60.5465 72.3699C60.899 72.1961 62.3089 71.24 62.7495 71.0662C62.3089 71.24 61.0752 72.1092 60.899 72.283C60.6346 72.4569 60.3703 72.6307 60.1941 72.8914C60.0178 73.1522 60.1059 73.5868 60.4584 73.6737C60.8109 73.7606 61.1634 73.6737 61.4277 73.5868C61.9564 73.4129 62.4851 73.1522 62.9257 72.8045C63.3663 72.5438 63.8069 72.1092 64.2475 71.9354C63.9832 72.0223 63.4544 72.3699 63.1901 72.5438C62.6614 72.8914 62.1327 73.2391 62.0445 73.4998C61.8683 73.7606 61.9564 74.2821 62.4851 74.2821C62.7495 74.2821 63.102 74.1952 63.2782 74.1083C63.5426 73.9344 63.895 73.8475 64.1594 73.6737C64.6881 73.4129 64.9525 72.9784 65.5693 72.9784C66.0099 72.9784 66.4505 73.0653 66.8911 73.2391C67.1554 73.326 67.4198 73.4998 67.7723 73.5868C67.9485 73.5868 68.0366 73.6737 68.2129 73.6737C69.1822 73.8475 70.2396 73.4998 70.8564 72.8045C71.0327 72.6307 71.2089 72.3699 71.3851 72.1092C71.5614 71.9354 72.002 71.5877 72.0901 71.4139C72.0901 71.24 71.6495 70.8924 71.5614 70.7185C71.297 70.4578 71.1208 70.197 70.9445 69.9363C70.6802 69.5886 70.5039 69.3279 70.1515 69.0671C69.9752 68.9802 70.0634 68.9802 69.799 69.0671C69.7109 69.1541 69.5346 69.1541 69.4465 69.241C69.1822 69.1541 68.9178 69.4148 68.5653 69.5886Z" fill="#FCD4CA"/>
        <path d="M82.488 45.6001C82.488 45.6001 86.5415 48.1207 87.7751 43.6011C87.7751 43.6011 91.2118 43.7749 95.6177 49.7721C100.024 55.7693 102.05 58.7244 106.633 66.1123C105.928 66.8945 98.2613 74.8039 89.185 72.7179C89.185 72.7179 88.3039 70.7188 87.8633 69.8497C86.189 65.9385 81.6068 55.1609 81.0781 51.945C80.3732 47.4254 82.488 45.6001 82.488 45.6001Z" fill="#BBEADB"/>
        <path d="M85.2197 57.4207C84.7791 55.3347 86.0128 44.3833 89.89 47.0777C92.093 48.6421 92.5336 52.2926 91.8286 55.6823C91.0356 59.9412 89.9781 63.9393 87.8633 69.502C86.9821 67.5029 85.4841 64.0263 84.1623 60.7235C84.9554 60.0281 85.4841 58.8982 85.2197 57.4207Z" fill="#83CCC3"/>
        <path d="M67.9485 69.241L70.3277 73.5868C70.3277 73.5868 83.9861 68.198 86.2772 66.112C88.5683 64.0261 94.0316 47.6859 88.6564 45.9475C83.2811 44.2092 81.9594 61.3317 80.7257 62.3747C79.6683 63.4176 67.9485 69.241 67.9485 69.241Z" fill="#BBEADB"/>
    </g>
    <defs>
        <clipPath id="clip0">
            <rect width="89" height="93" transform="matrix(-1 0 0 1 118 27)" fill="white"/>
        </clipPath>
    </defs>
</svg>
