<svg width="147" height="147" viewBox="0 0 147 147" fill="none" xmlns="http://www.w3.org/2000/svg">
    <path opacity="0.12" d="M73.5 147C32.907 147 0 114.093 0 73.5C0 32.9071 32.907 0 73.5 0C114.093 0 147 32.9071 147 73.5C147 114.093 114.093 147 73.5 147Z" fill="#FFAA62"/>
    <g clip-path="url(#clip0)">
        <path d="M80.1 42.2C91 56.2 88.2 53.2999 90.2 55.0999C92.2 56.8999 105.5 64.5999 105.5 64.5999L104 71.2C104 71.2 87.8 62 85.8 60.2999C83.8 58.5999 76 50.2 76 50.2L80.1 42.2Z" fill="#0186CB"/>
        <path opacity="0.65" d="M99 61.8C98.2 62.3 97.2 62.5001 96.2 61.9001C93.9 60.7001 91.7 59.5 89.7 58.1C88.5 57.4 87.3 56.5 86.2 55.5C84.3 53.7 82.4 51.8 80.8 49.8C79.9 48.7 78.8 47.8 77.8 46.8L76 50.3C76 50.3 83.7 58.7001 85.8 60.4001C87.8 62.0001 104 71.2001 104 71.2001L105.4 64.6C103.2 63.8 101.1 62.9 99 61.8Z" fill="#0056A3"/>
        <path d="M77.5 119.3C77.5 119.3 76.8 121.3 76.8 122.8C76.8 124.3 76.9001 126 77.4001 126.3C78.3001 127.1 90.2001 127.2 91.2001 126.1C92.2001 125 91.5 123.2 89 122.6C86.3 121.9 85.9001 122.2 84.2001 121.6C82.5001 121 82.9001 119.1 82.9001 119.1L77.5 119.3Z" fill="#110239"/>
        <path d="M51.5 117.1C51.5 117.1 50.2 118.7 49.6 120.1C49 121.5 48.6 123.1 48.9 123.6C49.5 124.7 60.5 129 61.8 128.3C63.1 127.6 63.1 125.7 61 124.3C58.7 122.7 58.3 122.9 56.9 121.7C55.5 120.5 56.6 118.9 56.6 118.9L51.5 117.1Z" fill="#110239"/>
        <path d="M77.5 68.9001L61.5 70.7001C61.5 70.7001 75.8 93.5001 76.9 97.2001C78 100.9 76.5 120.8 76.5 120.8H83.7C83.7 120.8 85.3 97.3001 84.9 95.5001C84.5 93.7001 77.5 68.9001 77.5 68.9001Z" fill="#F45762"/>
        <path d="M76.9 70.1001H58.6C58.6 70.1001 56.5 75.7001 57.4 79.9001C58.4 84.2001 59 93.2001 58.9 94.8001C58.8 96.4001 49.9 117.7 49.9 117.7L56.5 120.2C56.5 120.2 65.7 99.9001 66.5 97.6001C67.6 95.3001 76.9 70.1001 76.9 70.1001Z" fill="#F45762"/>
        <path d="M76.1 32.4001C74.6 32.5001 73.1 32.3001 71.7 32.1001C71.2 32.0001 70.7 31.8001 70.2 31.6001C70 33.4001 69.5 37.7001 68 39.3001C68 39.3001 68.2 41.5001 72 42.0001C75.8 42.5001 76.6 39.7001 76.6 39.7001C76.6 39.7001 75.8 35.1001 76.1 32.4001Z" fill="#FCD4CA"/>
        <path d="M68 39.3C68 39.3 68 39.4 68 39.5C68 39.6 68.1 39.6 68.1 39.7C68.1 39.8 68.2 39.9 68.3 40C68.4 40.2 68.6 40.5 68.9 40.7C69 40.8 69.2 40.9 69.4 41C69.4 41 69.4 41 69.5 41C69.7 41.1 69.9 41.2 70.1 41.3C70.3 40.4 70.8 39.5 71.6 38.7C72.9 37.4 74.5 36.8 76.2 36.7C76.1 35.2 75.9 33.5 76.1 32.1C74.6 32.2 73.1 32 71.7 31.8C71.2 31.7 70.7 31.5 70.2 31.3C70 33.4 69.5 37.6 68 39.3Z" fill="#E8A393"/>
        <path d="M69.9 21.4999C69.9 21.4999 76.2 19.8999 77.2 21.4999C78.1 23.0999 77.8 25.4999 78.2 26.5999C78.6 27.6999 80.1 28.8999 80.2 29.2999C80.3 29.6999 79.1 30.4999 78.9 30.7999C78.7 31.0999 77.9 34.5999 76.8 35.3999C75.7 36.0999 69.9 33.7999 68.6 30.9999C67.4 28.1999 68.2 22.2999 69.9 21.4999Z" fill="#FCD4CA"/>
        <path d="M76.6 39.0001C76.6 39.0001 72.1 41.2001 68.5 38.6001C68.5 38.6001 61.6 39.8001 60.8 40.1001C60.1 40.4001 61.9 50.2001 61.1 55.1001C60.3 60.0001 57.1 72.0001 57.1 72.0001C57.1 72.0001 65.5 78.5001 80 74.4001C80 74.4001 80.5 57.7001 80.3 53.0001C80.1 46.2001 80 42.2001 80 42.2001C80 42.2001 78.4 40.5001 76.6 39.0001Z" fill="#0186CB"/>
        <path opacity="0.65" d="M66 66.1001C65.4 63.5001 64.9 61.0001 65.4 58.3001C65.9 55.4001 63.8 51.6001 63.4 48.6001C63 45.4001 62.7 43.3001 60.6 41.6001C60.7 44.6001 61.7 51.3001 61.1 55.1001C60.3 60.0001 57.1 72.0001 57.1 72.0001C57.1 72.0001 62.5 76.1001 71.9 75.7001C68.2 73.4001 67.1 70.4001 66 66.1001Z" fill="#0056A3"/>
        <path d="M36 71.2L46.5 99.3L110.3 77L100.2 49.2L36 71.2Z" fill="#BBEADB"/>
        <path d="M41.8 74L49.1 94.3L105.2 74.2999L97.8 54.2L41.8 74Z" fill="white"/>
        <path d="M97.1 67.2C97.1 69.1 95.5 70.7 93.6 70.7C91.7 70.7 90.1 69.1 90.1 67.2C90.1 65.3 91.7 63.7 93.6 63.7C95.6 63.7 97.1 65.3 97.1 67.2Z" fill="#BBEADB"/>
        <path d="M52.5 84.4001C54.433 84.4001 56 82.8331 56 80.9001C56 78.9671 54.433 77.4001 52.5 77.4001C50.567 77.4001 49 78.9671 49 80.9001C49 82.8331 50.567 84.4001 52.5 84.4001Z" fill="#BBEADB"/>
        <path d="M82.1999 74.2001C81.9999 79.0001 77.8999 82.8001 73.0999 82.5001C68.2999 82.3001 64.4999 78.2001 64.7999 73.4001C64.9999 68.6001 69.0999 64.8001 73.8999 65.1001C78.6999 65.3001 82.3999 69.4001 82.1999 74.2001Z" fill="#BBEADB"/>
        <path d="M80.5999 74.1001C80.3999 78.0001 77.0999 81.1001 73.1999 80.9001C69.2999 80.7001 66.1999 77.4001 66.3999 73.5001C66.5999 69.6001 69.8999 66.5001 73.7999 66.7001C77.6999 66.8001 80.7999 70.2001 80.5999 74.1001Z" fill="white"/>
        <path d="M72.7999 70.1001C74.1999 69.7001 75.6999 69.9001 76.1999 71.3001L73.8999 72.1001C73.6999 71.6001 73.0999 71.6001 72.7999 71.8001C72.5999 71.9001 71.8999 72.1001 71.9999 72.6001C72.2999 73.6001 76.2999 71.0001 77.2999 73.8001C77.8999 75.4001 76.7999 76.5001 75.2999 77.2001L75.9999 78.9001L74.5999 79.4001L73.9999 77.5001C72.4999 77.9001 70.8999 77.6001 70.3999 76.2001L72.6999 75.4001V75.5001C72.8999 76.1001 73.6999 76.0001 74.0999 75.9001C74.4999 75.8001 75.0999 75.5001 74.9999 75.0001C74.5999 74.0001 70.5999 76.4001 69.6999 73.8001C69.1999 72.3001 70.0999 71.3001 71.5999 70.6001L70.8999 68.9001L72.2999 68.4001L72.7999 70.1001Z" fill="#BBEADB"/>
        <path d="M72.7 22.3999C72.7 22.3999 72.8 23.8999 71.9 25.5999C71.5 26.2999 73.3 28.3999 72.7 29.2999C72.3 29.8999 71.8 29.6999 71.4 28.4999C71.3 28.0999 70.8 27.7999 70.4 27.5999C68.9 26.8999 68.4 29.1999 69.8 29.8999C70.7 30.3999 70.1 32.7999 70.1 32.7999C69 33.4999 65.7 32.3999 66.2 29.9999C66.5 28.3999 66.6 27.7999 66.1 27.3999C65.1 26.6999 63.9 24.6999 65.6 23.0999C68 20.8999 65.9 20.0999 68.6 19.5999C71.2 19.0999 73.3 20.7999 72.7 22.3999Z" fill="#110239"/>
        <path d="M68.1 20.9C68.3 20.3 69.3 19.6 69.9 19.3C70.7 18.7 71.7 18.4 72.7 18.2C73.7 18 74.7 18 75.7 18.2C76.5 18.4 77.2 18.8 78.1 19C78.9 19.1 79.7 19.1 80.3 18.7C80.5 19.2 80.4 20.3 80.3 20.7C80.1 21.4 79.5 22 79 22.7C77.6 24.5 74.1 25.4 71.8 24.3C70.6 23.8 69.6 23.3 69.1 22.2C68.7 21.7 68.5 21.4 68.1 20.9Z" fill="#110239"/>
        <path d="M108.5 69.3001C109.8 68.6001 110.1 66.7001 109.8 65.4001C109.6 64.4001 108.6 64.1001 107.1 63.7001C106.1 63.4001 105.1 63.2001 104.8 63.4001C103.7 64.5001 107.1 65.1001 107.9 65.4001C107.9 65.4001 104.4 64.3001 104 64.9001C103.2 66.0001 106.6 66.5001 107.4 66.8001C106.7 66.4001 105.2 66.2001 105 66.3001C104.4 66.2001 104.4 66.7001 104.4 66.8001C104.7 67.5001 107.4 68.0001 107.4 68.0001C106.9 67.9001 105.2 67.2001 105.4 68.1001C105.5 68.6001 106.3 68.8001 106.7 69.0001C107.4 69.4001 108.2 69.4001 108.5 69.3001Z" fill="#FCD4CA"/>
        <path d="M64.5 66.0001C65.8 65.9001 67.3 66.2001 68.6 66.2001C69.2 66.2001 69.8 66.1001 70.4 66.1001C70.8 66.1001 71.5 66.0001 71.7 66.4001C71.9 66.9001 71.2 67.0001 70.9 67.1001C70.5 67.2001 69.6 67.1001 69.5 67.7001C69.4 68.5001 70.9 68.7001 71.5 69.0001C72.1 69.2001 73.5 69.8001 72.6 70.3001C72 70.7001 70.6 69.8001 70 69.6001C70.7 69.8001 71.4 70.1001 72 70.4001C72.4 70.6001 73.1 70.9001 73.1 71.3001C73.1 71.9001 71.7 71.5001 71.4 71.4001C70.6 71.0001 70.4 71.0001 69.9 70.6001C70.5 70.9001 72.6 71.8001 71.9 72.5001C71.5 72.9001 69.8 71.7001 69.2 71.4001C69.6 71.7001 70.6 71.9001 70.6 72.6001C70.6 73.0001 69.9 72.7001 69.6 72.5001C69.2 72.3001 68.8 71.9001 68.4 71.7001C68.1 71.5001 67.9 71.4001 67.5 71.1001C66.8 70.6001 66.1 70.4001 65.4 69.7001C64.8 69.1001 64.2 68.4001 63.6 67.9001C64.8 67.5001 63.6 66.6001 64.5 66.0001Z" fill="#FCD4CA"/>
        <path d="M66.3999 65.6001L64.5999 69.7001C64.5999 69.7001 46.2999 63.8001 47.0999 58.9001C47.8999 54.7001 58.4999 40.5001 60.7999 40.0001C63.8999 39.3001 65.1999 46.8001 63.3999 48.6001C59.5999 52.4001 54.1999 57.8001 54.6999 58.6001C55.0999 59.5001 66.3999 65.6001 66.3999 65.6001Z" fill="#0186CB"/>
    </g>
    <defs>
        <clipPath id="clip0">
            <rect x="36" y="18" width="74.3" height="110.4" fill="white"/>
        </clipPath>
    </defs>
</svg>
